<?xml version="1.0" standalone="no"?>
<!DOCTYPE svg PUBLIC "-//W3C//DTD SVG 1.1//EN" "http://www.w3.org/Graphics/SVG/1.1/DTD/svg11.dtd" >
<svg>
<metadata>
Created by FontForge 20090622 at Wed Feb 24 02:33:13 2016
 By deploy user
Copyright (c) 2010 by Pablo Impallari. www.impallari.com. All rights reserved.
</metadata>
<defs>
<font id="Lobster1.4" horiz-adv-x="505" >
  <font-face 
    font-family="Lobster 1.4"
    font-weight="400"
    font-stretch="normal"
    units-per-em="1000"
    panose-1="2 0 5 6 0 0 0 2 0 3"
    ascent="800"
    descent="-200"
    x-height="500"
    cap-height="750"
    bbox="-209 -250 1186 1000"
    underline-thickness="50"
    underline-position="-50"
    unicode-range="U+0020-U+FB04"
  />
<missing-glyph horiz-adv-x="385" 
 />
    <glyph glyph-name="IJ" unicode="IJ" horiz-adv-x="663" 
d="M397 748l-147 -690q31 -5 49 -22t18 -42q0 -14 -7 -33q-23 23 -49 23q-27 0 -46 -21.5t-19 -51.5t19.5 -49t51.5 -19q33 0 54.5 26t37.5 97l164 751l150 33l-150 -710q-52 -247 -250 -247q-81 0 -121 37t-40 100q0 41 16 70h-34l145 679q-66 -28 -103 -83.5t-37 -134.5
q0 -23 3 -37.5t7 -21.5t4 -9q-54 0 -80.5 22.5t-26.5 74.5q0 98 112 179t239 81q14 0 40 -2z" />
    <glyph glyph-name="ij" unicode="ij" horiz-adv-x="507" 
d="M88 633q0 33 23 56.5t56 23.5t56.5 -23.5t23.5 -56.5t-23.5 -56t-56.5 -23t-56 23t-23 56zM68 500h144l-72 -340q-4 -17 -4 -32q0 -20 9.5 -28.5t31.5 -8.5q20 0 32 6q-4 -50 -35 -76.5t-75 -26.5q-48 0 -77.5 30t-29.5 90q0 27 8 65zM336 500h144l-99 -464
q48 17 77 48.5t49 94.5h42q-14 -47 -34.5 -82t-46 -55.5t-47.5 -31.5t-49 -18l-15 -72q-36 -170 -180 -170q-48 0 -80 25t-32 72q0 99 164 149zM347 634q0 33 23 56.5t56 23.5t56.5 -23.5t23.5 -56.5t-23.5 -56t-56.5 -23t-56 23t-23 56zM120 -139q0 -12 9.5 -22.5
t24.5 -10.5q17 0 33 23.5t25 65.5l6 29q-98 -37 -98 -85z" />
    <glyph glyph-name="ff" unicode="ff" horiz-adv-x="508" 
d="M-91 -250q-48 0 -83 30.5t-35 77.5q0 62 42.5 92.5t130.5 57.5l120 571q36 170 182 170q34 0 63.5 -17t43.5 -46q49 63 137 63q48 0 83 -30.5t35 -77.5q0 -23 -3 -41h-47q2 20 2 27q0 16 -11 25t-27 9q-50 0 -68 -79l-18 -82h100l-9 -40h-99l-113 -540
q-36 -170 -182 -170q-81 0 -108 63q-48 -63 -136 -63zM204 460l-89 -423l103 18l85 405h-99zM72 -141q11 -20 58 -20q42 0 59 78l24 114l-103 -19l-19 -92q-7 -31 -19 -61zM336 627q0 16 -11 25t-27 9q-50 0 -68 -79l-18 -82h99l23 105q2 8 2 22zM-148 -128q0 -11 12 -22
t28 -11q42 0 59 78l12 58q-53 -18 -82 -41.5t-29 -61.5z" />
    <glyph glyph-name="fi" unicode="fi" horiz-adv-x="534" 
d="M411 553q-60 0 -60 54q0 18 9.5 33.5t24.5 15.5q7 0 8 -1q-2 40 -55 40q-82 0 -106 -113l-17 -82h80l-8 -40h-80l-114 -540q-20 -94 -69 -132t-107 -38q-55 0 -89.5 30.5t-34.5 81.5q0 32 13.5 56t42 41t53 27t64.5 22l111 526q46 215 234 215q179 0 179 -115
q0 -42 -22.5 -61.5t-56.5 -19.5zM-152 -121q0 -22 14 -31t27 -9q17 0 33.5 19t24.5 59l12 58q-50 -16 -80.5 -41t-30.5 -55zM335 500h144l-72 -340q-4 -17 -4 -32q0 -20 9.5 -28.5t31.5 -8.5q29 0 54 25t36 63h42q-65 -185 -210 -185q-48 0 -77.5 30t-29.5 90q0 27 8 65z
" />
    <glyph glyph-name="fl" unicode="fl" horiz-adv-x="548" 
d="M-154 -128q0 -11 12 -22t28 -11q18 0 34.5 18.5t24.5 59.5l12 58q-53 -18 -82 -41.5t-29 -61.5zM531 680l-110 -520q-4 -17 -4 -32q0 -20 9.5 -28.5t31.5 -8.5q29 0 54 25t36 63h42q-65 -185 -210 -185q-48 0 -77.5 30t-29.5 90q0 27 8 65l104 491q-38 16 -82 16
q-51 0 -68 -79l-22 -107h93l-8 -40h-93l-114 -540q-36 -170 -182 -170q-48 0 -83 30.5t-35 77.5q0 62 42.5 92.5t130.5 57.5l120 571q36 170 182 170q42 0 91 -11t83 -23t91 -35z" />
    <glyph glyph-name="ffi" unicode="ffi" horiz-adv-x="764" 
d="M444 500h265l-72 -340q-4 -17 -4 -32q0 -20 9.5 -28.5t31.5 -8.5q29 0 54 25t36 63h42q-65 -185 -210 -185q-48 0 -77.5 30t-29.5 90q0 27 8 65l59 281h-120l-114 -540q-20 -94 -69 -132t-107 -38q-77 0 -109 53q-48 -53 -128 -53q-48 0 -83 30.5t-35 77.5
q0 62 42.5 92.5t130.5 57.5l120 571q36 170 182 170q83 0 123 -52q58 52 151 52q179 0 179 -115q0 -42 -22.5 -61.5t-56.5 -19.5q-60 0 -60 54q0 18 9.5 33.5t24.5 15.5q7 0 8 -1q-2 40 -55 40q-82 0 -106 -113zM206 460l-90 -424l88 15l86 409h-84zM108 -175q49 0 68 92
l23 109l-89 -18l-19 -88q-7 -34 -20 -63q5 -32 37 -32zM299 500l7 34q15 73 50 125q-15 17 -40 17q-69 0 -86 -94l-16 -82h85zM-148 -128q0 -11 12 -22t28 -11q18 0 34.5 18.5t24.5 59.5l12 58q-53 -18 -82 -41.5t-29 -61.5z" />
    <glyph glyph-name="ffl" unicode="ffl" horiz-adv-x="780" 
d="M-91 -250q-48 0 -83 30.5t-35 77.5q0 62 42.5 92.5t130.5 57.5l120 571q36 170 182 170q74 0 115 -42q46 42 117 42q42 0 91 -11t83 -23t91 -35l-110 -520q-4 -17 -4 -32q0 -20 9.5 -28.5t31.5 -8.5q29 0 54 25t36 63h42q-65 -185 -210 -185q-48 0 -77.5 30t-29.5 90
q0 27 8 65l104 491q-38 16 -82 16q-51 0 -68 -79l-22 -107h93l-8 -40h-93l-115 -540q-20 -94 -69 -132t-107 -38q-77 0 -109 54q-48 -54 -128 -54zM206 460l-90 -424l88 15l87 409h-85zM71 -142q4 -33 37 -33q49 0 68 92l23 109l-89 -18l-19 -88q-7 -33 -20 -62zM299 500
l17 79q10 49 32 87q-13 10 -32 10q-69 0 -86 -94l-16 -82h85zM-148 -128q0 -11 12 -22t28 -11q18 0 34.5 18.5t24.5 59.5l12 58q-53 -18 -82 -41.5t-29 -61.5z" />
    <glyph glyph-name="E_x" unicode="Ex" horiz-adv-x="797" 
d="M455 462h141l32 -178q95 103 95 159q0 8 -1 12q-12 -2 -17 -2q-47 0 -47 56q0 22 16 34.5t40 12.5q32 0 50 -25t18 -64q0 -48 -34 -103t-109 -135l9 -50q4 -21 6.5 -31t9 -26t17 -23.5t26.5 -7.5q29 0 54 25t36 63h42q-65 -185 -206 -185q-46 0 -72 30.5t-43 101.5
q-54 -63 -145 -102.5t-176 -39.5q-84 0 -137 43t-53 131q0 84 51.5 161.5t133.5 97.5q-61 44 -61 120q0 81 63.5 148t155.5 67q62 0 102.5 -33t40.5 -92q0 -44 -22 -74t-52 -30q-27 0 -47 27q18 6 31 33t13 54q0 29 -16 42.5t-39 13.5q-43 0 -72.5 -43t-29.5 -98
q0 -47 25 -84t76 -50q-76 -17 -127.5 -91t-51.5 -148q0 -52 28 -77t74 -25q54 0 116.5 31t105.5 80z" />
    <glyph glyph-name="F_i" unicode="Fi" horiz-adv-x="726" 
d="M349 450h126l-16 -74h-126l-81 -376h-144l144 668h-11q-67 0 -103 -45.5t-36 -161.5q0 -23 3 -37.5t7 -21.5t4 -9q-54 0 -80.5 22.5t-26.5 74.5t19 97t58 82.5t107 59t157 21.5q31 0 107 -10t124 -10q72 0 145 19q-31 -155 -124 -155q-36 0 -68.5 8.5t-72.5 24t-69 23.5z
M527 500h144l-72 -340q-4 -17 -4 -32q0 -20 9.5 -28.5t31.5 -8.5q29 0 54 25t36 63h42q-65 -185 -210 -185q-48 0 -77.5 30t-29.5 90q0 27 8 65z" />
    <glyph glyph-name="T_h" unicode="Th" horiz-adv-x="971" 
d="M99 460q0 -23 3 -37.5t7 -21.5t4 -9q-54 0 -80.5 22.5t-26.5 74.5q0 109 89 184.5t263 75.5q16 0 114 -13t156 -13q84 0 121 24q-21 -38 -36.5 -91t-47.5 -210q51 58 119 58q51 0 81 -28t30 -85q0 -44 -24 -138.5t-24 -119.5q0 -42 40 -42q30 0 47 21t37 67h42
q-63 -185 -186 -185q-61 0 -89.5 32.5t-28.5 80.5q0 35 22.5 129t22.5 126q0 51 -36 51q-49 0 -76 -86l-61 -327h-144l137 638q-4 0 -132 17l-141 -655h-144l143 664q-94 -3 -147.5 -48.5t-53.5 -155.5z" />
    <glyph glyph-name="T_i" unicode="Ti" horiz-adv-x="744" 
d="M157 0l144 671q-21 3 -40 3q-162 0 -162 -214q0 -23 3 -37.5t7 -21.5t4 -9q-54 0 -80.5 22.5t-26.5 74.5t19 97t58 82.5t107 59t157 21.5q13 0 107 -8t150 -8q81 0 115 14q11 -34 11 -66q0 -54 -33 -77t-70 -23q-16 0 -38.5 5t-40 11.5l-53 19.5t-57.5 20l-137 -637h-144
zM545 500h144l-72 -340q-4 -17 -4 -32q0 -20 9.5 -28.5t31.5 -8.5q29 0 54 25t36 63h42q-65 -185 -210 -185q-48 0 -77.5 30t-29.5 90q0 27 8 65z" />
    <glyph glyph-name="a_x" unicode="ax" horiz-adv-x="899" 
d="M336 500h144l-72 -340q-3 -14 -3 -25q0 -44 43 -44q38 0 82.5 27t77.5 67l-58 315h141l39 -216q95 103 95 159q0 8 -1 12q-12 -2 -17 -2q-47 0 -47 56q0 22 16 34.5t40 12.5q32 0 50 -25t18 -64q0 -48 -34 -103t-109 -135l9 -50q4 -21 6.5 -31t9 -26t17 -23.5t26.5 -7.5
q29 0 54 25t36 63h42q-65 -185 -206 -185q-47 0 -72.5 31t-43.5 103q-106 -134 -235 -134q-42 0 -74.5 25.5t-39.5 68.5q-62 -94 -150 -94q-57 0 -95 39t-38 122q0 53 16.5 112t46.5 113t81 89.5t113 35.5q81 0 81 -51v-7zM275 443q-40 0 -73.5 -49.5t-50 -112t-16.5 -112.5
q0 -27 5 -44.5t14 -24t15 -8t16 -1.5q24 0 49.5 23.5t33.5 64.5l48 226q0 13 -10 25.5t-31 12.5z" />
    <glyph glyph-name="a_z" unicode="a&#x7a;" horiz-adv-x="906" 
d="M336 500h144l-72 -340q-4 -17 -4 -32q0 -20 9.5 -28.5t31.5 -8.5q13 0 22 4q-22 -57 -42 -79t-58 -22q-40 0 -66 24.5t-32 68.5q-61 -93 -149 -93q-57 0 -95 39t-38 122q0 53 16.5 112t46.5 113t81 89.5t113 35.5q81 0 81 -51v-7zM784 91q-19 1 -19 21q0 15 15 29t41 14
q22 0 33 -13.5t11 -34.5q0 -38 -34 -72.5t-88 -34.5h-265l255 446h-56q-55 0 -55 -16l6 -4q5 -4 5 -18q0 -26 -16 -39.5t-38 -13.5q-19 0 -32.5 11.5t-13.5 32.5q0 35 33.5 68t82.5 33h257l-245 -423q3 0 31.5 -3t44.5 -3q43 0 47 20zM275 443q-40 0 -73.5 -49.5t-50 -112
t-16.5 -112.5q0 -27 5 -44.5t14 -24t15 -8t16 -1.5q24 0 49.5 23.5t33.5 64.5l48 226q0 13 -10 25.5t-31 12.5z" />
    <glyph glyph-name="b_s" unicode="bs" horiz-adv-x="799" 
d="M799 179h42q-57 -66 -139 -117q-46 -68 -147 -68q-139 0 -139 133q0 42 22 68.5t50 26.5q52 0 52 -42q0 -18 -14.5 -31.5t-33.5 -13.5q-20 0 -27 13q0 -75 58 -75q34 0 48.5 20.5t14.5 72.5q0 24 -8 98t-14 174q-70 -105 -158 -135q-4 -50 -20 -100t-46 -99t-84 -79.5
t-123 -30.5q-68 0 -104 33.5t-36 94.5q0 28 7 57l107 501l148 20l-48 -225q46 28 82 28q110 0 117 -150q70 11 155 158l148 20q5 -110 10.5 -189.5t8.5 -114t3 -60.5q0 -21 -3 -37q30 17 71 49zM288 338q0 25 13 41q-12 53 -48 53q-44 0 -59 -18l-55 -254q-3 -12 -3 -23
q0 -46 53 -46q41 0 74 64.5t41 142.5q-16 10 -16 40z" />
    <glyph glyph-name="b_s_x" unicode="bsx" horiz-adv-x="1144" 
d="M795 500h141l39 -216q95 103 95 159q0 8 -1 12q-12 -2 -17 -2q-47 0 -47 56q0 22 16 34.5t40 12.5q32 0 50 -25t18 -64q0 -48 -34 -103t-109 -135l9 -50q4 -21 6.5 -31t9 -26t17 -23.5t26.5 -7.5q29 0 54 25t36 63h42q-65 -185 -206 -185q-48 0 -74.5 34t-44.5 114
q-22 -16 -50.5 -30.5t-64.5 -30.5t-46 -21q-47 -66 -145 -66q-139 0 -139 133q0 42 22 68.5t50 26.5q52 0 52 -42q0 -18 -14.5 -31.5t-33.5 -13.5q-20 0 -27 13q0 -75 58 -75q34 0 48.5 20.5t14.5 72.5q0 24 -8 98t-14 174q-70 -105 -158 -135q-4 -50 -20 -100t-46 -99
t-84 -79.5t-123 -30.5q-68 0 -104 33.5t-36 94.5q0 28 7 57l107 501l148 20l-48 -225q46 28 82 28q110 0 117 -150q70 11 155 158l148 20q5 -110 10.5 -189.5t8.5 -114t3 -60.5q0 -18 -4 -44q77 32 124 72zM288 338q0 25 13 41q-12 53 -48 53q-44 0 -59 -18l-55 -254
q-3 -12 -3 -23q0 -46 53 -46q41 0 74 64.5t41 142.5q-16 10 -16 40z" />
    <glyph glyph-name="b_s_z" unicode="bs&#x7a;" horiz-adv-x="1158" 
d="M0 179l107 501l148 20l-48 -225q46 28 82 28q110 0 117 -150q70 11 155 158l148 20q5 -110 10.5 -189.5t8.5 -114t3 -60.5q0 -89 -52 -131t-124 -42q-139 0 -139 133q0 42 22 68.5t50 26.5q52 0 52 -42q0 -18 -14.5 -31.5t-33.5 -13.5q-20 0 -27 13q0 -75 58 -75
q34 0 48.5 20.5t14.5 72.5q0 24 -8 98t-14 174q-70 -105 -158 -135q-4 -50 -20 -100t-46 -99t-84 -79.5t-123 -30.5q-68 0 -104 33.5t-36 94.5q0 28 7 57zM1036 91q-19 1 -19 21q0 15 15 29t41 14q22 0 33 -13.5t11 -34.5q0 -38 -34 -72.5t-88 -34.5h-265l255 446h-56
q-55 0 -55 -16l6 -4q5 -4 5 -18q0 -26 -16 -39.5t-38 -13.5q-19 0 -32.5 11.5t-13.5 32.5q0 35 33.5 68t82.5 33h257l-245 -423q3 0 31.5 -3t44.5 -3q43 0 47 20zM288 338q0 25 13 41q-12 53 -48 53q-44 0 -59 -18l-55 -254q-3 -12 -3 -23q0 -46 53 -46q41 0 74 64.5
t41 142.5q-16 10 -16 40z" />
    <glyph glyph-name="c_x" unicode="cx" horiz-adv-x="755" 
d="M272 356q12 32 12 59q0 41 -27 41q-30 0 -61 -51.5t-49.5 -117t-18.5 -112.5q0 -99 101 -99q56 0 121.5 30t112.5 84l-57 310h141l39 -216q95 103 95 159q0 8 -1 12q-12 -2 -18 -2q-24 0 -35 15.5t-11 36.5q0 25 15 38t39 13q34 0 52 -24.5t18 -62.5q0 -48 -33 -103
t-110 -138l9 -49q4 -21 6.5 -31t9 -26t17 -23.5t26.5 -7.5q29 0 54 25t36 63h42q-20 -57 -48 -97t-57 -57.5t-52 -24t-46 -6.5q-50 0 -76.5 31.5t-43.5 106.5q-62 -64 -148.5 -101t-167.5 -37q-80 0 -129 39.5t-49 124.5q0 35 8 78t28 92t49.5 88.5t77.5 66t106 26.5
q111 0 111 -93q0 -36 -15.5 -54t-37.5 -18q-19 0 -35 12z" />
    <glyph glyph-name="c_z" unicode="c&#x7a;" horiz-adv-x="769" 
d="M647 91q-19 1 -19 21q0 15 15 29t41 14q22 0 33 -13.5t11 -34.5q0 -38 -34 -72.5t-88 -34.5h-265l255 446h-36q-55 0 -55 -16l5 -4q6 -4 6 -18q0 -26 -16 -39.5t-38 -13.5q-19 0 -32.5 11.5t-13.5 32.5q0 35 33 68t83 33h237l-245 -423q20 0 49 -6t42 -6q27 0 32 26z
M272 356q12 32 12 59q0 41 -27 41q-45 0 -87 -102.5t-42 -183.5q0 -83 60 -83q54 0 120 55q-27 -148 -173 -148q-155 0 -155 159q0 49 14.5 105.5t43.5 115t84 97t127 38.5q111 0 111 -93q0 -36 -15.5 -54t-37.5 -18q-19 0 -35 12z" />
    <glyph glyph-name="e_x" unicode="ex" horiz-adv-x="762" 
d="M413 500h141l39 -216q95 103 95 159q0 8 -1 12q-12 -2 -18 -2q-24 0 -35 15.5t-11 36.5q0 25 15 38t39 13q34 0 52 -24.5t18 -62.5q0 -48 -33 -103t-110 -138l9 -49q4 -21 6.5 -31t9 -26t17 -23.5t26.5 -7.5q29 0 54 25t36 63h42q-20 -57 -48 -97t-57 -57.5t-52 -24
t-46 -6.5q-49 0 -75.5 31t-44.5 108q-60 -63 -146.5 -101t-169.5 -38q-80 0 -129 39t-49 124q0 36 8 79t28.5 92t50 88.5t77.5 66t106 26.5q110 0 110 -96q0 -85 -69 -145.5t-162 -65.5q-1 -9 -1 -27q0 -99 100 -99q57 0 122.5 30t112.5 84zM290 415q0 41 -25 41
q-36 0 -70 -64t-51 -142q58 3 102 52.5t44 112.5z" />
    <glyph glyph-name="e_z" unicode="e&#x7a;" horiz-adv-x="788" 
d="M128 172q0 -83 62 -83q57 0 118 53q-27 -148 -173 -148q-155 0 -155 159q0 38 8 81.5t28.5 93t50 89.5t77.5 66t106 26q110 0 110 -96q0 -85 -68.5 -145.5t-161.5 -65.5q-2 -20 -2 -30zM666 91q-19 1 -19 21q0 15 15 29t41 14q22 0 33 -13.5t11 -34.5q0 -38 -34 -72.5
t-88 -34.5h-265l255 446h-56q-55 0 -55 -16l6 -4q5 -4 5 -18q0 -26 -16 -39.5t-38 -13.5q-19 0 -32.5 11.5t-13.5 32.5q0 35 33.5 68t82.5 33h257l-245 -423q3 0 31.5 -3t44.5 -3q43 0 47 20zM283 415q0 41 -25 41q-35 0 -69.5 -63.5t-51.5 -142.5q58 3 102 52.5t44 112.5z
" />
    <glyph glyph-name="eacute_x" unicode="&#xe9;x" horiz-adv-x="760" 
d="M411 500h141l39 -216q95 103 95 159q0 8 -1 12q-12 -2 -17 -2q-47 0 -47 56q0 22 16 34.5t40 12.5q32 0 50 -25t18 -64q0 -48 -34 -103t-109 -135l9 -50q4 -21 6.5 -31t9 -26t17 -23.5t26.5 -7.5q29 0 54 25t36 63h42q-65 -185 -206 -185q-47 0 -73 32t-44 107
q-60 -63 -147 -101t-166 -38q-81 0 -131 38.5t-50 121.5q0 48 14 104.5t43.5 115t85 97t128.5 38.5q62 0 85.5 -26.5t23.5 -72.5q0 -82 -69 -142.5t-161 -65.5q-2 -22 -2 -32q0 -94 103 -94q54 0 119.5 30t112.5 84zM224 561l91 189h105l-121 -189h-75zM288 412q0 44 -24 44
q-36 0 -70 -63t-52 -143q58 4 102 53t44 109z" />
    <glyph glyph-name="f_f_t" unicode="fft" horiz-adv-x="780" 
d="M-91 -250q-48 0 -83 30.5t-35 77.5q0 62 42.5 92.5t130.5 57.5l120 571q36 170 182 170q74 0 115 -42q46 42 117 42q42 0 91 -11t83 -23t91 -35l-38 -180h60l-8 -40h-61l-63 -300q-4 -17 -4 -32q0 -20 9.5 -28.5t31.5 -8.5q29 0 54 25t36 63h42q-65 -185 -210 -185
q-48 0 -77.5 30t-29.5 90q0 27 8 65l59 281h-135l-115 -540q-20 -94 -69 -132t-107 -38q-77 0 -109 54q-48 -54 -128 -54zM206 460l-90 -424l88 15l87 409h-85zM581 500l36 170q-38 16 -82 16q-51 0 -68 -79l-22 -107h136zM71 -142q4 -33 37 -33q49 0 68 92l23 109l-89 -18
l-19 -88q-7 -33 -20 -62zM299 500l17 79q10 49 32 87q-13 10 -32 10q-69 0 -86 -94l-16 -82h85zM-148 -128q0 -11 12 -22t28 -11q18 0 34.5 18.5t24.5 59.5l12 58q-53 -18 -82 -41.5t-29 -61.5z" />
    <glyph glyph-name="f_i_x" unicode="fix" horiz-adv-x="898" 
d="M411 553q-60 0 -60 54q0 18 9.5 33.5t24.5 15.5q7 0 8 -1q-2 40 -55 40q-82 0 -106 -113l-17 -82h80l-8 -40h-80l-114 -540q-20 -94 -69 -132t-107 -38q-55 0 -89.5 30.5t-34.5 81.5q0 32 13.5 56t42 41t53 27t64.5 22l111 526q46 215 234 215q179 0 179 -115
q0 -42 -22.5 -61.5t-56.5 -19.5zM335 500h144l-72 -340q-4 -17 -4 -32q0 -36 44 -36q38 0 82.5 26.5t76.5 67.5l-57 314h141l39 -216q95 103 95 159q0 8 -1 12q-12 -2 -17 -2q-47 0 -47 56q0 22 16 34.5t40 12.5q32 0 50 -25t18 -64q0 -48 -34 -103t-109 -135l9 -50
q4 -21 6.5 -31t9 -26t17 -23.5t26.5 -7.5q29 0 54 25t36 63h42q-65 -185 -206 -185q-47 0 -73 32t-43 106q-53 -60 -120 -99t-133 -39q-48 0 -77 30t-29 89q0 26 8 66zM-152 -121q0 -22 14 -31t27 -9q17 0 33.5 19t24.5 59l12 58q-50 -16 -80.5 -41t-30.5 -55z" />
    <glyph glyph-name="f_i_z" unicode="fi&#x7a;" horiz-adv-x="904" 
d="M-152 -121q0 -22 14 -31t27 -9q17 0 33.5 19t24.5 59l12 58q-50 -16 -80.5 -41t-30.5 -55zM411 553q-60 0 -60 54q0 18 9.5 33.5t24.5 15.5q7 0 8 -1q-2 40 -55 40q-82 0 -106 -113l-17 -82h80l-8 -40h-80l-114 -540q-20 -94 -69 -132t-107 -38q-55 0 -89.5 30.5
t-34.5 81.5q0 32 13.5 56t42 41t53 27t64.5 22l111 526q46 215 234 215q179 0 179 -115q0 -42 -22.5 -61.5t-56.5 -19.5zM335 500h144l-72 -340q-4 -17 -4 -32q0 -20 9.5 -28.5t31.5 -8.5q20 0 32 6q-4 -50 -35 -76.5t-75 -26.5q-48 0 -77.5 30t-29.5 90q0 27 8 65zM782 91
q-19 1 -19 21q0 15 15 29t41 14q22 0 33 -13.5t11 -34.5q0 -38 -34 -72.5t-88 -34.5h-265l255 446h-56q-55 0 -55 -16l6 -4q5 -4 5 -18q0 -26 -16 -39.5t-38 -13.5q-19 0 -32.5 11.5t-13.5 32.5q0 35 33.5 68t82.5 33h257l-245 -423q3 0 31.5 -3t44.5 -3q43 0 47 20z" />
    <glyph glyph-name="f_l_x" unicode="flx" horiz-adv-x="912" 
d="M531 680l-110 -520q-4 -17 -4 -32q0 -36 44 -36q38 0 82.5 26.5t76.5 67.5l-57 314h141l39 -216q95 103 95 159q0 8 -1 12q-12 -2 -17 -2q-47 0 -47 56q0 22 16 34.5t40 12.5q32 0 50 -25t18 -64q0 -48 -34 -103t-109 -135l9 -50q4 -21 6.5 -31t9 -26t17 -23.5t26.5 -7.5
q29 0 54 25t36 63h42q-65 -185 -206 -185q-47 0 -73 32t-43 106q-53 -60 -120 -99t-133 -39q-48 0 -77 30t-29 89q0 26 8 66l104 491q-38 16 -82 16q-51 0 -68 -79l-22 -107h93l-8 -40h-93l-114 -540q-36 -170 -182 -170q-48 0 -83 30.5t-35 77.5q0 62 42.5 92.5t130.5 57.5
l120 571q36 170 182 170q42 0 91 -11t83 -23t91 -35zM-154 -128q0 -11 12 -22t28 -11q42 0 59 78l12 58q-53 -18 -82 -41.5t-29 -61.5z" />
    <glyph glyph-name="f_l_z" unicode="fl&#x7a;" horiz-adv-x="938" 
d="M-154 -128q0 -11 12 -22t28 -11q18 0 34.5 18.5t24.5 59.5l12 58q-53 -18 -82 -41.5t-29 -61.5zM531 680l-110 -520q-4 -17 -4 -32q0 -20 9.5 -28.5t31.5 -8.5q20 0 32 6q-4 -50 -35 -76.5t-75 -26.5q-48 0 -77.5 30t-29.5 90q0 27 8 65l104 491q-38 16 -82 16
q-51 0 -68 -79l-22 -107h93l-8 -40h-93l-114 -540q-36 -170 -182 -170q-48 0 -83 30.5t-35 77.5q0 62 42.5 92.5t130.5 57.5l120 571q36 170 182 170q42 0 91 -11t83 -23t91 -35zM816 91q-19 1 -19 21q0 15 15 29t41 14q22 0 33 -13.5t11 -34.5q0 -38 -34 -72.5t-88 -34.5
h-265l255 446h-56q-55 0 -55 -16l6 -4q5 -4 5 -18q0 -26 -16 -39.5t-38 -13.5q-19 0 -32.5 11.5t-13.5 32.5q0 35 33.5 68t82.5 33h257l-245 -423q3 0 31.5 -3t44.5 -3q43 0 47 20z" />
    <glyph glyph-name="f_t" unicode="ft" horiz-adv-x="548" 
d="M484 460l-63 -300q-4 -17 -4 -32q0 -20 9.5 -28.5t31.5 -8.5q29 0 54 25t36 63h42q-65 -185 -210 -185q-48 0 -77.5 30t-29.5 90q0 27 8 65l59 281h-135l-114 -540q-36 -170 -182 -170q-48 0 -83 30.5t-35 77.5q0 62 42.5 92.5t130.5 57.5l120 571q36 170 182 170
q42 0 91 -11t83 -23t91 -35l-38 -180h60l-8 -40h-61zM349 500l36 170q-38 16 -82 16q-51 0 -68 -79l-22 -107h136zM-154 -128q0 -11 12 -22t28 -11q42 0 59 78l12 58q-53 -18 -82 -41.5t-29 -61.5z" />
    <glyph glyph-name="f_u" unicode="fu" horiz-adv-x="772" 
d="M582 500h144l-72 -340q-4 -17 -4 -32q0 -20 9.5 -28.5t31.5 -8.5q55 0 81 88h42q-65 -185 -201 -185q-43 0 -69 24.5t-30 70.5q-58 -95 -148 -95q-48 0 -77.5 30t-29.5 90q0 27 8 65l59 281h-122l-115 -540q-36 -170 -179 -170q-48 0 -83 30.5t-35 77.5q0 33 12.5 57.5
t39 41.5t52 27.5t68.5 23.5l121 571q36 170 182 170q48 0 83 -30.5t35 -77.5q0 -23 -3 -41h-47q2 20 2 27q0 16 -11 25t-27 9q-21 0 -41 -18.5t-29 -63.5l-17 -79h267l-72 -340q-3 -15 -3 -28q0 -41 30 -41q54 0 80 88zM-153 -128q0 -11 12 -22t28 -11q40 0 57 78l13 58
q-53 -18 -81.5 -41.5t-28.5 -61.5z" />
    <glyph glyph-name="f_x" unicode="fx" horiz-adv-x="663" 
d="M212 500h243l36 -198q98 89 98 141q0 8 -1 12q-12 -2 -17 -2q-47 0 -47 56q0 22 16 34.5t40 12.5q32 0 50 -25t18 -64q0 -49 -34.5 -100.5t-111.5 -121.5l12 -66q4 -21 6.5 -31t9 -26t17 -23.5t26.5 -7.5q29 0 54 25t36 63h42q-65 -185 -206 -185q-53 0 -80 42t-46 143
l-2 7q-90 -61 -90 -112q5 1 13 1q41 0 41 -49q0 -55 -56 -55q-66 0 -66 71q0 47 45 104.5t103 95.5l-40 218h-117l-115 -540q-36 -170 -179 -170q-48 0 -83 30.5t-35 77.5q0 33 12.5 57.5t39 41.5t52 27.5t68.5 23.5l121 571q36 170 182 170q48 0 83 -30.5t35 -77.5
q0 -23 -3 -41h-47q2 20 2 27q0 16 -11 25t-27 9q-21 0 -41 -18.5t-29 -63.5zM-156 -128q0 -11 12 -22t28 -11q40 0 57 78l13 58q-53 -18 -81.5 -41.5t-28.5 -61.5z" />
    <glyph glyph-name="g_p" unicode="gp" horiz-adv-x="975" 
d="M583 537h144l-16 -75q50 43 117 43q122 0 122 -158q0 -44 -6.5 -89t-24.5 -93.5t-44.5 -85.5t-70.5 -61t-100 -24q-50 0 -92 3l-45 -211l-151 -36l53 252q-52 -2 -97 -11l-15 -71q-36 -170 -180 -170q-48 0 -80 25t-32 72q0 100 164 154l11 48q-51 -55 -120 -55
q-57 0 -95 39t-38 122q0 53 16.5 112t46.5 113t81 89.5t113 35.5q81 0 81 -51v-6l11 52h144l-98 -459q46 11 100 19zM673 76q37 0 66 29t44 73.5t22.5 88.5t7.5 83q0 83 -50 83q-40 0 -69 -49l-65 -309q14 1 44 1zM275 443q-40 0 -73.5 -49.5t-50 -112t-16.5 -112.5
q0 -27 5 -44.5t14 -24t15 -8t16 -1.5q22 0 46 21t34 57l51 237q-1 13 -10.5 25t-30.5 12zM120 -139q0 -12 9.5 -22.5t24.5 -10.5q17 0 33 23.5t25 65.5l6 29q-98 -37 -98 -85z" />
    <glyph glyph-name="g_x" unicode="gx" horiz-adv-x="892" 
d="M543 500h141l39 -216q95 103 95 159q0 8 -1 12q-12 -2 -17 -2q-47 0 -47 56q0 22 16 34.5t40 12.5q32 0 50 -25t18 -64q0 -48 -34 -103t-109 -135l9 -50q4 -21 6.5 -31t9 -26t17 -23.5t26.5 -7.5q29 0 54 25t36 63h42q-65 -185 -206 -185q-47 0 -73 31.5t-43 105.5
q-84 -93 -240 -138l-15 -73q-36 -170 -180 -170q-48 0 -80 25t-32 72q0 96 163 146l12 57q-52 -56 -120 -56q-57 0 -95 39t-38 122q0 53 16.5 112t46.5 113t81 89.5t113 35.5q81 0 81 -51v-7l11 53h144l-98 -461q60 22 110.5 55.5t106.5 97.5zM275 443q-40 0 -73.5 -49.5
t-50 -112t-16.5 -112.5q0 -27 5 -44.5t14 -24t15 -8t16 -1.5q24 0 48.5 21.5t32.5 59.5l50 233q0 13 -10 25.5t-31 12.5zM120 -139q0 -12 9.5 -22.5t24.5 -10.5q17 0 33 23.5t25 65.5l6 30q-98 -37 -98 -86z" />
    <glyph glyph-name="g_z" unicode="g&#x7a;" horiz-adv-x="907" 
d="M324 452l10 48h145l-122 -580q-36 -170 -182 -170q-48 0 -83 30.5t-35 77.5q0 63 43 93.5t130 56.5l9 42q-52 -56 -120 -56q-57 0 -95 39t-38 122q0 53 16.5 112t46.5 113t81 89.5t113 35.5q81 0 81 -53zM785 91q-19 1 -19 21q0 15 15 29t41 14q22 0 33 -13.5t11 -34.5
q0 -38 -34 -72.5t-88 -34.5h-265l255 446h-56q-55 0 -55 -16l5 -4q6 -4 6 -18q0 -26 -16 -39.5t-38 -13.5q-19 0 -32.5 11.5t-13.5 32.5q0 35 33 68t83 33h257l-245 -423q3 0 31.5 -3t44.5 -3q43 0 47 20zM274 443q-40 0 -73.5 -49.5t-50 -112t-16.5 -112.5q0 -27 5 -44.5
t14 -24t15 -8t16 -1.5q23 0 47.5 20t32.5 55l51 242q-5 35 -41 35zM112 -128q0 -11 12 -22t28 -11q42 0 59 78l12 59q-111 -37 -111 -104z" />
    <glyph glyph-name="i_x" unicode="ix" horiz-adv-x="631" 
d="M68 500h144l-72 -340q-4 -17 -4 -32q0 -36 44 -36q38 0 82.5 26.5t76.5 67.5l-57 314h141l39 -216q95 103 95 159q0 8 -1 12q-12 -2 -17 -2q-47 0 -47 56q0 22 16 34.5t40 12.5q32 0 50 -25t18 -64q0 -48 -34 -103t-109 -135l9 -50q4 -21 6.5 -31t9 -26t17 -23.5
t26.5 -7.5q29 0 54 25t36 63h42q-65 -185 -206 -185q-47 0 -73 32t-43 106q-53 -60 -120 -99t-133 -39q-48 0 -77 30t-29 89q0 26 8 66zM88 633q0 33 23 56.5t56 23.5t56.5 -23.5t23.5 -56.5t-23.5 -56t-56.5 -23t-56 23t-23 56z" />
    <glyph glyph-name="i_z" unicode="i&#x7a;" horiz-adv-x="637" 
d="M88 633q0 33 23 56.5t56 23.5t56.5 -23.5t23.5 -56.5t-23.5 -56t-56.5 -23t-56 23t-23 56zM68 500h144l-72 -340q-4 -17 -4 -32q0 -20 9.5 -28.5t31.5 -8.5q20 0 32 6q-4 -50 -35 -76.5t-75 -26.5q-48 0 -77.5 30t-29.5 90q0 27 8 65zM515 91q-19 1 -19 21q0 15 15 29
t41 14q22 0 33 -13.5t11 -34.5q0 -38 -34 -72.5t-88 -34.5h-265l255 446h-56q-55 0 -55 -16l5 -4q6 -4 6 -18q0 -26 -16 -39.5t-38 -13.5q-19 0 -32.5 11.5t-13.5 32.5q0 35 33 68t83 33h257l-245 -423q3 0 31.5 -3t44.5 -3q43 0 47 20z" />
    <glyph glyph-name="iacute_x" unicode="&#xed;x" horiz-adv-x="631" 
d="M68 500h144l-72 -340q-4 -17 -4 -32q0 -36 44 -36q38 0 82.5 26.5t76.5 67.5l-57 314h141l39 -216q95 103 95 159q0 8 -1 12q-12 -2 -17 -2q-47 0 -47 56q0 22 16 34.5t40 12.5q32 0 50 -25t18 -64q0 -48 -34 -103t-109 -135l9 -50q4 -21 6.5 -31t9 -26t17 -23.5
t26.5 -7.5q29 0 54 25t36 63h42q-65 -185 -206 -185q-47 0 -73 32t-43 106q-53 -60 -120 -99t-133 -39q-48 0 -77 30t-29 89q0 26 8 66zM112 561l91 189h105l-121 -189h-75z" />
    <glyph glyph-name="iacute_z" unicode="&#xed;&#x7a;" horiz-adv-x="637" 
d="M68 500h144l-72 -340q-4 -17 -4 -32q0 -20 9.5 -28.5t31.5 -8.5q20 0 32 6q-4 -50 -35 -76.5t-75 -26.5q-48 0 -77.5 30t-29.5 90q0 27 8 65zM515 91q-19 1 -19 21q0 15 15 29t41 14q22 0 33 -13.5t11 -34.5q0 -38 -34 -72.5t-88 -34.5h-265l255 446h-56q-55 0 -55 -16
l5 -4q6 -4 6 -18q0 -26 -16 -39.5t-38 -13.5q-19 0 -32.5 11.5t-13.5 32.5q0 35 33 68t83 33h257l-245 -423q3 0 31.5 -3t44.5 -3q43 0 47 20zM111 561l91 189h105l-121 -189h-75z" />
    <glyph glyph-name="j_x" unicode="jx" horiz-adv-x="624" 
d="M275 500h141l39 -216q95 103 95 159q0 8 -1 12q-12 -2 -17 -2q-47 0 -47 56q0 22 16 34.5t40 12.5q32 0 50 -25t18 -64q0 -48 -34 -103t-109 -135l9 -50q4 -21 6.5 -31t9 -26t17 -23.5t26.5 -7.5q29 0 54 25t36 63h42q-65 -185 -206 -185q-47 0 -73 31.5t-43 105.5
q-84 -93 -240 -138l-15 -73q-36 -170 -180 -170q-48 0 -80 25t-32 72q0 96 164 146l107 507h144l-98 -461q60 22 110.5 55.5t106.5 97.5zM79 634q0 33 23 56.5t56 23.5t56.5 -23.5t23.5 -56.5t-23.5 -56t-56.5 -23t-56 23t-23 56zM-148 -139q0 -12 9.5 -22.5t24.5 -10.5
q17 0 33 23.5t25 65.5l7 30q-99 -36 -99 -86z" />
    <glyph glyph-name="j_z" unicode="j&#x7a;" horiz-adv-x="618" 
d="M-32 8l103 492h145l-122 -580q-36 -170 -182 -170q-48 0 -83 30.5t-35 77.5q0 63 43 93.5t131 56.5zM496 91q-19 1 -19 21q0 15 15 29t41 14q22 0 33 -13.5t11 -34.5q0 -38 -34 -72.5t-88 -34.5h-265l255 446h-56q-55 0 -55 -16l6 -4q5 -4 5 -18q0 -26 -16 -39.5
t-38 -13.5q-19 0 -32.5 11.5t-13.5 32.5q0 35 33.5 68t82.5 33h257l-245 -423q3 0 31.5 -3t44.5 -3q43 0 47 20zM87 634q0 33 23 56.5t56 23.5t56.5 -23.5t23.5 -56.5t-23.5 -56t-56.5 -23t-56 23t-23 56zM-151 -128q0 -11 12 -22t28 -11q42 0 59 78l13 59
q-53 -18 -82.5 -42t-29.5 -62z" />
    <glyph glyph-name="l_x" unicode="lx" horiz-adv-x="631" 
d="M1 179l106 501l148 20l-114 -540q-4 -17 -4 -32q0 -36 44 -36q38 0 82 26t77 67l-58 315h141l39 -216q95 103 95 159q0 8 -1 12q-12 -2 -17 -2q-47 0 -47 56q0 22 16 34.5t40 12.5q32 0 50 -25t18 -64q0 -48 -34 -103t-109 -135l9 -50q4 -21 6.5 -31t9 -26t17 -23.5
t26.5 -7.5q29 0 54 25t36 63h42q-65 -185 -206 -185q-47 0 -73 31.5t-43 105.5q-53 -59 -120 -98t-132 -39q-48 0 -77 30t-29 89q0 26 8 66z" />
    <glyph glyph-name="l_z" unicode="l&#x7a;" horiz-adv-x="635" 
d="M253 702l-115 -540q-4 -20 -4 -29q0 -40 41 -40q20 0 32 6q-4 -51 -35.5 -78t-74.5 -27q-48 0 -77.5 30.5t-29.5 91.5q0 27 8 65l107 501zM513 91q-19 1 -19 21q0 15 15 29t41 14q22 0 33 -13.5t11 -34.5q0 -38 -34 -72.5t-88 -34.5h-265l255 446h-56q-55 0 -55 -16l5 -4
q6 -4 6 -18q0 -26 -16 -39.5t-38 -13.5q-19 0 -32.5 11.5t-13.5 32.5q0 35 33 68t83 33h257l-245 -423q3 0 31.5 -3t44.5 -3q43 0 47 20z" />
    <glyph glyph-name="m_x" unicode="mx" horiz-adv-x="1124" 
d="M775 500h141l39 -216q95 103 95 159q0 8 -1 12q-12 -2 -17 -2q-47 0 -47 56q0 22 16 34.5t40 12.5q32 0 50 -25t18 -64q0 -48 -34 -103t-109 -135l9 -50q4 -21 6.5 -31t9 -26t17 -23.5t26.5 -7.5q29 0 54 25t36 63h42q-65 -185 -206 -185q-47 0 -73 32t-44 106
q-53 -57 -121.5 -97.5t-119.5 -40.5q-60 0 -86 32t-26 81q0 35 22.5 129t22.5 126q0 51 -36 51q-50 0 -78 -92l-68 -321h-144l73 345q3 12 3 25q0 44 -30 44q-53 0 -81 -93l-68 -321h-144l106 500h144l-11 -52q50 57 122 57q88 0 103 -86q55 85 139 85q51 0 81 -28t30 -85
q0 -44 -24 -138.5t-24 -119.5q0 -42 44 -42q35 0 81 27t79 68z" />
    <glyph glyph-name="m_z" unicode="m&#x7a;" horiz-adv-x="1125" 
d="M535 362q0 51 -36 51q-50 0 -78 -92l-68 -321h-144l73 345q3 12 3 25q0 44 -30 44q-53 0 -81 -93l-68 -321h-144l106 500h144l-11 -52q50 57 122 57q88 0 103 -86q55 85 139 85q51 0 81 -28t30 -85q0 -44 -24 -138.5t-24 -119.5q0 -42 40 -42q24 0 33 6q-6 -51 -36.5 -77
t-73.5 -26q-53 0 -77 32t-24 81q0 35 22.5 129t22.5 126zM1003 91q-19 1 -19 21q0 15 15 29t41 14q22 0 33 -13.5t11 -34.5q0 -38 -34 -72.5t-88 -34.5h-265l255 446h-56q-55 0 -55 -16l5 -4q6 -4 6 -18q0 -26 -16 -39.5t-38 -13.5q-19 0 -32.5 11.5t-13.5 32.5q0 35 33 68
t83 33h257l-245 -423q3 0 31.5 -3t44.5 -3q43 0 47 20z" />
    <glyph glyph-name="n_z" unicode="n&#x7a;" horiz-adv-x="882" 
d="M288 362q0 51 -36 51q-50 0 -78 -92l-68 -321h-144l106 500h144l-11 -52q49 56 117 56q51 0 81 -28t30 -85q0 -44 -24 -138.5t-24 -119.5q0 -42 40 -42q24 0 33 6q-6 -51 -36.5 -77t-73.5 -26q-53 0 -77 32t-24 81q0 35 22.5 129t22.5 126zM760 91q-19 1 -19 21
q0 15 15 29t41 14q22 0 33 -13.5t11 -34.5q0 -38 -34 -72.5t-88 -34.5h-265l255 446h-56q-55 0 -55 -16l6 -4q5 -4 5 -18q0 -26 -16 -39.5t-38 -13.5q-19 0 -32.5 11.5t-13.5 32.5q0 35 33.5 68t82.5 33h257l-245 -423q3 0 31.5 -3t44.5 -3q43 0 47 20z" />
    <glyph glyph-name="o_ae" unicode="o&#xe6;" horiz-adv-x="1089" 
d="M259 509q123 0 128 -151q38 16 78 43.5t66 49t66 38t85 16.5q102 0 149 -41q57 41 132 41q62 0 85.5 -25t23.5 -70q0 -82 -69 -142.5t-161 -65.5q-2 -22 -2 -32q0 -53 15 -72.5t45 -19.5q46 0 81 14.5t54.5 32t53.5 54.5h34q-115 -185 -276 -185q-120 0 -147 96
q-51 -96 -136 -96q-133 0 -133 131q0 165 228 165q24 0 46 -4q22 49 22 90q0 70 -68 70q-39 0 -71.5 -14.5t-54.5 -34t-61.5 -44.5t-85.5 -40q-8 -144 -74.5 -230.5t-163.5 -86.5q-74 0 -117 38t-43 120q0 48 14 104.5t43.5 115t85 97t128.5 38.5zM188 86q37 0 70 60.5
t43 148.5q-27 6 -27 48q0 41 31 53q-2 28 -11 40t-27 12q-49 0 -89.5 -99t-40.5 -182q0 -48 11 -64.5t40 -16.5zM995 412q0 44 -24 44q-36 0 -70 -63t-52 -143q58 4 102 53t44 109zM699 228q-6 1 -20 1q-47 0 -77 -23.5t-30 -67.5q0 -47 51 -47q52 0 76 137z" />
    <glyph glyph-name="o_s" unicode="os" horiz-adv-x="786" 
d="M548 511l148 20q5 -110 10.5 -189.5t8.5 -114t3 -60.5q0 -21 -3 -37q30 17 71 49h42q-57 -66 -139 -117q-46 -68 -147 -68q-139 0 -139 133q0 42 22 68.5t50 26.5q52 0 52 -42q0 -18 -14.5 -31.5t-33.5 -13.5q-21 0 -27 13q0 -75 58 -75q34 0 48.5 20.5t14.5 72.5
q0 24 -8 98t-14 174q-72 -109 -168 -138q-10 -138 -76.5 -221t-160.5 -83q-74 0 -117 38t-43 120q0 48 14 104.5t43.5 115t85 97t128.5 38.5q126 0 128 -157q73 4 163 159zM186 86q37 0 69.5 59.5t43.5 147.5q-24 9 -24 45q0 39 28 52q-1 31 -10 44.5t-28 13.5
q-49 0 -89.5 -99t-40.5 -182q0 -48 11 -64.5t40 -16.5z" />
    <glyph glyph-name="o_s_x" unicode="osx" horiz-adv-x="1132" 
d="M549 511l148 20q5 -110 10.5 -189.5t8.5 -114t3 -60.5q0 -18 -4 -44q77 32 124 72l-56 305h141l39 -216q95 103 95 159q0 8 -1 12q-12 -2 -17 -2q-47 0 -47 56q0 22 16 34.5t40 12.5q32 0 50 -25t18 -64q0 -48 -34 -103t-109 -135l9 -50q4 -21 6.5 -31t9 -26t17 -23.5
t26.5 -7.5q29 0 54 25t36 63h42q-65 -185 -206 -185q-48 0 -74.5 34t-44.5 114q-22 -16 -50.5 -30.5t-64.5 -30.5t-46 -21q-47 -66 -145 -66q-139 0 -139 133q0 42 22 68.5t50 26.5q52 0 52 -42q0 -18 -14.5 -31.5t-33.5 -13.5q-20 0 -27 13q0 -75 58 -75q34 0 48.5 20.5
t14.5 72.5q0 24 -8 98t-14 174q-72 -109 -168 -138q-10 -138 -76.5 -221t-160.5 -83q-74 0 -117 38t-43 120q0 48 14 104.5t43.5 115t85 97t128.5 38.5q126 0 128 -157q73 4 163 159zM187 86q37 0 69.5 59.5t43.5 147.5q-24 9 -24 45q0 39 28 52q-1 31 -10 44.5t-28 13.5
q-49 0 -89.5 -99t-40.5 -182q0 -48 11 -64.5t40 -16.5z" />
    <glyph glyph-name="o_s_z" unicode="os&#x7a;" horiz-adv-x="1139" 
d="M548 511l148 20q5 -110 10.5 -189.5t8.5 -114t3 -60.5q0 -89 -52 -131t-124 -42q-139 0 -139 133q0 42 22 68.5t50 26.5q52 0 52 -42q0 -18 -14.5 -31.5t-33.5 -13.5q-21 0 -27 13q0 -75 58 -75q34 0 48.5 20.5t14.5 72.5q0 24 -8 98t-14 174q-72 -109 -168 -138
q-10 -138 -76.5 -221t-160.5 -83q-74 0 -117 38t-43 120q0 48 14 104.5t43.5 115t85 97t128.5 38.5q126 0 128 -157q73 4 163 159zM1017 91q-19 1 -19 21q0 15 15 29t41 14q22 0 33 -13.5t11 -34.5q0 -38 -34 -72.5t-88 -34.5h-265l255 446h-56q-55 0 -55 -16l5 -4
q6 -4 6 -18q0 -26 -16 -39.5t-38 -13.5q-19 0 -32.5 11.5t-13.5 32.5q0 35 33 68t83 33h257l-245 -423q3 0 31.5 -3t44.5 -3q43 0 47 20zM186 86q37 0 69.5 59.5t43.5 147.5q-24 9 -24 45q0 39 28 52q-1 31 -10 44.5t-28 13.5q-49 0 -89.5 -99t-40.5 -182q0 -48 11 -64.5
t40 -16.5z" />
    <glyph glyph-name="o_x" unicode="ox" horiz-adv-x="851" 
d="M259 509q126 0 128 -157q55 6 123 100l-9 48h141l36 -198q98 89 98 141q0 8 -1 12q-12 -2 -17 -2q-47 0 -47 56q0 22 16 34.5t40 12.5q32 0 50 -25t18 -64q0 -49 -34.5 -100.5t-111.5 -121.5l12 -66q4 -21 6.5 -31t9 -26t17 -23.5t26.5 -7.5q29 0 54 25t36 63h42
q-65 -185 -206 -185q-53 0 -80 42t-46 143l-2 7q-90 -61 -90 -112q5 1 13 1q41 0 41 -49q0 -55 -56 -55q-66 0 -66 71q0 47 45 104.5t103 95.5l-28 155q-61 -73 -135 -96q-11 -139 -78.5 -222t-161.5 -83q-74 0 -117 38t-43 120q0 48 14.5 104.5t44.5 115t86 97t129 38.5z
M185 86q37 0 70.5 59.5t45.5 147.5q-27 7 -27 45q0 41 31 53q-1 31 -10 44t-28 13q-33 0 -65 -50t-50 -115t-18 -116q0 -48 11 -64.5t40 -16.5z" />
    <glyph glyph-name="oacute_s" unicode="&#xf3;s" horiz-adv-x="787" 
d="M549 511l148 20q5 -110 10.5 -189.5t8.5 -114t3 -60.5q0 -21 -3 -37q30 17 71 49h42q-57 -66 -139 -117q-46 -68 -147 -68q-139 0 -139 133q0 42 22 68.5t50 26.5q52 0 52 -42q0 -18 -14.5 -31.5t-33.5 -13.5q-20 0 -27 13q0 -75 58 -75q34 0 48.5 20.5t14.5 72.5
q0 24 -8 98t-14 174q-72 -109 -168 -138q-10 -138 -76.5 -221t-160.5 -83q-74 0 -117 38t-43 120q0 48 14 104.5t43.5 115t85 97t128.5 38.5q126 0 128 -157q73 4 163 159zM187 86q37 0 69.5 59.5t43.5 147.5q-24 9 -24 45q0 39 28 52q-1 31 -10 44.5t-28 13.5
q-49 0 -89.5 -99t-40.5 -182q0 -48 11 -64.5t40 -16.5zM219 561l91 189h105l-121 -189h-75z" />
    <glyph glyph-name="oacute_s_x" unicode="&#xf3;sx" horiz-adv-x="1141" 
d="M550 511l148 20q5 -110 10.5 -189.5t8.5 -114t3 -60.5q0 -89 -52 -131t-124 -42q-139 0 -139 133q0 42 22 68.5t50 26.5q52 0 52 -42q0 -18 -14.5 -31.5t-33.5 -13.5q-21 0 -27 13q0 -75 58 -75q34 0 48.5 20.5t14.5 72.5q0 24 -8 98t-14 174q-72 -109 -168 -138
q-10 -138 -76.5 -221t-160.5 -83q-74 0 -117 38t-43 120q0 48 14 104.5t43.5 115t85 97t128.5 38.5q126 0 128 -157q73 4 163 159zM1019 91q-19 1 -19 21q0 15 15 29t41 14q22 0 33 -13.5t11 -34.5q0 -38 -34 -72.5t-88 -34.5h-265l255 446h-56q-55 0 -55 -16l5 -4
q6 -4 6 -18q0 -26 -16 -39.5t-38 -13.5q-19 0 -32.5 11.5t-13.5 32.5q0 35 33 68t83 33h257l-245 -423q3 0 31.5 -3t44.5 -3q43 0 47 20zM188 86q37 0 69.5 59.5t43.5 147.5q-24 9 -24 45q0 39 28 52q-1 31 -10 44.5t-28 13.5q-49 0 -89.5 -99t-40.5 -182q0 -48 11 -64.5
t40 -16.5zM220 561l91 189h105l-121 -189h-75z" />
    <glyph glyph-name="oacute_s_z" unicode="&#xf3;s&#x7a;" horiz-adv-x="1140" 
d="M549 511l148 20q5 -110 10.5 -189.5t8.5 -114t3 -60.5q0 -89 -52 -131t-124 -42q-139 0 -139 133q0 42 22 68.5t50 26.5q52 0 52 -42q0 -18 -14.5 -31.5t-33.5 -13.5q-20 0 -27 13q0 -75 58 -75q34 0 48.5 20.5t14.5 72.5q0 24 -8 98t-14 174q-72 -109 -168 -138
q-10 -138 -76.5 -221t-160.5 -83q-74 0 -117 38t-43 120q0 48 14 104.5t43.5 115t85 97t128.5 38.5q126 0 128 -157q73 4 163 159zM1018 91q-19 1 -19 21q0 15 15 29t41 14q22 0 33 -13.5t11 -34.5q0 -38 -34 -72.5t-88 -34.5h-265l255 446h-56q-55 0 -55 -16l6 -4
q5 -4 5 -18q0 -26 -16 -39.5t-38 -13.5q-19 0 -32.5 11.5t-13.5 32.5q0 35 33.5 68t82.5 33h257l-245 -423q3 0 31.5 -3t44.5 -3q43 0 47 20zM187 86q37 0 69.5 59.5t43.5 147.5q-24 9 -24 45q0 39 28 52q-1 31 -10 44.5t-28 13.5q-49 0 -89.5 -99t-40.5 -182
q0 -48 11 -64.5t40 -16.5zM219 561l91 189h105l-121 -189h-75z" />
    <glyph glyph-name="oacute_x" unicode="&#xf3;x" horiz-adv-x="852" 
d="M260 509q126 0 128 -157q55 6 123 100l-9 48h141l36 -198q98 89 98 141q0 8 -1 12q-12 -2 -17 -2q-47 0 -47 56q0 22 16 34.5t40 12.5q32 0 50 -25t18 -64q0 -49 -34.5 -100.5t-111.5 -121.5l12 -66q4 -21 6.5 -31t9 -26t17 -23.5t26.5 -7.5q29 0 54 25t36 63h42
q-65 -185 -206 -185q-53 0 -80 42t-46 143l-2 7q-90 -61 -90 -112q5 1 13 1q41 0 41 -49q0 -55 -56 -55q-66 0 -66 71q0 47 45 104.5t103 95.5l-28 155q-61 -73 -135 -96q-11 -139 -78.5 -222t-161.5 -83q-74 0 -117 38t-43 120q0 48 14.5 104.5t44.5 115t86 97t129 38.5z
M186 86q37 0 70.5 59.5t45.5 147.5q-27 7 -27 45q0 41 31 53q-1 31 -10 44t-28 13q-33 0 -65 -50t-50 -115t-18 -116q0 -48 11 -64.5t40 -16.5zM218 561l91 189h105l-121 -189h-75z" />
    <glyph glyph-name="r_x" unicode="rx" horiz-adv-x="784" 
d="M422 500h141l45 -202q102 92 102 145q0 8 -1 12q-12 -2 -17 -2q-47 0 -47 56q0 22 16 34.5t40 12.5q32 0 50 -25t18 -64q0 -50 -35 -102t-114 -122l15 -64l3.5 -14.5t3.5 -15.5t4 -14.5t5.5 -14t7 -11.5t9 -10t11.5 -5.5t15 -2.5q29 0 54 25t36 63h42q-65 -185 -203 -185
q-53 0 -79.5 41t-49.5 144l-2 7q-90 -61 -90 -112q5 1 13 1q41 0 41 -49q0 -55 -56 -55q-66 0 -66 71q0 47 44 103.5t102 94.5zM68 500h144l-13 -62q23 20 37 30.5t38 21t46 10.5q32 0 50.5 -22t18.5 -53q0 -29 -19 -51t-53 -22q-19 0 -28.5 10.5t-10.5 22.5t-5 22.5
t-14 10.5q-32 0 -73 -38l-80 -380h-144z" />
    <glyph glyph-name="r_z" unicode="r&#x7a;" horiz-adv-x="654" 
d="M259 418q-32 0 -73 -38l-80 -380h-144l106 500h144l-13 -62q23 20 37 30.5t38 21t46 10.5h334l-245 -423q19 0 48 -6t43 -6q27 0 32 26q-19 1 -19 21q0 15 15 29t41 14q22 0 33 -13.5t11 -34.5q0 -38 -34 -72.5t-88 -34.5h-265l254 443h-93q1 -5 1 -15q0 -33 -19 -54.5
t-52 -21.5q-19 0 -28.5 10.5t-10.5 22.5t-5 22.5t-14 10.5z" />
    <glyph glyph-name="s_x" unicode="sx" horiz-adv-x="727" 
d="M378 500h141l39 -216q95 103 95 159q0 8 -1 12q-12 -2 -17 -2q-47 0 -47 56q0 22 16 34.5t40 12.5q32 0 50 -25t18 -64q0 -48 -34 -103t-109 -135l9 -50q4 -21 6.5 -31t9 -26t17 -23.5t26.5 -7.5q29 0 54 25t36 63h42q-65 -185 -206 -185q-48 0 -74.5 34t-44.5 114
q-33 -23 -101.5 -54.5t-71.5 -33.5q-57 -60 -157 -60q-71 0 -108.5 38.5t-37.5 89.5q0 33 15.5 57.5t37.5 35.5q67 118 123 296l148 20q5 -110 10.5 -189.5t8.5 -114t3 -60.5q0 -22 -5 -45q80 33 125 73zM92 179q0 -19 -12.5 -34t-31.5 -15q-20 0 -27 13q0 -36 14.5 -53
t46.5 -17q37 0 62 22t25 71q0 25 -7 91.5t-12 145.5q-24 -79 -81 -189q23 -11 23 -35z" />
    <glyph glyph-name="s_z" unicode="s&#x7a;" horiz-adv-x="744" 
d="M144 511l148 20q5 -110 10.5 -189.5t8.5 -114t3 -60.5q0 -61 -34 -102t-77 -56t-89 -15q-71 0 -108.5 38.5t-37.5 89.5q0 33 15.5 57.5t37.5 35.5q67 118 123 296zM622 91q-19 1 -19 21q0 15 15 29t41 14q22 0 33 -13.5t11 -34.5q0 -38 -34 -72.5t-88 -34.5h-265l255 446
h-56q-55 0 -55 -16l6 -4q5 -4 5 -18q0 -26 -16 -39.5t-38 -13.5q-19 0 -32.5 11.5t-13.5 32.5q0 35 33.5 68t82.5 33h257l-245 -423q3 0 31.5 -3t44.5 -3q43 0 47 20zM92 179q0 -19 -12.5 -34t-31.5 -15q-20 0 -27 13q0 -36 14.5 -53t46.5 -17q37 0 62 22t25 71
q0 25 -7 91.5t-12 145.5q-24 -79 -81 -189q23 -11 23 -35z" />
    <glyph glyph-name="t_x" unicode="tx" horiz-adv-x="631" 
d="M1 179l60 281h-33l8 40h33l30 138l148 20l-34 -158h210l39 -216q95 103 95 159q0 8 -1 12q-12 -2 -17 -2q-47 0 -47 56q0 22 16 34.5t40 12.5q32 0 50 -25t18 -64q0 -48 -34 -103t-109 -135l9 -50q4 -21 6.5 -31t9 -26t17 -23.5t26.5 -7.5q29 0 54 25t36 63h42
q-65 -185 -206 -185q-47 0 -73 31.5t-43 105.5q-53 -59 -120 -98t-132 -39q-48 0 -77 30t-29 89q0 26 8 66zM205 460l-64 -300q-4 -17 -4 -32q0 -36 44 -36q38 0 82 26t77 67l-51 275h-84z" />
    <glyph glyph-name="t_z" unicode="t&#x7a;" horiz-adv-x="704" 
d="M208 460l-64 -300q-5 -20 -5 -35q0 -36 35 -36q18 0 26 3q-32 -98 -106 -98q-50 0 -75 31t-25 82q0 26 6 53l64 300h-33l8 40h33l30 138l148 20l-34 -158h60l-8 -40h-60zM582 91q-19 1 -19 21q0 15 15 29t41 14q22 0 33 -13.5t11 -34.5q0 -38 -34 -72.5t-88 -34.5h-265
l255 446h-56q-55 0 -55 -16l6 -4q5 -4 5 -18q0 -26 -16 -39.5t-38 -13.5q-19 0 -32.5 11.5t-13.5 32.5q0 35 33.5 68t82.5 33h257l-245 -423q3 0 31.5 -3t44.5 -3q43 0 47 20z" />
    <glyph glyph-name="u_v" unicode="uv" horiz-adv-x="923" 
d="M68 500h144l-72 -340q-3 -12 -3 -25q0 -44 30 -44q54 0 80 88l68 321h143l-106 -500h-143l11 51q-51 -57 -121 -57q-48 0 -77.5 30t-29.5 90q0 27 8 65zM836 520q31 0 47.5 -24.5t16.5 -65.5q0 -63 -16 -134.5t-48 -141t-89 -115t-128 -45.5q-58 0 -91 29.5t-33 85.5
q0 23 6 51l59 286l-26 13l8 41h176l-73 -340q-6 -28 -6 -37q0 -32 38 -32q41 0 80.5 55t62 127t22.5 130v16q-12 -4 -21 -4q-20 0 -31 16.5t-11 39.5q0 17 17 33t40 16z" />
    <glyph glyph-name="u_x" unicode="ux" horiz-adv-x="878" 
d="M68 500h144l-72 -340q-3 -12 -3 -25q0 -44 30 -44q54 0 80 88l68 321h144l-72 -340q-3 -14 -3 -25q0 -44 43 -44q38 0 82.5 27t77.5 67l-58 315h141l39 -216q95 103 95 159q0 8 -1 12q-12 -2 -17 -2q-47 0 -47 56q0 22 16 34.5t40 12.5q32 0 50 -25t18 -64
q0 -48 -34 -103t-109 -135l9 -50q4 -21 6.5 -31t9 -26t17 -23.5t26.5 -7.5q29 0 54 25t36 63h42q-65 -185 -206 -185q-47 0 -72.5 31t-43.5 103q-106 -134 -235 -134q-42 0 -75 26t-40 70q-58 -96 -149 -96q-48 0 -77.5 30.5t-29.5 90.5q0 26 8 64z" />
    <glyph glyph-name="y_p" unicode="yp" horiz-adv-x="954" 
d="M562 537h144l-16 -75q50 43 117 43q122 0 122 -158q0 -44 -6.5 -89t-24.5 -93.5t-44.5 -85.5t-70.5 -61t-100 -24q-50 0 -92 3l-45 -211l-151 -36l53 252q-52 -2 -97 -11l-15 -71q-36 -170 -180 -170q-48 0 -80 25t-32 72q0 100 164 154l11 49q-50 -56 -120 -56
q-48 0 -77.5 30t-29.5 90q0 27 8 65l68 321h144l-72 -340q-3 -12 -3 -25q0 -44 30 -44q52 0 78 82l70 327h144l-98 -459q46 11 100 19zM652 76q37 0 66 29t44 73.5t22.5 88.5t7.5 83q0 83 -50 83q-40 0 -69 -49l-65 -309q14 1 44 1zM99 -139q0 -12 9.5 -22.5t24.5 -10.5
q17 0 33 23.5t25 65.5l6 29q-98 -37 -98 -85z" />
    <glyph glyph-name="y_x" unicode="yx" horiz-adv-x="871" 
d="M315 500h144l-98 -461q60 22 110.5 55.5t106.5 97.5l-56 308h141l39 -216q95 103 95 159q0 8 -1 12q-12 -2 -17 -2q-47 0 -47 56q0 22 16 34.5t40 12.5q32 0 50 -25t18 -64q0 -48 -34 -103t-109 -135l9 -50q4 -21 6.5 -31t9 -26t17 -23.5t26.5 -7.5q29 0 54 25t36 63h42
q-64 -184 -206 -184q-47 0 -73 31.5t-43 104.5q-84 -93 -240 -138l-15 -73q-36 -170 -180 -170q-48 0 -80 25t-32 72q0 96 163 146l13 58q-50 -56 -121 -56q-48 0 -77.5 29.5t-29.5 89.5q0 27 8 65l68 321h144l-72 -340q-3 -12 -3 -25q0 -44 30 -44q54 0 80 88zM99 -139
q0 -12 9.5 -22.5t24.5 -10.5q17 0 33 23.5t25 65.5l6 30q-98 -37 -98 -86z" />
    <glyph glyph-name="y_z" unicode="y&#x7a;" horiz-adv-x="888" 
d="M68 500h144l-72 -340q-3 -12 -3 -25q0 -44 30 -44q54 0 80 88l68 321h145l-122 -580q-36 -170 -182 -170q-48 0 -83 30.5t-35 77.5q0 63 43 93.5t130 56.5l10 44q-51 -58 -122 -58q-48 0 -77.5 30t-29.5 90q0 27 8 65zM766 91q-19 1 -19 21q0 15 15 29t41 14
q22 0 33 -13.5t11 -34.5q0 -38 -34 -72.5t-88 -34.5h-265l255 446h-56q-55 0 -55 -16l6 -4q5 -4 5 -18q0 -26 -16 -39.5t-38 -13.5q-19 0 -32.5 11.5t-13.5 32.5q0 35 33.5 68t82.5 33h257l-245 -423q3 0 31.5 -3t44.5 -3q43 0 47 20zM93 -128q0 -11 12 -22t28 -11
q17 0 33.5 18.5t25.5 59.5l12 59q-111 -37 -111 -104z" />
    <glyph glyph-name=".notdef" horiz-adv-x="385" 
 />
    <glyph glyph-name=".null" horiz-adv-x="0" 
 />
    <glyph glyph-name="nonmarkingreturn" horiz-adv-x="333" 
 />
    <glyph glyph-name="space" unicode=" " horiz-adv-x="217" 
 />
    <glyph glyph-name="exclam" unicode="!" horiz-adv-x="257" 
d="M183 231h-85l71 469h144zM193 80q0 -33 -23 -56.5t-56 -23.5t-56.5 23.5t-23.5 56.5t23.5 56t56.5 23t56 -23t23 -56z" />
    <glyph glyph-name="quotedbl" unicode="&#x22;" horiz-adv-x="420" 
d="M62 561l61 189h105l-91 -189h-75zM219 561l61 189h105l-91 -189h-75z" />
    <glyph glyph-name="numbersign" unicode="#" horiz-adv-x="659" 
d="M307 -27l25 138h-118l-30 -138h-57l25 138h-107l21 102h104l21 113h-102l21 102h99l52 290h88l-65 -290h105l52 290h88l-65 -290h104l-20 -102h-106l-25 -113h107l-20 -102h-110l-30 -138h-57zM262 326l-25 -113h113l21 113h-109z" />
    <glyph glyph-name="dollar" unicode="$" horiz-adv-x="403" 
d="M110 -27l24 135q-110 9 -110 114q0 38 21 62t51 24q20 0 31.5 -7.5t11.5 -17.5q-40 -7 -40 -74q0 -42 42 -61l36 196q-7 6 -28.5 23t-30.5 25t-22.5 23.5t-19 31.5t-5.5 34q0 53 47.5 91t106.5 40l19 106h58l-25 -109q87 -14 87 -83q0 -35 -13 -55.5t-35 -20.5
q-20 0 -39 23q24 14 24 52q0 31 -32 44l-36 -161q28 -18 40.5 -27.5t33.5 -29.5t30 -43.5t9 -52.5q0 -69 -49.5 -107.5t-130.5 -40.5l-29 -134h-27zM241 234q0 40 -29 76l-37 -166q34 4 50 29t16 61zM166 500q0 -33 28 -61l24 135q-52 -11 -52 -74z" />
    <glyph glyph-name="percent" unicode="%" horiz-adv-x="644" 
d="M579 750l-386 -750h-72l386 750h72zM269 702q82 0 82 -113q0 -74 -41 -144.5t-107 -70.5q-55 0 -75.5 28t-20.5 86q0 91 44.5 152.5t117.5 61.5zM181 519q-2 -24 -2 -43q0 -65 27 -65q38 0 61.5 57t23.5 136q0 63 -25 63t-52.5 -40.5t-32.5 -107.5zM517 328
q44 0 68 -29.5t24 -83.5q0 -34 -9 -69.5t-26.5 -69.5t-49.5 -55t-73 -21q-55 0 -75.5 28t-20.5 86q0 91 44.5 152.5t117.5 61.5zM424 145q-2 -24 -2 -43q0 -65 27 -65q38 0 60 53.5t22 132.5q0 68 -28 68q-24 0 -48.5 -39.5t-30.5 -106.5z" />
    <glyph glyph-name="ampersand" unicode="&#x26;" horiz-adv-x="682" 
d="M676 413h6q0 -43 -45.5 -86t-106.5 -53q-16 -57 -36.5 -101.5t-41 -73.5t-47 -50t-47 -31.5t-49.5 -16t-46.5 -6.5t-44.5 -1q-98 0 -152.5 59.5t-54.5 142.5q0 77 47.5 140t133.5 81q-99 54 -99 152q0 73 60.5 127t161.5 54q78 0 131 -33t53 -101q0 -92 -70 -92
q-35 0 -57 26q17 5 30.5 33t13.5 49q0 74 -66 74q-54 0 -88 -36t-34 -87q0 -47 32.5 -91t99.5 -74q-89 -37 -131.5 -90.5t-42.5 -110.5q0 -55 34.5 -94t82.5 -39q60 0 110 43.5t71 144.5q-4 0 -30.5 3t-40.5 3q-66 0 -94 -45l-7 1q15 63 66.5 102t126.5 39q14 0 39 -2.5
t37 -2.5q71 0 95 43z" />
    <glyph glyph-name="quotesingle" unicode="'" horiz-adv-x="268" 
d="M102 561l61 189h105l-91 -189h-75z" />
    <glyph glyph-name="parenleft" unicode="(" horiz-adv-x="437" 
d="M464 750l13 -40q-72 -36 -134 -138.5t-97 -236t-35 -262.5q0 -187 73 -294l-33 -29q-113 125 -113 350q0 131 39.5 262t115 236.5t171.5 151.5z" />
    <glyph glyph-name="parenright" unicode=")" horiz-adv-x="413" 
d="M-16 -250l-13 40q110 55 188 246t78 391q0 187 -73 294l33 29q113 -125 113 -350q0 -132 -39.5 -262.5t-115 -236t-171.5 -151.5z" />
    <glyph glyph-name="asterisk" unicode="*" horiz-adv-x="515" 
d="M223 752h64v-135l107 62l30 -52l-109 -63l109 -63l-30 -52l-107 62v-135h-64v135l-107 -62l-30 52l109 63l-109 63l30 52l107 -62v135z" />
    <glyph glyph-name="plus" unicode="+" horiz-adv-x="515" 
d="M345 439l-27 -122h127l-23 -112h-128l-27 -123h-113l27 123h-128l24 112h128l27 122h113z" />
    <glyph glyph-name="comma" unicode="," horiz-adv-x="216" 
d="M24 75q0 33 23 56.5t56 23.5q32 0 50 -21t18 -55q0 -47 -35.5 -105.5t-94.5 -99.5q-9 6 -9 17q0 18 26 45t26 46q0 11 -13 20q-47 31 -47 73z" />
    <glyph glyph-name="hyphen" unicode="-" horiz-adv-x="290" 
d="M237 301l-17 -79h-201l18 79h200z" />
    <glyph glyph-name="period" unicode="." horiz-adv-x="263" 
d="M31 75q0 33 23 56.5t56 23.5t56.5 -23.5t23.5 -56.5t-23.5 -56t-56.5 -23t-56 23t-23 56z" />
    <glyph glyph-name="slash" unicode="/" horiz-adv-x="311" 
d="M295 750l-212 -1000h-72l212 1000h72z" />
    <glyph glyph-name="zero" unicode="0" horiz-adv-x="546" 
d="M377 750q178 0 178 -261q0 -77 -21.5 -162t-60 -161t-101 -125.5t-135.5 -49.5q-121 0 -164 63.5t-43 199.5q0 137 41 249t121 179.5t185 67.5zM188 325q-5 -68 -5 -99q0 -151 59 -151q55 0 97.5 72t63.5 179.5t21 226.5q0 71 -11 108t-43 37q-51 0 -110.5 -108.5
t-71.5 -264.5z" />
    <glyph glyph-name="one" unicode="1" horiz-adv-x="317" 
d="M324 748l-159 -748h-144l132 624h-95l12 46q123 0 254 78z" />
    <glyph glyph-name="two" unicode="2" horiz-adv-x="492" 
d="M111 132q27 0 89 -9t102 -9q15 0 26.5 1t23 5.5t17.5 6.5t17 11l14.5 12t17.5 16t18 17q1 -16 1 -44q0 -79 -24.5 -114.5t-94.5 -35.5q-55 0 -126.5 18t-121.5 18q-10 0 -24.5 -5t-31.5 -13t-23 -10q-2 11 -2 33q0 60 34 118t82.5 107l96.5 100t82 118t34 140
q0 35 -19 58.5t-42 23.5q-47 0 -64 -20t-17 -61q0 -21 9.5 -42t28.5 -26q-38 -34 -76 -34q-32 0 -52 24t-20 66q0 59 51 103t155 44q190 0 190 -161q0 -63 -28.5 -119t-73.5 -100t-92 -81.5t-93.5 -79t-68.5 -76.5h5z" />
    <glyph glyph-name="three" unicode="3" horiz-adv-x="514" 
d="M205 257q-88 -7 -88 -108q0 -89 76 -89q62 0 100.5 50.5t38.5 118.5q0 61 -33.5 113.5t-99.5 75.5q79 22 125 79.5t46 115.5q0 36 -19.5 59t-56.5 23q-36 0 -57.5 -21.5t-21.5 -56.5q0 -24 9.5 -45t28.5 -26q-37 -34 -76 -34q-31 0 -51.5 23t-20.5 62q0 67 59.5 109.5
t147.5 42.5t137 -42t49 -104q0 -52 -35.5 -102.5t-101.5 -83.5q63 -21 94.5 -65t31.5 -100q0 -97 -80 -177t-202 -80q-22 0 -43.5 2.5t-51 13t-51.5 28t-37.5 50t-15.5 76.5q0 64 31.5 103.5t89.5 39.5q67 0 78 -51z" />
    <glyph glyph-name="four" unicode="4" horiz-adv-x="476" 
d="M252 275h-244q12 36 51.5 117t67 157t27.5 141q0 32 -7 60q46 0 78.5 -25t32.5 -70q0 -57 -23 -108t-66 -111t-57 -87h156l81 381l148 20l-86 -401h64l-20 -74h-60l-58 -275h-144z" />
    <glyph glyph-name="five" unicode="5" horiz-adv-x="517" 
d="M500 749q2 -22 2 -33q0 -52 -27.5 -84t-87.5 -32q-31 0 -95.5 12t-71.5 13l-40 -181q65 31 125 31q86 0 131 -59t45 -148q0 -114 -73.5 -193.5t-216.5 -79.5q-176 0 -176 144q0 72 39 107t91 35q61 0 71 -51q-41 -5 -65.5 -29t-24.5 -67q0 -39 24 -55.5t58 -16.5
q58 0 92.5 56.5t34.5 127.5t-29.5 108t-80.5 37q-60 0 -149 -56l82 399q149 -17 180 -17q81 0 162 32z" />
    <glyph glyph-name="six" unicode="6" horiz-adv-x="497" 
d="M225 305q-20 29 -20 58q0 43 41.5 71.5t99.5 28.5q66 0 100.5 -49.5t34.5 -115.5q0 -128 -80.5 -215.5t-189.5 -87.5q-58 0 -97.5 15.5t-60 44.5t-29 62t-8.5 76q0 24 1 37q16 237 106.5 378.5t250.5 141.5q53 0 84 -25t31 -58q0 -27 -23 -46t-66 -21q16 15 16 36
t-14.5 37.5t-35.5 16.5q-8 0 -17 -2t-27.5 -11.5t-35.5 -25.5t-37.5 -48.5t-37.5 -76.5t-32.5 -113.5t-24.5 -154.5q-5 -50 -5 -76q0 -68 19.5 -88.5t60.5 -20.5q49 0 93 66t44 145q0 97 -53 97q-51 0 -88 -76z" />
    <glyph glyph-name="seven" unicode="7" horiz-adv-x="464" 
d="M512 750l-170 -263t-131 -222q-32 -73 -32 -129t49 -97q-15 -39 -92 -39q-50 0 -76.5 27t-26.5 98q0 47 18 100.5t43 99.5t72 109.5t83.5 107l98.5 115.5q-44 6 -85 6q-143 0 -207 -71q-8 34 -8 58q0 50 32 75t104 25h328z" />
    <glyph glyph-name="eight" unicode="8" horiz-adv-x="499" 
d="M208 67q49 0 82 50.5t33 117.5q0 94 -63 148q-59 -39 -91 -101t-32 -119q0 -43 18.5 -69.5t52.5 -26.5zM203 -5q-98 0 -154.5 59.5t-56.5 141.5q0 73 46.5 135t133.5 86q-85 49 -85 136q0 76 64 136t159 60q90 0 139.5 -41.5t49.5 -103.5q0 -53 -36.5 -103.5
t-103.5 -83.5q61 -19 91 -60.5t30 -95.5q0 -97 -81 -181.5t-196 -84.5zM271 451q48 31 74.5 82.5t26.5 97.5q0 31 -13 50.5t-36 19.5q-47 0 -76 -39t-29 -92q0 -75 53 -119z" />
    <glyph glyph-name="nine" unicode="9" horiz-adv-x="489" 
d="M288 424q21 -25 21 -50q0 -38 -39.5 -65t-94.5 -27q-69 0 -105 53t-36 122q0 124 75 208.5t184 84.5q193 0 193 -235q0 -151 -40.5 -268t-118 -184.5t-180.5 -67.5q-54 0 -86 29t-32 66q0 74 86 74q-14 -14 -14 -34q0 -22 15.5 -39t37.5 -17q10 0 19 1t29 9.5t36.5 23
t37 45.5t36.5 73t29.5 109.5t19.5 151.5q2 38 2 52q0 86 -21.5 115.5t-66.5 29.5q-48 0 -87.5 -69t-39.5 -148q0 -41 12.5 -72t43.5 -31q61 0 84 60z" />
    <glyph glyph-name="colon" unicode=":" horiz-adv-x="267" 
d="M41 135q0 33 23 56.5t56 23.5t56.5 -23.5t23.5 -56.5t-23.5 -56t-56.5 -23t-56 23t-23 56zM91 375q0 33 23 56.5t56 23.5t56.5 -23.5t23.5 -56.5t-23.5 -56t-56.5 -23t-56 23t-23 56z" />
    <glyph glyph-name="semicolon" unicode=";" horiz-adv-x="276" 
d="M94 331q0 33 23 56.5t56 23.5t56.5 -23.5t23.5 -56.5t-23.5 -56t-56.5 -23t-56 23t-23 56zM46 91q0 33 23 56.5t56 23.5q32 0 50 -21t18 -55q0 -47 -35.5 -105.5t-94.5 -99.5q-9 6 -9 17q0 18 26 45t26 46q0 11 -13 20q-47 31 -47 73z" />
    <glyph glyph-name="less" unicode="&#x3c;" horiz-adv-x="359" 
d="M336 429l-10 -55l-241 -120l194 -96l-12 -57l-247 137l9 41z" />
    <glyph glyph-name="equal" unicode="=" horiz-adv-x="515" 
d="M468 428l-23 -112h-369l24 112h368zM424 213l-23 -112h-369l24 112h368z" />
    <glyph glyph-name="greater" unicode="&#x3e;" horiz-adv-x="344" 
d="M75 374l9 55l246 -150l-11 -54l-304 -124l14 57l240 96z" />
    <glyph glyph-name="question" unicode="?" horiz-adv-x="441" 
d="M425 579q0 -54 -20 -95t-51 -68.5t-63 -51.5t-62.5 -58t-43.5 -74h-66q0 39 18.5 75t45.5 64.5l54 58t45.5 67.5t18.5 80q0 35 -15.5 52t-39.5 17q-30 0 -55 -23.5t-25 -59.5q0 -21 9.5 -41t28.5 -25q-26 -42 -73 -42q-31 0 -53.5 22t-22.5 62q0 60 53.5 110.5
t156.5 50.5q94 0 127 -31.5t33 -89.5zM207 80q0 -33 -23 -56.5t-56 -23.5t-56.5 23.5t-23.5 56.5t23.5 56t56.5 23t56 -23t23 -56z" />
    <glyph glyph-name="at" unicode="@" horiz-adv-x="562" 
d="M195 -38q-100 0 -151.5 46t-51.5 156q0 163 100.5 278t240.5 115q27 0 51 -5.5t50 -20.5t41.5 -48.5t15.5 -82.5q0 -98 -53 -181t-117 -83q-31 0 -44 23q-28 -39 -59 -39q-64 0 -64 69q0 38 14.5 93t46.5 102.5t71 47.5q24 0 38 -18l4 16l55 -6l-45 -192q-4 -16 -4 -23
q0 -19 13 -19q28 0 52.5 85.5t24.5 138.5q0 79 -88 79q-70 0 -125 -49.5t-82 -122.5t-27 -151q0 -63 25.5 -90.5t96.5 -27.5q100 0 150 66q23 -10 23 -45q0 -48 -55 -79.5t-147 -31.5zM273 216l43 166q-7 8 -18 8q-20 0 -36.5 -21.5t-25 -52.5t-13 -58.5t-4.5 -45.5
q0 -31 18 -31q12 0 33 14q0 11 3 21z" />
    <glyph glyph-name="A" unicode="A" horiz-adv-x="668" 
d="M535 0h-144l77 363q-66 30 -134 36q-57 -123 -93.5 -251.5t-36.5 -205.5q0 -35 14 -56q-22 0 -35.5 1t-34.5 6.5t-33 16t-21.5 31.5t-9.5 51q0 67 40.5 179.5t106.5 227.5q-100 -6 -117 -52q4 0 8.5 -10.5t4.5 -20.5q0 -18 -16 -28.5t-40 -10.5q-27 0 -44.5 15t-17.5 43
q0 52 58 87.5t146 35.5q21 0 52 -3q82 130 173.5 212.5t174.5 82.5q45 0 79 -14zM477 407l58 272q-84 -45 -180 -237q72 -14 122 -35z" />
    <glyph glyph-name="B" unicode="B" horiz-adv-x="635" 
d="M230 636l148 20l-47 -222h6q58 0 101 51.5t43 110.5q0 47 -32.5 77.5t-99.5 30.5q-98 0 -174 -64t-76 -179q0 -23 3 -37.5t7 -21.5t4 -9q-107 0 -107 92q0 103 110.5 184t252.5 81q104 0 158.5 -46t54.5 -113q0 -46 -26.5 -89t-73.5 -70q60 -12 89 -56t29 -105
q0 -40 -11.5 -86t-35 -93t-68.5 -78t-104 -31q-99 0 -99 74q0 25 13 58q35 -36 67 -36q34 0 57.5 30t32.5 69t9 81q0 127 -95 127q-19 0 -46 -3l-82 -383h-144z" />
    <glyph glyph-name="C" unicode="C" horiz-adv-x="497" 
d="M500 180l23 -10q-25 -63 -77.5 -107t-105 -61.5t-102.5 -17.5q-113 0 -166 57t-53 189q0 58 10.5 123.5t37 137.5t65 128.5t100 93.5t136.5 37q76 0 121.5 -32.5t45.5 -101.5q0 -92 -70 -92q-35 0 -57 26q18 9 32 36.5t14 55.5q0 27 -14.5 44t-46.5 17q-53 0 -102 -74.5
t-77.5 -182.5t-28.5 -210q0 -76 26 -116t94 -40q58 0 109 26.5t86 73.5z" />
    <glyph glyph-name="D" unicode="D" horiz-adv-x="663" 
d="M230 636l148 20l-120 -561q27 -20 57 -20q57 0 102 68.5t67.5 168t22.5 203.5q0 189 -146 189q-114 0 -188 -65.5t-74 -177.5q0 -23 3 -37.5t7 -21.5t4 -9q-107 0 -107 93q0 104 110.5 184t261.5 80q70 0 123 -23t83.5 -64t45.5 -91t15 -110q0 -114 -38 -224
t-102.5 -180.5t-136.5 -70.5q-60 0 -122 53l-8 -40h-144z" />
    <glyph glyph-name="E" unicode="E" horiz-adv-x="459" 
d="M461 180l23 -10q-38 -86 -119.5 -137t-173.5 -51q-91 0 -137.5 50t-46.5 126q0 84 51.5 161.5t133.5 97.5q-61 44 -61 120q0 81 63.5 148t155.5 67q62 0 102.5 -33t40.5 -92q0 -44 -22 -74t-52 -30q-27 0 -47 27q18 6 31 33t13 54q0 29 -16 42.5t-39 13.5
q-43 0 -72.5 -43t-29.5 -98q0 -47 25 -84t76 -50q-76 -17 -127.5 -91t-51.5 -148q0 -45 23.5 -73t71.5 -28q50 0 105 27.5t80 74.5z" />
    <glyph glyph-name="F" unicode="F" horiz-adv-x="459" 
d="M329 450h146l-16 -74h-146l-81 -376h-144l144 668q-63 -2 -96.5 -48t-33.5 -159q0 -23 3 -37.5t7 -21.5t4 -9q-54 0 -80.5 22.5t-26.5 74.5t19 97t58 82.5t107 59t157 21.5q17 0 74.5 -6t91.5 -6q53 0 90 12q-2 -5 -7.5 -26t-10 -30.5t-14 -25t-25.5 -24.5t-38 -14
q-53 0 -140 19z" />
    <glyph glyph-name="G" unicode="G" horiz-adv-x="578" 
d="M417 419l129 -1l-82 -376q-27 -125 -83.5 -187t-172.5 -62q-67 0 -103 40.5t-36 97.5q0 55 33 96t89 41q20 0 33 -1.5t30 -7.5t26 -20.5t9 -37.5q0 -18 -6 -40q-31 26 -60 26q-33 0 -51.5 -23t-18.5 -53q0 -28 16.5 -48t46.5 -20q37 0 60.5 25.5t39.5 97.5l40 179
q-67 -36 -122 -36q-114 0 -164.5 70.5t-50.5 185.5q0 98 41 184.5t123.5 143.5t189.5 57q78 0 132 -33t54 -101q0 -92 -70 -92q-47 0 -69 26q17 5 30.5 33t13.5 49q0 13 -3 26.5t-20 29t-46 15.5q-53 0 -105.5 -53t-84.5 -134t-32 -159q0 -72 28.5 -118.5t87.5 -46.5
q57 0 85 37z" />
    <glyph glyph-name="H" unicode="H" horiz-adv-x="665" 
d="M403 748l-64 -298h147l64 298h144l-159 -748h-144l80 376h-147l-80 -376h-144l145 680q-67 -28 -103.5 -84t-36.5 -135q0 -23 3 -37.5t7 -21.5t4 -9q-54 0 -80.5 22.5t-26.5 74.5q0 98 112 179t239 81q14 0 40 -2z" />
    <glyph glyph-name="I" unicode="I" horiz-adv-x="375" 
d="M397 748l-159 -748h-144l145 679q-66 -28 -103 -83.5t-37 -134.5q0 -23 3 -37.5t7 -21.5t4 -9q-54 0 -80.5 22.5t-26.5 74.5q0 98 112 179t239 81q14 0 40 -2z" />
    <glyph glyph-name="J" unicode="J" horiz-adv-x="536" 
d="M538 750h40l-150 -710q-26 -123 -86 -185t-177 -62q-70 0 -109 38.5t-39 102.5q0 54 33 94t89 40q20 0 33 -1.5t30 -7.5t26 -20.5t9 -37.5q0 -18 -6 -40q-31 26 -60 26q-33 0 -51.5 -22t-18.5 -52q0 -35 21 -52.5t47 -17.5q36 0 57.5 25t37.5 98l157 714
q-67 -28 -104 -84t-37 -135q0 -23 3 -37.5t7 -21.5t4 -9q-54 0 -80.5 22.5t-26.5 74.5q0 98 112 179t239 81z" />
    <glyph glyph-name="K" unicode="K" horiz-adv-x="601" 
d="M397 748l-65 -306l85 114.5l99 132t43 56.5h105l-278 -320q7 0 18.5 0.5t16.5 0.5q124 0 124 -107q0 -43 -24.5 -133.5t-24.5 -119.5q0 -51 39 -66q-59 -17 -99 -17q-78 0 -78 67q0 32 26.5 128t26.5 135q0 68 -60 68q-9 0 -33 -4l-80 -377h-144l145 680
q-67 -28 -103.5 -84t-36.5 -135q0 -23 3 -37.5t7 -21.5t4 -9q-54 0 -80.5 22.5t-26.5 74.5q0 98 112 179t239 81q14 0 40 -2z" />
    <glyph glyph-name="L" unicode="L" horiz-adv-x="379" 
d="M397 738l-154 -718q40 -9 100 -42t120.5 -60t115.5 -27q45 0 84 16q-8 -72 -36 -114.5t-68 -42.5q-39 0 -83.5 23.5t-85.5 57l-84 66.5t-93.5 56.5t-99.5 23.5q-15 0 -23 -1l149 693q-66 -28 -103 -83.5t-37 -134.5q0 -23 3 -37.5t7 -21.5t4 -9q-54 0 -80.5 22.5
t-26.5 74.5q0 98 112 179t239 81q14 0 40 -2z" />
    <glyph glyph-name="M" unicode="M" horiz-adv-x="787" 
d="M699 0h-144l64 449l-188 -449h-137l20 451l-167 -451h-80l254 687q-75 -25 -117 -83t-42 -142q0 -23 3 -38t7 -22t4 -9q-107 0 -107 91q0 96 102 181t216 85q39 0 76 -14l-23 -527l220 527h144z" />
    <glyph glyph-name="N" unicode="N" horiz-adv-x="668" 
d="M570 748h144l-159 -748h-121l-85 523l-111 -523h-144l144 679q-66 -27 -102.5 -83.5t-36.5 -134.5q0 -23 3 -37.5t7 -21.5t4 -9q-54 0 -80.5 22.5t-26.5 74.5q0 93 81 176.5t202 83.5q64 0 93 -14l79 -530z" />
    <glyph glyph-name="O" unicode="O" horiz-adv-x="665" 
d="M431 656q-66 -40 -120.5 -192t-54.5 -273q0 -116 58 -116q49 0 98 71t80 177.5t31 205.5q0 93 -26.5 134t-101.5 41q-119 0 -203.5 -71t-84.5 -186q0 -23 5 -39l5 -15q-101 0 -101 84q0 105 122.5 189t280.5 84q237 0 237 -256q0 -61 -13 -126.5t-42 -133t-70.5 -120.5
t-105 -86.5t-138.5 -33.5q-179 0 -179 201q0 50 10.5 111t33.5 124.5t54 115.5t76 85t97 33q28 0 52 -8z" />
    <glyph glyph-name="P" unicode="P" horiz-adv-x="573" 
d="M230 636l148 20l-71 -334q72 6 123.5 83.5t51.5 162.5q0 60 -31 98t-93 38q-122 0 -190.5 -64.5t-68.5 -178.5q0 -23 3 -37.5t7 -21.5t4 -9q-54 0 -80.5 22.5t-26.5 74.5q0 98 112 179t239 81q116 0 176 -56.5t60 -140.5q0 -102 -80.5 -185t-208.5 -83h-5l-61 -285h-144z
" />
    <glyph glyph-name="Q" unicode="Q" horiz-adv-x="665" 
d="M431 656q-66 -40 -120.5 -192t-54.5 -273q0 -30 2 -43q36 9 62 9q45 0 80 -27q52 66 87.5 179.5t35.5 219.5q0 93 -26.5 134t-101.5 41q-119 0 -203.5 -71t-84.5 -186q0 -23 5 -39l5 -15q-101 0 -101 84q0 105 122.5 189t280.5 84q237 0 237 -256q0 -119 -49 -246
t-142 -196q18 -26 32 -41t38.5 -27.5t54.5 -12.5q6 0 22 2q-18 -49 -43 -67.5t-60 -18.5q-31 0 -54 9.5t-37.5 29.5t-22 37t-15.5 45q-44 -14 -93 -14q-179 0 -179 201q0 50 10.5 111t33.5 124.5t54 115.5t76 85t97 33q28 0 52 -8zM314 75q22 0 38 11q-20 34 -57 34
q-14 0 -29 -4q14 -41 48 -41z" />
    <glyph glyph-name="R" unicode="R" horiz-adv-x="601" 
d="M230 636l148 20l-49 -231h8q59 0 100.5 56t41.5 118q0 46 -27.5 75.5t-82.5 29.5q-123 0 -196.5 -65t-73.5 -178q0 -23 3 -37.5t7 -21.5t4 -9q-54 0 -80.5 22.5t-26.5 74.5q0 98 112 179t239 81q111 0 169 -46.5t58 -113.5q0 -47 -29 -94t-79 -77q69 -20 69 -100
q0 -43 -24.5 -133.5t-24.5 -119.5q0 -51 39 -66q-59 -17 -99 -17q-78 0 -78 67q0 32 26.5 128t26.5 135q0 68 -60 68q-7 0 -33 -4l-80 -377h-144z" />
    <glyph glyph-name="S" unicode="S" horiz-adv-x="570" 
d="M544 630q0 -44 -22.5 -72.5t-59.5 -28.5q-28 0 -46 21q20 12 32.5 36.5t12.5 49.5q0 29 -18 48t-56 19q-42 0 -67 -23.5t-25 -67.5q0 -34 16.5 -64.5t41.5 -52l54.5 -49t54.5 -54.5t41.5 -69.5t16.5 -93.5q0 -119 -82 -184.5t-199 -65.5q-93 0 -152.5 43t-59.5 129
q0 76 45 120t102 44q33 0 59.5 -15.5t28.5 -50.5q-47 0 -82 -23t-35 -71q0 -40 25 -68t71 -28q51 0 83.5 35.5t32.5 97.5q0 47 -21 90t-51.5 76l-60.5 64.5t-51 70t-21 78.5q0 77 66.5 128t164.5 51q18 0 35 -1.5t41.5 -9t42 -19.5t30 -35.5t12.5 -54.5z" />
    <glyph glyph-name="T" unicode="T" horiz-adv-x="481" 
d="M594 620q-56 0 -155 22l-138 -642h-144l142 662h-12q-89 0 -138.5 -44.5t-49.5 -157.5q0 -23 3 -37.5t7 -21.5t4 -9q-54 0 -80.5 22.5t-26.5 74.5t19 97t58 82.5t107 59t157 21.5q63 0 136.5 -11.5t119.5 -11.5q64 0 116 21q-3 -127 -125 -127z" />
    <glyph glyph-name="U" unicode="U" horiz-adv-x="716" 
d="M620 748h141l-66 -312q-21 -100 -39.5 -164t-45.5 -122t-61.5 -89.5t-84 -49.5t-116.5 -18q-104 0 -148.5 40t-44.5 119q0 29 3.5 60.5t14.5 81.5l16 73.5t24 98.5l24 94l33 132q-83 -22 -130 -81.5t-47 -148.5q0 -23 3 -38t7 -22t4 -9q-107 0 -107 92q0 69 53.5 130.5
t141 98t183.5 36.5q22 0 48 -5l-36.5 -134l-31 -115l-24 -90t-20 -78t-13 -57.5t-8.5 -51t-2 -38.5q0 -90 69 -90q29 0 46.5 5t37.5 23t35.5 56t34 102t39.5 162z" />
    <glyph glyph-name="V" unicode="V" horiz-adv-x="615" 
d="M397 748l9 -615l210 612h70l-278 -745h-152v683q-157 -49 -157 -222q0 -23 3 -37.5t7 -21.5t4 -9q-54 0 -80.5 22.5t-26.5 74.5q0 98 112 179t239 81q14 0 40 -2z" />
    <glyph glyph-name="W" unicode="W" horiz-adv-x="962" 
d="M397 748l9 -615l210 612h131v-612l215 612h70l-278 -745h-148v509l-198 -509h-147v683q-162 -51 -162 -222q0 -23 3 -37.5t7 -21.5t4 -9q-54 0 -80.5 22.5t-26.5 74.5q0 98 112 179t239 81q14 0 40 -2z" />
    <glyph glyph-name="X" unicode="X" horiz-adv-x="620" 
d="M552 0h-159l-53 250l-145 -250h-61l188 332l-74 351q-71 -26 -110 -83t-39 -139q0 -23 3 -37.5t7 -21.5t4 -9q-54 0 -80.5 22.5t-26.5 74.5q0 98 112 179t239 81q14 0 40 -2l43 -208l116 205h70l-168 -291z" />
    <glyph glyph-name="Y" unicode="Y" horiz-adv-x="620" 
d="M438 0h-160l66 308l-96 375q-71 -26 -110 -83t-39 -139q0 -23 3 -37.5t7 -21.5t4 -9q-54 0 -80.5 22.5t-26.5 74.5q0 98 112 179t239 81q14 0 40 -2l87 -358l148 355h66l-194 -437z" />
    <glyph glyph-name="Z" unicode="Z" horiz-adv-x="542" 
d="M407 85q-18 0 -18 31q0 29 18.5 43.5t41.5 14.5q26 0 38.5 -17t12.5 -41q0 -42 -36 -79t-92 -37h-361l350 696q-9 0 -40 1t-50 1q-92 0 -92 -22q17 0 17 -32q0 -30 -18.5 -43.5t-40.5 -13.5q-26 0 -38.5 17.5t-12.5 41.5q0 41 33 72.5t90 31.5h343l-345 -685
q12 0 45.5 -1t50.5 -1q88 0 104 22z" />
    <glyph glyph-name="bracketleft" unicode="[" horiz-adv-x="400" 
d="M182 -188l-13 -62h-193l212 1000h193l-13 -62h-121l-186 -876h121z" />
    <glyph glyph-name="backslash" unicode="\" horiz-adv-x="362" 
d="M254 -250l-212 1000h72l212 -1000h-72z" />
    <glyph glyph-name="bracketright" unicode="]" horiz-adv-x="400" 
d="M175 688l13 62h193l-212 -1000h-193l13 62h121l186 876h-121z" />
    <glyph glyph-name="asciicircum" unicode="^" horiz-adv-x="421" 
d="M343 561h-32l-60 80l-157 -80h-44l212 189h21z" />
    <glyph glyph-name="underscore" unicode="_" horiz-adv-x="444" 
d="M404 79l-17 -79h-351l18 79h350z" />
    <glyph glyph-name="grave" unicode="`" horiz-adv-x="201" 
d="M83 561l-59 189h105l29 -189h-75z" />
    <glyph glyph-name="a" unicode="a" horiz-adv-x="526" 
d="M336 500h144l-72 -340q-4 -17 -4 -32q0 -43 41 -43q53 0 81 94h42q-65 -185 -201 -185q-42 0 -68 23.5t-30 68.5q-62 -92 -149 -92q-57 0 -95 39t-38 122q0 53 16.5 112t46.5 113t81 89.5t113 35.5q81 0 81 -51v-7zM275 443q-40 0 -73.5 -49.5t-50 -112t-16.5 -112.5
q0 -27 5 -44.5t14 -24t15 -8t16 -1.5q24 0 49.5 23.5t33.5 64.5l48 226q0 13 -10 25.5t-31 12.5z" />
    <glyph glyph-name="b" unicode="b" horiz-adv-x="444" 
d="M0 179l107 501l148 20l-48 -225q46 28 82 28q118 0 118 -171q0 -38 -8 -80t-28 -89t-49.5 -84t-78.5 -61t-110 -24q-68 0 -104 33.5t-36 94.5q0 28 7 57zM306 336q0 40 -14 68t-39 28q-44 0 -59 -18l-55 -254q-3 -12 -3 -23q0 -46 53 -46q46 0 81.5 80.5t35.5 164.5z" />
    <glyph glyph-name="c" unicode="c" horiz-adv-x="384" 
d="M279 356q12 33 12 59q0 41 -28 41q-30 0 -60.5 -50.5t-49 -119t-18.5 -124.5q0 -49 17 -66.5t55 -17.5q54 0 93.5 25.5t83.5 75.5h34q-115 -185 -275 -185q-156 0 -156 159q0 49 14.5 105.5t43.5 115t84 97t127 38.5q111 0 111 -92q0 -35 -15 -54t-38 -19q-17 0 -35 12z
" />
    <glyph glyph-name="d" unicode="d" horiz-adv-x="525" 
d="M374 680l148 20l-115 -540q-4 -17 -4 -32q0 -20 9.5 -28.5t31.5 -8.5q55 0 81 88h42q-63 -179 -201 -179q-41 0 -66.5 22t-31.5 64q-60 -92 -148 -92q-57 0 -95 39t-38 122q0 53 16.5 112t46.5 113t81 89.5t113 35.5q81 0 81 -51v-4zM267 174v5l49 229q-6 35 -41 35
q-40 0 -73.5 -49.5t-50 -112t-16.5 -112.5q0 -27 5 -44.5t14 -24t15 -8t16 -1.5q23 0 48 22.5t34 60.5z" />
    <glyph glyph-name="e" unicode="e" horiz-adv-x="384" 
d="M135 162q0 -49 17 -66.5t55 -17.5q54 0 93.5 25.5t83.5 75.5h34q-115 -185 -275 -185q-156 0 -156 159q0 38 8 81.5t28.5 93t50 89.5t77.5 66t106 26q110 0 110 -96q0 -84 -69 -145t-161 -66q-2 -28 -2 -40zM290 415q0 41 -25 41q-36 0 -70 -62.5t-50 -143.5
q58 4 101.5 53.5t43.5 111.5z" />
    <glyph glyph-name="f" unicode="f" horiz-adv-x="267" 
d="M382 600h-47q2 20 2 27q0 16 -11 25t-27 9q-21 0 -41 -18.5t-29 -63.5l-17 -79h73l-7 -40h-74l-115 -540q-36 -170 -179 -170q-48 0 -83 30.5t-35 77.5q0 33 12.5 57.5t39 41.5t52 27.5t68.5 23.5l121 571q36 170 182 170q48 0 83 -30.5t35 -77.5q0 -23 -3 -41z
M-153 -128q0 -11 12 -22t28 -11q40 0 57 78l13 58q-53 -18 -81.5 -41.5t-28.5 -61.5z" />
    <glyph glyph-name="g" unicode="g" horiz-adv-x="507" 
d="M336 500h144l-99 -464q48 17 77 48.5t49 94.5h42q-14 -47 -34.5 -82t-46 -55.5t-47.5 -31.5t-49 -18l-15 -72q-36 -170 -180 -170q-48 0 -80 25t-32 72q0 99 163 149l12 53q-51 -55 -120 -55q-57 0 -95 39t-38 122q0 53 16.5 112t46.5 113t81 89.5t113 35.5q81 0 81 -51
v-6zM275 443q-40 0 -73.5 -49.5t-50 -112t-16.5 -112.5q0 -27 5 -44.5t14 -24t15 -8t16 -1.5q22 0 46 21t34 57l51 237q-1 13 -10.5 25t-30.5 12zM120 -139q0 -12 9.5 -22.5t24.5 -10.5q17 0 33 23.5t25 65.5l6 29q-98 -37 -98 -85z" />
    <glyph glyph-name="h" unicode="h" 
d="M288 362q0 51 -37 51q-26 0 -48 -30.5t-28 -57.5l-69 -325h-144l145 680l148 20l-54 -252q49 56 117 56q51 0 81 -28t30 -85q0 -44 -24 -138.5t-24 -119.5q0 -42 40 -42q30 0 47 21t37 67h42q-63 -185 -186 -185q-61 0 -89.5 32.5t-28.5 80.5q0 35 22.5 129t22.5 126z
" />
    <glyph glyph-name="i" unicode="i" horiz-adv-x="267" 
d="M88 633q0 33 23 56.5t56 23.5t56.5 -23.5t23.5 -56.5t-23.5 -56t-56.5 -23t-56 23t-23 56zM68 500h144l-72 -340q-4 -17 -4 -32q0 -20 9.5 -28.5t31.5 -8.5q29 0 54 25t36 63h42q-65 -185 -210 -185q-48 0 -77.5 30t-29.5 90q0 27 8 65z" />
    <glyph glyph-name="j" unicode="j" horiz-adv-x="240" 
d="M69 500h144l-99 -464q48 17 77 48.5t49 94.5h42q-14 -47 -34.5 -82t-46 -55.5t-47.5 -31.5t-49 -18l-15 -72q-36 -170 -180 -170q-48 0 -80 25t-32 72q0 99 164 149zM80 634q0 33 23 56.5t56 23.5t56.5 -23.5t23.5 -56.5t-23.5 -56t-56.5 -23t-56 23t-23 56zM-147 -139
q0 -12 9.5 -22.5t24.5 -10.5q17 0 33 23.5t25 65.5l6 29q-98 -37 -98 -85z" />
    <glyph glyph-name="k" unicode="k" horiz-adv-x="518" 
d="M373 500h99l-200 -139q22 4 33 4q53 0 81.5 -33t28.5 -84q0 -21 -4 -38l-11 -50q-5 -25 -5 -32q0 -37 39 -37q30 0 47 21t37 67h42q-63 -185 -184 -185q-61 0 -93.5 29.5t-32.5 84.5q0 24 6 52l8 39q4 17 4 37q0 48 -36 48q-29 0 -74 -37l-52 -247h-144l145 680l148 20
l-75 -352z" />
    <glyph glyph-name="l" unicode="l" horiz-adv-x="267" 
d="M107 680l148 20l-115 -540q-4 -17 -4 -32q0 -20 9.5 -28.5t31.5 -8.5q29 0 54 25t36 63h42q-65 -185 -210 -185q-48 0 -77.5 30t-29.5 90q0 27 8 65z" />
    <glyph glyph-name="m" unicode="m" horiz-adv-x="752" 
d="M535 362q0 51 -36 51q-50 0 -78 -92l-68 -321h-144l73 345q3 12 3 25q0 44 -30 44q-53 0 -81 -93l-68 -321h-144l106 500h144l-11 -52q50 57 122 57q88 0 103 -86q55 85 139 85q51 0 81 -28t30 -85q0 -44 -24 -138.5t-24 -119.5q0 -42 40 -42q30 0 47 21t37 67h42
q-63 -185 -186 -185q-61 0 -89.5 32.5t-28.5 80.5q0 35 22.5 129t22.5 126z" />
    <glyph glyph-name="n" unicode="n" 
d="M288 362q0 51 -36 51q-50 0 -78 -92l-68 -321h-144l106 500h144l-11 -52q49 56 117 56q51 0 81 -28t30 -85q0 -44 -24 -138.5t-24 -119.5q0 -42 40 -42q30 0 47 21t37 67h42q-63 -185 -186 -185q-61 0 -89.5 32.5t-28.5 80.5q0 35 22.5 129t22.5 126z" />
    <glyph glyph-name="o" unicode="o" horiz-adv-x="439" 
d="M260 509q128 0 128 -160q4 -2 11 -2q68 0 154 60l9 -27q-59 -64 -177 -83q-12 -137 -78.5 -219t-160.5 -82q-74 0 -117 38t-43 120q0 48 14.5 104.5t44.5 115t86 97t129 38.5zM186 86q37 0 70.5 60t45.5 148q-27 6 -27 42q0 40 31 54q-2 32 -10.5 45t-27.5 13
q-33 0 -65 -50t-50 -115t-18 -116q0 -48 11 -64.5t40 -16.5z" />
    <glyph glyph-name="p" unicode="p" horiz-adv-x="468" 
d="M76 537h144l-16 -75q50 43 117 43q122 0 122 -158q0 -44 -6.5 -89t-24.5 -93.5t-44.5 -85.5t-70.5 -61t-100 -24q-64 0 -85 36l-52 -244l-151 -36zM166 81q49 0 82.5 49.5t45.5 107t12 112.5q0 83 -50 83q-40 0 -69 -49l-59 -280q8 -23 38 -23z" />
    <glyph glyph-name="q" unicode="q" horiz-adv-x="486" 
d="M335 500h144l-152 -714l-151 -36l63 299q-51 -55 -119 -55q-57 0 -95 39t-38 122q0 53 16.5 112t46.5 113t81 89.5t113 35.5q81 0 81 -53zM275 443q-40 0 -73.5 -49.5t-50 -112t-16.5 -112.5q0 -27 5 -44.5t14 -24t15 -8t16 -1.5q21 0 44 19t34 52l53 247q-6 34 -41 34z
" />
    <glyph glyph-name="r" unicode="r" horiz-adv-x="376" 
d="M68 500h144l-13 -62q23 20 37 30.5t38 21t46 10.5q32 0 50.5 -22t18.5 -53q0 -29 -19 -51t-53 -22q-19 0 -28.5 10.5t-10.5 22.5t-5 22.5t-14 10.5q-32 0 -73 -38l-80 -380h-144z" />
    <glyph glyph-name="s" unicode="s" horiz-adv-x="382" 
d="M382 179h42q-62 -72 -153 -125q-57 -60 -157 -60q-71 0 -108.5 38.5t-37.5 89.5q0 33 15.5 57.5t37.5 35.5q67 118 123 296l148 20q5 -110 10.5 -189.5t8.5 -114t3 -60.5q0 -22 -4 -38q43 25 72 50zM92 179q0 -19 -12.5 -34t-31.5 -15q-20 0 -27 13q0 -36 14.5 -53
t46.5 -17q37 0 62 22t25 71q0 25 -7 91.5t-12 145.5q-24 -79 -81 -189q23 -11 23 -35z" />
    <glyph glyph-name="t" unicode="t" horiz-adv-x="267" 
d="M98 638l148 20l-34 -158h60l-8 -40h-60l-64 -300q-4 -17 -4 -32q0 -20 9.5 -28.5t31.5 -8.5q29 0 54 25t36 63h42q-65 -185 -210 -185q-48 0 -77.5 30t-29.5 90q0 27 8 65l60 281h-33l8 40h33z" />
    <glyph glyph-name="u" unicode="u" 
d="M315 500h144l-72 -340q-4 -17 -4 -32q0 -20 9.5 -28.5t31.5 -8.5q55 0 81 88h42q-65 -185 -201 -185q-43 0 -69 24.5t-30 70.5q-58 -95 -148 -95q-48 0 -77.5 30t-29.5 90q0 27 8 65l68 321h144l-72 -340q-3 -15 -3 -28q0 -41 30 -41q54 0 80 88z" />
    <glyph glyph-name="v" unicode="v" horiz-adv-x="414" 
d="M336 520q63 0 63 -87q0 -51 -9.5 -107.5t-32 -116t-54.5 -107t-81.5 -78t-107.5 -30.5t-90.5 30t-32.5 88q0 24 5 48l72 340h144l-72 -340q-5 -23 -5 -36q0 -33 34 -33q46 0 87.5 61.5t63.5 138t22 134.5q-4 -10 -32 -10q-17 0 -26.5 16t-9.5 35q0 24 16 39t46 15z" />
    <glyph glyph-name="w" unicode="w" horiz-adv-x="661" 
d="M68 500h144l-72 -340q-3 -12 -3 -25q0 -44 30 -44q54 0 80 88l68 321h144l-72 -340q-5 -23 -5 -36q0 -33 34 -33q46 0 87.5 61.5t63.5 138t22 134.5q-4 -10 -32 -10q-17 0 -26.5 16t-9.5 35q0 24 16 39t46 15q63 0 63 -87q0 -51 -9.5 -107.5t-32 -116t-54.5 -107
t-81.5 -78t-107.5 -30.5q-102 0 -120 84q-57 -84 -142 -84q-48 0 -77.5 30t-29.5 90q0 27 8 65z" />
    <glyph glyph-name="x" unicode="x" horiz-adv-x="522" 
d="M361 248l9 -70q6 -48 20.5 -67.5t41.5 -19.5q29 0 54 25t36 63h42q-16 -45 -37 -79t-41.5 -53.5t-44 -32t-43 -16.5t-38.5 -4q-93 0 -122 174l-138 -168h-72l202 228l-16 112q-7 49 -15.5 66t-22.5 17q-32 0 -70.5 -64t-63.5 -180h-42q13 61 32 114.5t47 103.5t68.5 79
t88.5 29q94 0 108 -119l9 -76q84 95 87 144q-12 -2 -17 -2q-47 0 -47 56q0 24 19.5 36.5t48.5 12.5q26 0 41 -28t15 -63q0 -44 -29.5 -87.5t-109.5 -130.5z" />
    <glyph glyph-name="y" unicode="y" horiz-adv-x="486" 
d="M315 500h144l-99 -464q48 17 77 48.5t49 94.5h42q-14 -47 -34.5 -82t-46 -55.5t-47.5 -31.5t-49 -18l-15 -72q-36 -170 -180 -170q-48 0 -80 25t-32 72q0 99 163 149l12 54q-50 -56 -120 -56q-48 0 -77.5 30t-29.5 90q0 27 8 65l68 321h144l-72 -340q-3 -12 -3 -25
q0 -44 30 -44q52 0 78 82zM99 -139q0 -12 9.5 -22.5t24.5 -10.5q17 0 33 23.5t25 65.5l6 29q-98 -37 -98 -85z" />
    <glyph glyph-name="z" unicode="z" horiz-adv-x="428" 
d="M306 91q-19 1 -19 21q0 15 15 29t41 14q22 0 33 -13.5t11 -34.5q0 -38 -34 -72.5t-88 -34.5h-265l255 446h-56q-55 0 -55 -16l6 -4q5 -4 5 -18q0 -26 -16 -39.5t-38 -13.5q-19 0 -32.5 11.5t-13.5 32.5q0 35 33.5 68t82.5 33h257l-245 -423q3 0 31.5 -3t44.5 -3
q43 0 47 20z" />
    <glyph glyph-name="braceleft" unicode="{" horiz-adv-x="352" 
d="M383 750l-9 -50q-36 0 -56 -4.5t-35 -21.5q-44 -49 -46 -138l6 -171q-3 -80 -40 -111q12 -14 12 -36q0 -43 -59.5 -167t-59.5 -175q0 -80 85 -80l-9 -45h-9q-51 0 -73.5 7t-40.5 35q-19 29 -19 67q0 51 53 158.5t64 156.5q3 12 3 22q0 31 -41 31q-13 0 -32 -3l12 57
q18 -3 31 -3q23 0 37.5 10t20.5 29t7.5 34t1.5 38q0 28 -3.5 81t-3.5 78q0 43 14 86.5t52.5 79t93.5 35.5h43z" />
    <glyph glyph-name="bar" unicode="|" horiz-adv-x="532" 
d="M312 751v-1001h-93v1001h93z" />
    <glyph glyph-name="braceright" unicode="}" horiz-adv-x="352" 
d="M30 -249l9 50q36 0 56 4.5t35 21.5q44 49 46 138l-6 171q3 80 40 111q-12 14 -12 36q0 43 59.5 167t59.5 175q0 80 -85 80l9 45h9q51 0 73.5 -7t40.5 -35q19 -28 19 -67q0 -51 -53 -158.5t-64 -156.5q-3 -12 -3 -22q0 -31 41 -31q12 0 32 3l-12 -57q-18 3 -31 3
q-23 0 -37.5 -10t-20.5 -29t-7.5 -34t-1.5 -38q0 -28 3.5 -81t3.5 -78q0 -43 -14 -86.5t-52.5 -79t-93.5 -35.5h-43z" />
    <glyph glyph-name="asciitilde" unicode="~" horiz-adv-x="431" 
d="M444 670l6 -1q-9 -37 -57.5 -68.5t-103.5 -31.5q-34 0 -88 18.5t-80 18.5q-38 0 -66 -26l-6 2q49 98 167 98q38 0 88 -16.5t77 -16.5q42 0 63 23z" />
    <glyph glyph-name="exclamdown" unicode="&#xa1;" horiz-adv-x="219" 
d="M69 221h85l-71 -469h-144zM59 372q0 33 23 56.5t56 23.5t56.5 -23.5t23.5 -56.5t-23.5 -56t-56.5 -23t-56 23t-23 56z" />
    <glyph glyph-name="cent" unicode="&#xa2;" horiz-adv-x="403" 
d="M127 -27l31 173q-55 8 -91 52.5t-36 117.5q0 106 55.5 186t152.5 93l22 123h58l-27 -122q90 -6 90 -68q0 -17 -5 -33h-57q5 18 5 28q0 34 -37 34h-5l-76 -343q5 -1 15 -1q25 0 50.5 11.5t40.5 22.5t41 34q-22 -130 -162 -136l-38 -172h-27zM136 319q0 -62 37 -90l55 305
q-40 -31 -66 -92.5t-26 -122.5z" />
    <glyph glyph-name="sterling" unicode="&#xa3;" horiz-adv-x="465" 
d="M420 423l6 -1q-9 -37 -57.5 -68.5t-103.5 -31.5h-16l-56 -231q16 2 49.5 3t54.5 3.5t56.5 17.5t73.5 43q-8 -72 -36 -115t-68 -43h-295l86 358q-2 0 -8 0.5t-9 0.5q-38 0 -66 -26l-6 2q33 67 105 89l72 295l150 31l-80 -331q59 -19 85 -19q42 0 63 23z" />
    <glyph glyph-name="currency" unicode="&#xa4;" horiz-adv-x="500" 
d="M68 492l38 36l56 -56q41 30 91 30q49 0 89 -29l56 56l36 -36l-55 -55q30 -41 30 -92q0 -50 -30 -91l55 -55l-36 -36l-55 55q-40 -29 -90 -29q-51 0 -92 30l-56 -56l-36 36l56 56q-29 40 -29 89q0 50 29 90zM253 446q-41 0 -70.5 -29.5t-29.5 -70.5t29.5 -70.5t70.5 -29.5
t70.5 29.5t29.5 70.5t-29.5 70.5t-70.5 29.5z" />
    <glyph glyph-name="yen" unicode="&#xa5;" horiz-adv-x="474" 
d="M314 307h131l-14 -50h-128l-14 -65h131l-14 -50h-128l-30 -142h-160l30 142h-99l14 50h96l14 65h-99l14 50h96l-112 443h164l88 -361l150 361h66z" />
    <glyph glyph-name="brokenbar" unicode="&#xa6;" horiz-adv-x="532" 
d="M312 222v-472h-93v472h93zM312 301h-93v450h93v-450z" />
    <glyph glyph-name="section" unicode="&#xa7;" horiz-adv-x="542" 
d="M525 655q0 -35 -18 -58t-48 -23q-22 0 -37 16q16 10 26 29.5t10 39.5q0 23 -14 38.5t-42 15.5q-40 0 -67 -32t-27 -75q0 -34 20.5 -62.5t49.5 -51l58 -46.5t49.5 -60.5t20.5 -82.5q0 -60 -31.5 -108t-84.5 -59q0 -89 -57.5 -139.5t-159.5 -50.5q-21 0 -40 2t-43 10.5
t-41 22t-29 38.5t-12 58q0 54 27.5 88.5t68.5 34.5q19 0 35 -9t24 -17.5t20 -23.5q-44 -4 -62.5 -21t-18.5 -55q0 -40 19.5 -59t62.5 -19q80 0 80 97q0 45 -18.5 81t-45 60.5l-53 47t-45 52t-18.5 64.5q0 47 28.5 83t75.5 54q-5 22 -5 42q0 83 64 128t148 45q19 0 37 -3
t41 -11.5t37.5 -29t14.5 -51.5zM403 246q0 40 -22.5 74t-51.5 55.5t-65 52t-55 58.5q-19 -10 -19 -35q0 -27 26 -57.5t59 -55.5t65.5 -66.5t43.5 -88.5q19 24 19 63z" />
    <glyph glyph-name="dieresis" unicode="&#xa8;" horiz-adv-x="392" 
d="M56 634q0 25 18 43t43 18t43 -18t18 -43t-18 -43t-43 -18t-43 17.5t-18 43.5zM236 634q0 25 18 43t43 18t43 -18t18 -43t-18 -43t-43 -18t-43 17.5t-18 43.5z" />
    <glyph glyph-name="copyright" unicode="&#xa9;" horiz-adv-x="587" 
d="M300 484q46 -2 80 -28.5t44 -66.5l-47 -18q-4 13 -7 20.5t-11 18.5t-22.5 16.5t-34.5 5.5q-40 0 -67.5 -23.5t-27.5 -67.5q0 -45 27.5 -76t67.5 -31q51 0 75 45l44 -29q-45 -68 -123 -68q-60 0 -103 45.5t-43 108.5t43.5 105.5t104.5 42.5zM293 76q-99 0 -170.5 74.5
t-71.5 180.5q0 107 71 181.5t171 74.5t171 -74t71 -181t-71 -181.5t-171 -74.5zM97 331q0 -89 58 -151t140 -62q81 0 139 62t58 151t-58 151t-139 62q-82 0 -140 -62t-58 -151z" />
    <glyph glyph-name="ordfeminine" unicode="&#xaa;" horiz-adv-x="345" 
d="M320 740l-42 -184l-3 -18q0 -20 21 -20q10 0 15 2q-17 -50 -60 -50q-48 0 -58 40q-35 -43 -79 -43q-38 0 -54.5 20t-16.5 48q0 82 36.5 143t115.5 61q20 0 39 -14l3 15h83zM191 538l37 161q-11 10 -29 10q-31 0 -54.5 -51t-23.5 -108q0 -38 34 -38q17 0 36 26z" />
    <glyph glyph-name="guillemotleft" unicode="&#xab;" horiz-adv-x="589" 
d="M336 429l-10 -55l-241 -120l194 -96l-12 -57l-247 137l9 41zM546 429l-10 -55l-241 -120l194 -96l-12 -57l-247 137l9 41z" />
    <glyph glyph-name="logicalnot" unicode="&#xac;" horiz-adv-x="444" 
d="M399 301l-51 -250h-113l35 171h-251l18 79h362z" />
    <glyph glyph-name="uni00AD" unicode="&#xad;" horiz-adv-x="290" 
d="M237 301l-17 -79h-201l18 79h200z" />
    <glyph glyph-name="registered" unicode="&#xae;" horiz-adv-x="553" 
d="M276 79q-99 0 -170.5 74.5t-71.5 180.5q0 107 71 181.5t171 74.5t171 -74t71 -181t-71 -181.5t-171 -74.5zM80 334q0 -89 58 -151t140 -62q81 0 139 62t58 151t-58 151t-139 62q-82 0 -140 -62t-58 -151zM176 192l1 291h94q54 0 87 -22t33 -62q0 -28 -16.5 -48.5
t-42.5 -28.5l65 -125l-47 -7l-62 125h-66v-123h-46zM222 442v-89h52q71 0 71 44q0 45 -73 45h-50z" />
    <glyph glyph-name="degree" unicode="&#xb0;" horiz-adv-x="314" 
d="M199 702q82 0 82 -113q0 -74 -41 -144.5t-107 -70.5q-55 0 -75.5 28t-20.5 86q0 91 44.5 152.5t117.5 61.5zM111 519q-2 -24 -2 -43q0 -65 27 -65q38 0 61.5 57t23.5 136q0 63 -25 63t-52.5 -40.5t-32.5 -107.5z" />
    <glyph glyph-name="plusminus" unicode="&#xb1;" horiz-adv-x="533" 
d="M375 543l-27 -122h127l-23 -112h-128l-27 -123h-113l27 123h-128l24 112h128l27 122h113zM416 147l-17 -79h-368l18 79h367z" />
    <glyph glyph-name="twosuperior" unicode="&#xb2;" horiz-adv-x="300" 
d="M75 416q18 0 55.5 -5t57.5 -5q9 0 17 1.5t12.5 2.5t12.5 6.5l9.5 6.5t11.5 10t12 11q0 -26 -0.5 -38t-4 -28t-11 -22.5t-20.5 -11.5t-33 -5q-32 0 -73 10t-70 10q-6 0 -14.5 -3t-18.5 -7.5t-13 -5.5q-2 12 -2 18q0 27 14 54t35.5 48l46 46l46 47.5t35.5 54t14 65.5
q0 19 -11 31.5t-24 12.5q-28 0 -37.5 -10.5t-9.5 -32.5q0 -31 22 -37q-22 -19 -45 -19q-18 0 -29.5 13t-11.5 36q0 32 29.5 55.5t90.5 23.5q110 0 110 -86q0 -34 -16.5 -64.5t-43 -54t-53.5 -44l-54 -43t-40 -41.5h4z" />
    <glyph glyph-name="threesuperior" unicode="&#xb3;" horiz-adv-x="316" 
d="M129 484q-51 -4 -51 -64q0 -25 13 -34.5t38 -9.5q31 0 51 28.5t20 65.5q0 33 -18.5 61t-56.5 40q47 11 73 43t26 64q0 19 -9.5 30.5t-27.5 11.5q-52 0 -52 -43q0 -31 22 -37q-22 -19 -45 -19q-18 0 -29.5 13t-11.5 36q0 31 32 55t93 24q48 0 75 -23t27 -56
q0 -63 -79 -100q72 -21 72 -88q0 -52 -43.5 -96t-105.5 -44q-129 0 -129 87q0 39 18 60.5t51 21.5q40 0 47 -27z" />
    <glyph glyph-name="acute" unicode="&#xb4;" horiz-adv-x="316" 
d="M120 561l91 189h105l-121 -189h-75z" />
    <glyph glyph-name="mu" unicode="&#xb5;" 
d="M68 500h144l-72 -340q-3 -12 -3 -25q0 -44 30 -44q54 0 80 88l68 321h144l-72 -340q-4 -17 -4 -32q0 -20 9.5 -28.5t31.5 -8.5q55 0 81 88h42q-63 -179 -201 -179q-42 0 -68 23t-30 67q-55 -88 -143 -90l-27 -130l-151 -36z" />
    <glyph glyph-name="paragraph" unicode="&#xb6;" horiz-adv-x="542" 
d="M239 -81h-94l77 369q-72 14 -111 71t-39 132q0 102 67 180t183 78q82 0 133.5 -40t51.5 -125q0 -30 -8 -72l-127 -593h-94l81 380q-15 -5 -43 -11zM327 339h6q20 0 35 4l48 227q6 28 6 49q0 42 -23 63z" />
    <glyph glyph-name="periodcentered" unicode="&#xb7;" horiz-adv-x="434" 
d="M120 267q0 40 28 68.5t68 28.5t68.5 -28.5t28.5 -68.5t-28.5 -68t-68.5 -28t-68 28t-28 68z" />
    <glyph glyph-name="cedilla" unicode="&#xb8;" horiz-adv-x="227" 
d="M227 -108q0 -51 -36.5 -80.5t-83.5 -29.5q-53 0 -107 28q18 32 40 32t42 -13.5t32 -13.5t21 13t9 29q0 15 -9.5 25.5t-29.5 10.5q-26 0 -52 -12l53 148l35 -23l-29 -72q32 8 53 8q62 0 62 -50z" />
    <glyph glyph-name="onesuperior" unicode="&#xb9;" horiz-adv-x="217" 
d="M198 749l-92 -404h-84l77 337h-55l7 25q72 0 147 42z" />
    <glyph glyph-name="ordmasculine" unicode="&#xba;" horiz-adv-x="329" 
d="M262 671q7 4 33 32l6 -11q-13 -43 -39 -57q-4 -78 -44 -123.5t-85 -45.5q-47 0 -69 21t-22 68q0 93 44 141.5t108 48.5q22 0 38.5 -7t16.5 -17q0 -17 -26 -26q-8 19 -26 19q-26 0 -45 -30.5t-26 -64t-7 -59.5q0 -41 41 -41q46 0 59 108q-15 4 -15 22q0 14 12.5 27.5
t26.5 13.5q11 0 15 -4t4 -15z" />
    <glyph glyph-name="guillemotright" unicode="&#xbb;" horiz-adv-x="586" 
d="M75 374l9 55l246 -150l-11 -54l-304 -124l14 57l240 96zM297 374l9 55l246 -150l-11 -54l-304 -124l14 57l240 96z" />
    <glyph glyph-name="onequarter" unicode="&#xbc;" horiz-adv-x="689" 
d="M475 750l-264 -915h-72l264 915h72zM515 150h-141q7 20 29.5 63t38.5 84t16 76q0 18 -4 33q27 0 46 -13.5t19 -37.5q0 -31 -13.5 -59t-38.5 -60t-33 -47h90l47 206l86 11l-50 -217h38l-12 -39h-35l-34 -149h-83zM246 629l-92 -404h-84l77 337h-55l7 25q72 0 147 42z" />
    <glyph glyph-name="onehalf" unicode="&#xbd;" horiz-adv-x="675" 
d="M470 750l-264 -915h-72l264 915h72zM246 629l-92 -404h-84l77 337h-55l7 25q72 0 147 42zM438 76q18 0 55.5 -5t57.5 -5q9 0 17 1.5t12.5 2.5t12.5 6.5l9.5 6.5t11.5 10t12 11q0 -26 -0.5 -38t-4 -28t-11 -22.5t-20.5 -11.5t-33 -5q-32 0 -73 10t-70 10q-6 0 -14.5 -3
t-18.5 -7.5t-13 -5.5q-2 12 -2 18q0 32 19.5 63.5t48 58l56.5 54t47.5 63.5t19.5 76q0 19 -11 31.5t-24 12.5q-28 0 -37.5 -10.5t-9.5 -32.5q0 -31 22 -37q-22 -19 -45 -19q-18 0 -29.5 13t-11.5 36q0 32 29.5 55.5t90.5 23.5q110 0 110 -86q0 -34 -16.5 -64.5t-43 -54
t-53.5 -44l-54 -43t-40 -41.5h4z" />
    <glyph glyph-name="threequarters" unicode="&#xbe;" horiz-adv-x="819" 
d="M591 750l-264 -915h-72l264 915h72zM634 150h-141q7 20 29.5 63t38.5 84t16 76q0 18 -4 33q27 0 46 -13.5t19 -37.5q0 -31 -13.5 -59t-38.5 -60t-33 -47h90l47 206l86 11l-50 -217h38l-12 -39h-35l-34 -149h-83zM177 364q-51 -4 -51 -64q0 -25 13 -34.5t38 -9.5
q31 0 51 28.5t20 65.5q0 33 -18.5 61t-56.5 40q47 11 73 43t26 64q0 19 -10 30.5t-27 11.5q-52 0 -52 -43q0 -31 22 -37q-22 -19 -45 -19q-18 0 -29.5 13t-11.5 36q0 31 32 55t93 24q48 0 75 -23t27 -56q0 -63 -79 -100q72 -21 72 -88q0 -52 -43.5 -96t-105.5 -44
q-129 0 -129 87q0 39 18 60.5t51 21.5q40 0 47 -27z" />
    <glyph glyph-name="questiondown" unicode="&#xbf;" horiz-adv-x="439" 
d="M12 -128q0 52 18.5 92t48.5 68t61.5 53t63.5 60t49 76h66q0 -39 -18.5 -75t-45.5 -64.5l-54 -58t-45.5 -67.5t-18.5 -80q0 -35 15.5 -52t39.5 -17q30 0 55 23.5t25 59.5q0 21 -9.5 41t-28.5 25q26 42 73 42q31 0 53.5 -22t22.5 -62q0 -60 -53.5 -110.5t-156.5 -50.5
q-161 0 -161 119zM231 372q0 34 23 57.5t56 23.5t56.5 -23.5t23.5 -57.5q0 -33 -23.5 -56t-56.5 -23t-56 23t-23 56z" />
    <glyph glyph-name="Agrave" unicode="&#xc0;" horiz-adv-x="668" 
d="M535 0h-144l77 363q-66 30 -134 36q-57 -123 -93.5 -251.5t-36.5 -205.5q0 -35 14 -56q-22 0 -35.5 1t-34.5 6.5t-33 16t-21.5 31.5t-9.5 51q0 67 40.5 179.5t106.5 227.5q-100 -6 -117 -52q4 0 8.5 -10.5t4.5 -20.5q0 -18 -16 -28.5t-40 -10.5q-27 0 -44.5 15t-17.5 43
q0 52 58 87.5t146 35.5q21 0 52 -3q82 130 173.5 212.5t174.5 82.5q45 0 79 -14zM477 407l58 272q-84 -45 -180 -237q72 -14 122 -35zM496 811l-59 189h105l29 -189h-75z" />
    <glyph glyph-name="Aacute" unicode="&#xc1;" horiz-adv-x="668" 
d="M535 0h-144l77 363q-66 30 -134 36q-57 -123 -93.5 -251.5t-36.5 -205.5q0 -35 14 -56q-22 0 -35.5 1t-34.5 6.5t-33 16t-21.5 31.5t-9.5 51q0 67 40.5 179.5t106.5 227.5q-100 -6 -117 -52q4 0 8.5 -10.5t4.5 -20.5q0 -18 -16 -28.5t-40 -10.5q-27 0 -44.5 15t-17.5 43
q0 52 58 87.5t146 35.5q21 0 52 -3q82 130 173.5 212.5t174.5 82.5q45 0 79 -14zM477 407l58 272q-84 -45 -180 -237q72 -14 122 -35zM486 811l91 189h105l-121 -189h-75z" />
    <glyph glyph-name="Acircumflex" unicode="&#xc2;" horiz-adv-x="668" 
d="M535 0h-144l77 363q-66 30 -134 36q-57 -123 -93.5 -251.5t-36.5 -205.5q0 -35 14 -56q-22 0 -35.5 1t-34.5 6.5t-33 16t-21.5 31.5t-9.5 51q0 67 40.5 179.5t106.5 227.5q-100 -6 -117 -52q4 0 8.5 -10.5t4.5 -20.5q0 -18 -16 -28.5t-40 -10.5q-27 0 -44.5 15t-17.5 43
q0 52 58 87.5t146 35.5q21 0 52 -3q82 130 173.5 212.5t174.5 82.5q45 0 79 -14zM477 407l58 272q-84 -45 -180 -237q72 -14 122 -35zM700 811h-32l-60 80l-157 -80h-44l212 189h21z" />
    <glyph glyph-name="Atilde" unicode="&#xc3;" horiz-adv-x="668" 
d="M535 0h-144l77 363q-66 30 -134 36q-57 -123 -93.5 -251.5t-36.5 -205.5q0 -35 14 -56q-22 0 -35.5 1t-34.5 6.5t-33 16t-21.5 31.5t-9.5 51q0 67 40.5 179.5t106.5 227.5q-100 -6 -117 -52q4 0 8.5 -10.5t4.5 -20.5q0 -18 -16 -28.5t-40 -10.5q-27 0 -44.5 15t-17.5 43
q0 52 58 87.5t146 35.5q21 0 52 -3q82 130 173.5 212.5t174.5 82.5q45 0 79 -14zM477 407l58 272q-84 -45 -180 -237q72 -14 122 -35zM804 920l6 -1q-9 -37 -57.5 -68.5t-103.5 -31.5q-34 0 -88 18.5t-80 18.5q-38 0 -66 -26l-6 2q49 98 167 98q38 0 88 -16.5t77 -16.5
q42 0 63 23z" />
    <glyph glyph-name="Adieresis" unicode="&#xc4;" horiz-adv-x="668" 
d="M535 0h-144l77 363q-66 30 -134 36q-57 -123 -93.5 -251.5t-36.5 -205.5q0 -35 14 -56q-22 0 -35.5 1t-34.5 6.5t-33 16t-21.5 31.5t-9.5 51q0 67 40.5 179.5t106.5 227.5q-100 -6 -117 -52q4 0 8.5 -10.5t4.5 -20.5q0 -18 -16 -28.5t-40 -10.5q-27 0 -44.5 15t-17.5 43
q0 52 58 87.5t146 35.5q21 0 52 -3q82 130 173.5 212.5t174.5 82.5q45 0 79 -14zM477 407l58 272q-84 -45 -180 -237q72 -14 122 -35zM430 884q0 25 18 43t43 18t43 -18t18 -43t-18 -43t-43 -18t-43 17.5t-18 43.5zM610 884q0 25 18 43t43 18t43 -18t18 -43t-18 -43t-43 -18
t-43 17.5t-18 43.5z" />
    <glyph glyph-name="Aring" unicode="&#xc5;" horiz-adv-x="668" 
d="M535 0h-144l77 363q-66 30 -134 36q-57 -123 -93.5 -251.5t-36.5 -205.5q0 -35 14 -56q-22 0 -35.5 1t-34.5 6.5t-33 16t-21.5 31.5t-9.5 51q0 67 40.5 179.5t106.5 227.5q-100 -6 -117 -52q4 0 8.5 -10.5t4.5 -20.5q0 -18 -16 -28.5t-40 -10.5q-27 0 -44.5 15t-17.5 43
q0 52 58 87.5t146 35.5q21 0 52 -3q82 130 173.5 212.5t174.5 82.5q45 0 79 -14zM477 407l58 272q-84 -45 -180 -237q72 -14 122 -35zM570 963q35 0 53.5 -21.5t18.5 -55.5q0 -36 -21.5 -60t-65.5 -24q-31 0 -50.5 20.5t-19.5 49.5q0 32 22 61.5t63 29.5zM605 883
q0 47 -33 47q-24 0 -35.5 -17t-11.5 -39q0 -37 34 -37q46 0 46 46z" />
    <glyph glyph-name="AE" unicode="&#xc6;" horiz-adv-x="764" 
d="M760 0h-369l77 363q-74 32 -135 36q-56 -122 -92.5 -250t-36.5 -206q0 -17 2 -28.5t4.5 -15l5 -7t2.5 -5.5q-29 2 -41.5 3t-34.5 7.5t-31.5 17.5t-18 32t-8.5 52q0 64 40.5 175.5t106.5 224.5q-99 -7 -117 -52q4 0 8.5 -10.5t4.5 -20.5q0 -17 -15 -28t-46 -11
q-24 0 -40.5 15.5t-16.5 47.5q0 46 59 80.5t136 34.5q26 0 59 -3q82 132 174 215.5t175 83.5q26 0 84.5 -10t95.5 -10q57 0 117 19q-1 -3 -6 -19t-7.5 -22l-8.5 -19.5t-13 -20t-17 -14.5t-24 -11.5t-31 -3.5q-10 0 -20 1t-20.5 3t-17 3.5t-18 5.5t-16 6t-17 7t-15.5 6
l-54 -253h155l-20 -74h-151l-51 -239h224zM477 407l58 272q-86 -47 -182 -238q71 -13 124 -34z" />
    <glyph glyph-name="Ccedilla" unicode="&#xc7;" horiz-adv-x="497" 
d="M362 -108q0 -51 -36.5 -80.5t-83.5 -29.5q-53 0 -107 28q18 32 40 32t42 -13.5t32 -13.5t21 13t9 29q0 15 -9.5 25.5t-29.5 10.5q-26 0 -52 -12l37 103q-106 3 -156 60t-50 186q0 58 10.5 123.5t37 137.5t65 128.5t100 93.5t136.5 37q76 0 121.5 -32.5t45.5 -101.5
q0 -92 -70 -92q-35 0 -57 26q18 9 32 36.5t14 55.5q0 27 -14.5 44t-46.5 17q-53 0 -102 -74.5t-77.5 -182.5t-28.5 -210q0 -76 26 -116t94 -40q58 0 109 26.5t86 73.5l23 -10q-33 -83 -105.5 -129t-149.5 -55l-21 -52q32 8 53 8q62 0 62 -50z" />
    <glyph glyph-name="Egrave" unicode="&#xc8;" horiz-adv-x="459" 
d="M461 180l23 -10q-38 -86 -119.5 -137t-173.5 -51q-91 0 -137.5 50t-46.5 126q0 84 51.5 161.5t133.5 97.5q-61 44 -61 120q0 81 63.5 148t155.5 67q62 0 102.5 -33t40.5 -92q0 -44 -22 -74t-52 -30q-27 0 -47 27q18 6 31 33t13 54q0 29 -16 42.5t-39 13.5
q-43 0 -72.5 -43t-29.5 -98q0 -47 25 -84t76 -50q-76 -17 -127.5 -91t-51.5 -148q0 -45 23.5 -73t71.5 -28q50 0 105 27.5t80 74.5zM311 811l-59 189h105l29 -189h-75z" />
    <glyph glyph-name="Eacute" unicode="&#xc9;" horiz-adv-x="459" 
d="M461 180l23 -10q-38 -86 -119.5 -137t-173.5 -51q-91 0 -137.5 50t-46.5 126q0 84 51.5 161.5t133.5 97.5q-61 44 -61 120q0 81 63.5 148t155.5 67q62 0 102.5 -33t40.5 -92q0 -44 -22 -74t-52 -30q-27 0 -47 27q18 6 31 33t13 54q0 29 -16 42.5t-39 13.5
q-43 0 -72.5 -43t-29.5 -98q0 -47 25 -84t76 -50q-76 -17 -127.5 -91t-51.5 -148q0 -45 23.5 -73t71.5 -28q50 0 105 27.5t80 74.5zM330 811l91 189h105l-121 -189h-75z" />
    <glyph glyph-name="Ecircumflex" unicode="&#xca;" horiz-adv-x="459" 
d="M461 180l23 -10q-38 -86 -119.5 -137t-173.5 -51q-91 0 -137.5 50t-46.5 126q0 84 51.5 161.5t133.5 97.5q-61 44 -61 120q0 81 63.5 148t155.5 67q62 0 102.5 -33t40.5 -92q0 -44 -22 -74t-52 -30q-27 0 -47 27q18 6 31 33t13 54q0 29 -16 42.5t-39 13.5
q-43 0 -72.5 -43t-29.5 -98q0 -47 25 -84t76 -50q-76 -17 -127.5 -91t-51.5 -148q0 -45 23.5 -73t71.5 -28q50 0 105 27.5t80 74.5zM495 811h-32l-60 80l-157 -80h-44l212 189h21z" />
    <glyph glyph-name="Edieresis" unicode="&#xcb;" horiz-adv-x="459" 
d="M461 180l23 -10q-38 -86 -119.5 -137t-173.5 -51q-91 0 -137.5 50t-46.5 126q0 84 51.5 161.5t133.5 97.5q-61 44 -61 120q0 81 63.5 148t155.5 67q62 0 102.5 -33t40.5 -92q0 -44 -22 -74t-52 -30q-27 0 -47 27q18 6 31 33t13 54q0 29 -16 42.5t-39 13.5
q-43 0 -72.5 -43t-29.5 -98q0 -47 25 -84t76 -50q-76 -17 -127.5 -91t-51.5 -148q0 -45 23.5 -73t71.5 -28q50 0 105 27.5t80 74.5zM238 884q0 25 18 43t43 18t43 -18t18 -43t-18 -43t-43 -18t-43 17.5t-18 43.5zM418 884q0 25 18 43t43 18t43 -18t18 -43t-18 -43t-43 -18
t-43 17.5t-18 43.5z" />
    <glyph glyph-name="Igrave" unicode="&#xcc;" horiz-adv-x="375" 
d="M397 748l-159 -748h-144l145 679q-66 -28 -103 -83.5t-37 -134.5q0 -23 3 -37.5t7 -21.5t4 -9q-54 0 -80.5 22.5t-26.5 74.5q0 98 112 179t239 81q14 0 40 -2zM230 811l-59 189h105l29 -189h-75z" />
    <glyph glyph-name="Iacute" unicode="&#xcd;" horiz-adv-x="375" 
d="M397 748l-159 -748h-144l145 679q-66 -28 -103 -83.5t-37 -134.5q0 -23 3 -37.5t7 -21.5t4 -9q-54 0 -80.5 22.5t-26.5 74.5q0 98 112 179t239 81q14 0 40 -2zM269 811l91 189h105l-121 -189h-75z" />
    <glyph glyph-name="Icircumflex" unicode="&#xce;" horiz-adv-x="375" 
d="M397 748l-159 -748h-144l145 679q-66 -28 -103 -83.5t-37 -134.5q0 -23 3 -37.5t7 -21.5t4 -9q-54 0 -80.5 22.5t-26.5 74.5q0 98 112 179t239 81q14 0 40 -2zM444 811h-32l-60 80l-157 -80h-44l212 189h21z" />
    <glyph glyph-name="Idieresis" unicode="&#xcf;" horiz-adv-x="375" 
d="M397 748l-159 -748h-144l145 679q-66 -28 -103 -83.5t-37 -134.5q0 -23 3 -37.5t7 -21.5t4 -9q-54 0 -80.5 22.5t-26.5 74.5q0 98 112 179t239 81q14 0 40 -2zM167 884q0 25 18 43t43 18t43 -18t18 -43t-18 -43t-43 -18q-26 0 -43.5 17.5t-17.5 43.5zM347 884q0 25 18 43
t43 18t43 -18t18 -43t-18 -43t-43 -18q-26 0 -43.5 17.5t-17.5 43.5z" />
    <glyph glyph-name="Eth" unicode="&#xd0;" horiz-adv-x="663" 
d="M230 636l148 20l-51 -237h79l-20 -74h-75l-53 -250q27 -20 57 -20q56 0 101.5 69t68 167t22.5 197q0 102 -28.5 149t-109.5 47q-123 0 -196.5 -65t-73.5 -178q0 -23 3 -37.5t7 -21.5t4 -9q-54 0 -80.5 22.5t-26.5 74.5q0 98 112 179t239 81q288 0 288 -270
q0 -127 -38 -241t-102.5 -183t-136.5 -69q-60 0 -122 53l-8 -40h-144l74 345h-39l20 74h35z" />
    <glyph glyph-name="Ntilde" unicode="&#xd1;" horiz-adv-x="686" 
d="M570 748h144l-159 -748h-121l-85 523l-111 -523h-144l144 679q-66 -27 -102.5 -83.5t-36.5 -134.5q0 -23 3 -37.5t7 -21.5t4 -9q-54 0 -80.5 22.5t-26.5 74.5q0 93 81 176.5t202 83.5q64 0 93 -14l79 -530zM703 920l6 -1q-9 -37 -57.5 -68.5t-103.5 -31.5q-34 0 -88 18.5
t-80 18.5q-38 0 -66 -26l-6 2q49 98 167 98q38 0 88 -16.5t77 -16.5q42 0 63 23z" />
    <glyph glyph-name="Ograve" unicode="&#xd2;" horiz-adv-x="658" 
d="M431 656q-66 -40 -120.5 -192t-54.5 -273q0 -116 58 -116q49 0 98 71t80 177.5t31 205.5q0 93 -26.5 134t-101.5 41q-119 0 -203.5 -71t-84.5 -186q0 -23 5 -39l5 -15q-101 0 -101 84q0 105 122.5 189t280.5 84q237 0 237 -256q0 -61 -13 -126.5t-42 -133t-70.5 -120.5
t-105 -86.5t-138.5 -33.5q-179 0 -179 201q0 50 10.5 111t33.5 124.5t54 115.5t76 85t97 33q28 0 52 -8zM351 811l-59 189h105l29 -189h-75z" />
    <glyph glyph-name="Oacute" unicode="&#xd3;" horiz-adv-x="658" 
d="M431 656q-66 -40 -120.5 -192t-54.5 -273q0 -116 58 -116q49 0 98 71t80 177.5t31 205.5q0 93 -26.5 134t-101.5 41q-119 0 -203.5 -71t-84.5 -186q0 -23 5 -39l5 -15q-101 0 -101 84q0 105 122.5 189t280.5 84q237 0 237 -256q0 -61 -13 -126.5t-42 -133t-70.5 -120.5
t-105 -86.5t-138.5 -33.5q-179 0 -179 201q0 50 10.5 111t33.5 124.5t54 115.5t76 85t97 33q28 0 52 -8zM397 811l91 189h105l-121 -189h-75z" />
    <glyph glyph-name="Ocircumflex" unicode="&#xd4;" horiz-adv-x="658" 
d="M431 656q-66 -40 -120.5 -192t-54.5 -273q0 -116 58 -116q49 0 98 71t80 177.5t31 205.5q0 93 -26.5 134t-101.5 41q-119 0 -203.5 -71t-84.5 -186q0 -23 5 -39l5 -15q-101 0 -101 84q0 105 122.5 189t280.5 84q237 0 237 -256q0 -61 -13 -126.5t-42 -133t-70.5 -120.5
t-105 -86.5t-138.5 -33.5q-179 0 -179 201q0 50 10.5 111t33.5 124.5t54 115.5t76 85t97 33q28 0 52 -8zM565 811h-32l-60 80l-157 -80h-44l212 189h21z" />
    <glyph glyph-name="Otilde" unicode="&#xd5;" horiz-adv-x="658" 
d="M431 656q-66 -40 -120.5 -192t-54.5 -273q0 -116 58 -116q49 0 98 71t80 177.5t31 205.5q0 93 -26.5 134t-101.5 41q-119 0 -203.5 -71t-84.5 -186q0 -23 5 -39l5 -15q-101 0 -101 84q0 105 122.5 189t280.5 84q237 0 237 -256q0 -61 -13 -126.5t-42 -133t-70.5 -120.5
t-105 -86.5t-138.5 -33.5q-179 0 -179 201q0 50 10.5 111t33.5 124.5t54 115.5t76 85t97 33q28 0 52 -8zM669 920l6 -1q-9 -37 -57.5 -68.5t-103.5 -31.5q-34 0 -88 18.5t-80 18.5q-38 0 -66 -26l-6 2q49 98 167 98q38 0 88 -16.5t77 -16.5q42 0 63 23z" />
    <glyph glyph-name="Odieresis" unicode="&#xd6;" horiz-adv-x="658" 
d="M431 656q-66 -40 -120.5 -192t-54.5 -273q0 -116 58 -116q49 0 98 71t80 177.5t31 205.5q0 93 -26.5 134t-101.5 41q-119 0 -203.5 -71t-84.5 -186q0 -23 5 -39l5 -15q-101 0 -101 84q0 105 122.5 189t280.5 84q237 0 237 -256q0 -61 -13 -126.5t-42 -133t-70.5 -120.5
t-105 -86.5t-138.5 -33.5q-179 0 -179 201q0 50 10.5 111t33.5 124.5t54 115.5t76 85t97 33q28 0 52 -8zM288 884q0 25 18 43t43 18t43 -18t18 -43t-18 -43t-43 -18t-43 17.5t-18 43.5zM468 884q0 25 18 43t43 18t43 -18t18 -43t-18 -43t-43 -18t-43 17.5t-18 43.5z" />
    <glyph glyph-name="multiply" unicode="&#xd7;" horiz-adv-x="515" 
d="M98 355l65 64l94 -95l96 96l64 -65l-95 -95l95 -95l-64 -65l-96 95l-94 -94l-65 64l95 95z" />
    <glyph glyph-name="Oslash" unicode="&#xd8;" horiz-adv-x="658" 
d="M317 -71h-52l14 65q-175 0 -175 189q0 60 17 133t48 142.5t83 116.5t113 47q24 0 45 -7l9 41q-16 3 -38 3q-115 0 -196.5 -66.5t-81.5 -174.5q0 -16 2.5 -26.5t5 -16t2.5 -7.5q-98 0 -98 78q0 99 118.5 177.5t270.5 78.5q16 0 24 -1l11 49h52l-12 -56q153 -36 153 -232
q0 -66 -17.5 -138t-52 -141t-95 -119.5t-135.5 -64.5zM247 179q0 -101 48 -109l114 540q-61 -41 -111.5 -180.5t-50.5 -250.5zM504 495q0 106 -38 139l-115 -546q60 44 106.5 166.5t46.5 240.5z" />
    <glyph glyph-name="Ugrave" unicode="&#xd9;" horiz-adv-x="719" 
d="M620 748h141l-66 -312q-21 -100 -39.5 -164t-45.5 -122t-61.5 -89.5t-84 -49.5t-116.5 -18q-104 0 -148.5 40t-44.5 119q0 29 3.5 60.5t14.5 81.5l16 73.5t24 98.5l24 94l33 132q-83 -22 -130 -81.5t-47 -148.5q0 -23 3 -38t7 -22t4 -9q-107 0 -107 92q0 69 53.5 130.5
t141 98t183.5 36.5q22 0 48 -5l-36.5 -134l-31 -115l-24 -90t-20 -78t-13 -57.5t-8.5 -51t-2 -38.5q0 -90 69 -90q29 0 46.5 5t37.5 23t35.5 56t34 102t39.5 162zM469 811l-59 189h105l29 -189h-75z" />
    <glyph glyph-name="Uacute" unicode="&#xda;" horiz-adv-x="719" 
d="M620 748h141l-66 -312q-21 -100 -39.5 -164t-45.5 -122t-61.5 -89.5t-84 -49.5t-116.5 -18q-104 0 -148.5 40t-44.5 119q0 29 3.5 60.5t14.5 81.5l16 73.5t24 98.5l24 94l33 132q-83 -22 -130 -81.5t-47 -148.5q0 -23 3 -38t7 -22t4 -9q-107 0 -107 92q0 69 53.5 130.5
t141 98t183.5 36.5q22 0 48 -5l-36.5 -134l-31 -115l-24 -90t-20 -78t-13 -57.5t-8.5 -51t-2 -38.5q0 -90 69 -90q29 0 46.5 5t37.5 23t35.5 56t34 102t39.5 162zM451 811l91 189h105l-121 -189h-75z" />
    <glyph glyph-name="Ucircumflex" unicode="&#xdb;" horiz-adv-x="719" 
d="M620 748h141l-66 -312q-21 -100 -39.5 -164t-45.5 -122t-61.5 -89.5t-84 -49.5t-116.5 -18q-104 0 -148.5 40t-44.5 119q0 29 3.5 60.5t14.5 81.5l16 73.5t24 98.5l24 94l33 132q-83 -22 -130 -81.5t-47 -148.5q0 -23 3 -38t7 -22t4 -9q-107 0 -107 92q0 69 53.5 130.5
t141 98t183.5 36.5q22 0 48 -5l-36.5 -134l-31 -115l-24 -90t-20 -78t-13 -57.5t-8.5 -51t-2 -38.5q0 -90 69 -90q29 0 46.5 5t37.5 23t35.5 56t34 102t39.5 162zM656 811h-32l-60 80l-157 -80h-44l212 189h21z" />
    <glyph glyph-name="Udieresis" unicode="&#xdc;" horiz-adv-x="719" 
d="M620 748h141l-66 -312q-21 -100 -39.5 -164t-45.5 -122t-61.5 -89.5t-84 -49.5t-116.5 -18q-104 0 -148.5 40t-44.5 119q0 29 3.5 60.5t14.5 81.5l16 73.5t24 98.5l24 94l33 132q-83 -22 -130 -81.5t-47 -148.5q0 -23 3 -38t7 -22t4 -9q-107 0 -107 92q0 69 53.5 130.5
t141 98t183.5 36.5q22 0 48 -5l-36.5 -134l-31 -115l-24 -90t-20 -78t-13 -57.5t-8.5 -51t-2 -38.5q0 -90 69 -90q29 0 46.5 5t37.5 23t35.5 56t34 102t39.5 162zM373 884q0 25 18 43t43 18t43 -18t18 -43t-18 -43t-43 -18q-26 0 -43.5 17.5t-17.5 43.5zM553 884q0 25 18 43
t43 18t43 -18t18 -43t-18 -43t-43 -18q-26 0 -43.5 17.5t-17.5 43.5z" />
    <glyph glyph-name="Yacute" unicode="&#xdd;" horiz-adv-x="620" 
d="M438 0h-160l66 308l-96 375q-71 -26 -110 -83t-39 -139q0 -23 3 -37.5t7 -21.5t4 -9q-54 0 -80.5 22.5t-26.5 74.5q0 98 112 179t239 81q14 0 40 -2l87 -358l148 355h66l-194 -437zM453 811l91 189h105l-121 -189h-75z" />
    <glyph glyph-name="Thorn" unicode="&#xde;" horiz-adv-x="583" 
d="M250 730l148 20l-24 -110q108 -5 163.5 -61t55.5 -136q0 -102 -80.5 -185t-208.5 -83h-29l-37 -175h-144l120 562q-115 -61 -115 -211q0 -23 3 -37.5t7 -21.5t4 -9q-54 0 -80.5 22.5t-26.5 74.5q0 71 63.5 137t155.5 99zM283 212h14q76 0 130.5 79t54.5 167q0 58 -29 96
t-88 40z" />
    <glyph glyph-name="germandbls" unicode="&#xdf;" horiz-adv-x="450" 
d="M225 530l-159 -744l-151 -36l166 780q36 170 182 170q66 0 101.5 -37t35.5 -90q0 -45 -24.5 -85.5t-67.5 -60.5q97 -33 97 -142q0 -72 -19 -129.5t-49 -90t-61.5 -49t-60.5 -16.5q-11 0 -33 2l13 59q29 0 51.5 25t34.5 64t17.5 78.5t5.5 77.5q0 34 -16.5 55.5t-55.5 31.5
l18 58q83 34 83 111q0 28 -9 39t-29 11q-21 0 -41 -18.5t-29 -63.5z" />
    <glyph glyph-name="agrave" unicode="&#xe0;" horiz-adv-x="526" 
d="M336 500h144l-72 -340q-4 -17 -4 -32q0 -43 41 -43q53 0 81 94h42q-65 -185 -201 -185q-42 0 -68 23.5t-30 68.5q-62 -92 -149 -92q-57 0 -95 39t-38 122q0 53 16.5 112t46.5 113t81 89.5t113 35.5q81 0 81 -51v-7zM275 443q-40 0 -73.5 -49.5t-50 -112t-16.5 -112.5
q0 -27 5 -44.5t14 -24t15 -8t16 -1.5q24 0 49.5 23.5t33.5 64.5l48 226q0 13 -10 25.5t-31 12.5zM275 561l-59 189h105l29 -189h-75z" />
    <glyph glyph-name="aacute" unicode="&#xe1;" horiz-adv-x="526" 
d="M336 500h144l-72 -340q-4 -17 -4 -32q0 -43 41 -43q53 0 81 94h42q-65 -185 -201 -185q-42 0 -68 23.5t-30 68.5q-62 -92 -149 -92q-57 0 -95 39t-38 122q0 53 16.5 112t46.5 113t81 89.5t113 35.5q81 0 81 -51v-7zM275 443q-40 0 -73.5 -49.5t-50 -112t-16.5 -112.5
q0 -27 5 -44.5t14 -24t15 -8t16 -1.5q24 0 49.5 23.5t33.5 64.5l48 226q0 13 -10 25.5t-31 12.5zM245 561l91 189h105l-121 -189h-75z" />
    <glyph glyph-name="acircumflex" unicode="&#xe2;" horiz-adv-x="526" 
d="M336 500h144l-72 -340q-4 -17 -4 -32q0 -43 41 -43q53 0 81 94h42q-65 -185 -201 -185q-42 0 -68 23.5t-30 68.5q-62 -92 -149 -92q-57 0 -95 39t-38 122q0 53 16.5 112t46.5 113t81 89.5t113 35.5q81 0 81 -51v-7zM275 443q-40 0 -73.5 -49.5t-50 -112t-16.5 -112.5
q0 -27 5 -44.5t14 -24t15 -8t16 -1.5q24 0 49.5 23.5t33.5 64.5l48 226q0 13 -10 25.5t-31 12.5zM439 561h-32l-60 80l-157 -80h-44l212 189h21z" />
    <glyph glyph-name="atilde" unicode="&#xe3;" horiz-adv-x="526" 
d="M336 500h144l-72 -340q-4 -17 -4 -32q0 -43 41 -43q53 0 81 94h42q-65 -185 -201 -185q-42 0 -68 23.5t-30 68.5q-62 -92 -149 -92q-57 0 -95 39t-38 122q0 53 16.5 112t46.5 113t81 89.5t113 35.5q81 0 81 -51v-7zM275 443q-40 0 -73.5 -49.5t-50 -112t-16.5 -112.5
q0 -27 5 -44.5t14 -24t15 -8t16 -1.5q24 0 49.5 23.5t33.5 64.5l48 226q0 13 -10 25.5t-31 12.5zM497 670l6 -1q-9 -37 -57.5 -68.5t-103.5 -31.5q-34 0 -88 18.5t-80 18.5q-38 0 -66 -26l-6 2q49 98 167 98q38 0 88 -16.5t77 -16.5q42 0 63 23z" />
    <glyph glyph-name="adieresis" unicode="&#xe4;" horiz-adv-x="526" 
d="M336 500h144l-72 -340q-4 -17 -4 -32q0 -43 41 -43q53 0 81 94h42q-65 -185 -201 -185q-42 0 -68 23.5t-30 68.5q-62 -92 -149 -92q-57 0 -95 39t-38 122q0 53 16.5 112t46.5 113t81 89.5t113 35.5q81 0 81 -51v-7zM275 443q-40 0 -73.5 -49.5t-50 -112t-16.5 -112.5
q0 -27 5 -44.5t14 -24t15 -8t16 -1.5q24 0 49.5 23.5t33.5 64.5l48 226q0 13 -10 25.5t-31 12.5zM180 634q0 25 18 43t43 18t43 -18t18 -43t-18 -43t-43 -18t-43 17.5t-18 43.5zM360 634q0 25 18 43t43 18t43 -18t18 -43t-18 -43t-43 -18t-43 17.5t-18 43.5z" />
    <glyph glyph-name="aring" unicode="&#xe5;" horiz-adv-x="526" 
d="M336 500h144l-72 -340q-4 -17 -4 -32q0 -43 41 -43q53 0 81 94h42q-65 -185 -201 -185q-42 0 -68 23.5t-30 68.5q-62 -92 -149 -92q-57 0 -95 39t-38 122q0 53 16.5 112t46.5 113t81 89.5t113 35.5q81 0 81 -51v-7zM275 443q-40 0 -73.5 -49.5t-50 -112t-16.5 -112.5
q0 -27 5 -44.5t14 -24t15 -8t16 -1.5q24 0 49.5 23.5t33.5 64.5l48 226q0 13 -10 25.5t-31 12.5zM319 713q35 0 53.5 -21.5t18.5 -55.5q0 -36 -21.5 -60t-65.5 -24q-31 0 -50.5 20.5t-19.5 49.5q0 32 22 61.5t63 29.5zM354 633q0 47 -33 47q-24 0 -35.5 -17t-11.5 -39
q0 -37 34 -37q46 0 46 46z" />
    <glyph glyph-name="ae" unicode="&#xe6;" horiz-adv-x="650" 
d="M119 -6q-53 0 -90 29t-37 101q0 166 222 166q28 0 52 -4q21 45 21 88q0 32 -15.5 51.5t-45.5 19.5q-69 0 -121 -47l-28 29q35 36 69 54t55.5 21t57.5 3q81 0 130 -40q59 44 135 44q62 0 85.5 -26.5t23.5 -72.5q0 -82 -69 -142.5t-161 -65.5q-2 -22 -2 -32q0 -53 15 -72.5
t45 -19.5q46 0 81 14.5t54.5 32t53.5 54.5h34q-114 -183 -276 -183q-120 0 -147 94q-24 -46 -55.5 -71t-86.5 -25zM556 412q0 44 -24 44q-36 0 -70 -63t-52 -143q58 4 102 53t44 109zM242 229q-49 0 -79 -24t-30 -64q0 -21 10 -33t18.5 -14.5t17.5 -2.5q27 0 46.5 30
t33.5 107q-6 1 -17 1z" />
    <glyph glyph-name="ccedilla" unicode="&#xe7;" horiz-adv-x="384" 
d="M131 -119l41 115q-10 -2 -29 -2q-156 0 -156 159q0 49 14.5 105.5t43.5 115t84 97t127 38.5q111 0 111 -92q0 -35 -15 -54t-38 -19q-17 0 -35 12q12 33 12 59q0 41 -28 41q-30 0 -60.5 -50.5t-49 -119t-18.5 -124.5q0 -49 17 -66.5t55 -17.5q54 0 93.5 25.5t83.5 75.5h34
q-89 -141 -200 -174l-28 -71q32 8 53 8q62 0 62 -50q0 -51 -36.5 -80.5t-83.5 -29.5q-53 0 -107 28q18 32 40 32t42 -13.5t32 -13.5t21 13t9 29q0 15 -9.5 25.5t-29.5 10.5q-26 0 -52 -12z" />
    <glyph glyph-name="egrave" unicode="&#xe8;" horiz-adv-x="384" 
d="M135 162q0 -49 17 -66.5t55 -17.5q54 0 93.5 25.5t83.5 75.5h34q-115 -185 -275 -185q-156 0 -156 159q0 38 8 81.5t28.5 93t50 89.5t77.5 66t106 26q110 0 110 -96q0 -84 -69 -145t-161 -66q-2 -28 -2 -40zM290 415q0 41 -25 41q-36 0 -70 -62.5t-50 -143.5
q58 4 101.5 53.5t43.5 111.5zM232 561l-59 189h105l29 -189h-75z" />
    <glyph glyph-name="eacute" unicode="&#xe9;" horiz-adv-x="384" 
d="M135 162q0 -49 17 -66.5t55 -17.5q54 0 93.5 25.5t83.5 75.5h34q-115 -185 -275 -185q-156 0 -156 159q0 38 8 81.5t28.5 93t50 89.5t77.5 66t106 26q110 0 110 -96q0 -84 -69 -145t-161 -66q-2 -28 -2 -40zM290 415q0 41 -25 41q-36 0 -70 -62.5t-50 -143.5
q58 4 101.5 53.5t43.5 111.5zM194 561l91 189h105l-121 -189h-75z" />
    <glyph glyph-name="ecircumflex" unicode="&#xea;" horiz-adv-x="384" 
d="M135 162q0 -49 17 -66.5t55 -17.5q54 0 93.5 25.5t83.5 75.5h34q-115 -185 -275 -185q-156 0 -156 159q0 38 8 81.5t28.5 93t50 89.5t77.5 66t106 26q110 0 110 -96q0 -84 -69 -145t-161 -66q-2 -28 -2 -40zM290 415q0 41 -25 41q-36 0 -70 -62.5t-50 -143.5
q58 4 101.5 53.5t43.5 111.5zM398 561h-32l-60 80l-157 -80h-44l212 189h21z" />
    <glyph glyph-name="edieresis" unicode="&#xeb;" horiz-adv-x="384" 
d="M135 162q0 -49 17 -66.5t55 -17.5q54 0 93.5 25.5t83.5 75.5h34q-115 -185 -275 -185q-156 0 -156 159q0 38 8 81.5t28.5 93t50 89.5t77.5 66t106 26q110 0 110 -96q0 -84 -69 -145t-161 -66q-2 -28 -2 -40zM290 415q0 41 -25 41q-36 0 -70 -62.5t-50 -143.5
q58 4 101.5 53.5t43.5 111.5zM119 634q0 25 18 43t43 18t43 -18t18 -43t-18 -43t-43 -18q-26 0 -43.5 17.5t-17.5 43.5zM299 634q0 25 18 43t43 18t43 -18t18 -43t-18 -43t-43 -18q-26 0 -43.5 17.5t-17.5 43.5z" />
    <glyph glyph-name="igrave" unicode="&#xec;" horiz-adv-x="267" 
d="M68 500h144l-72 -340q-4 -17 -4 -32q0 -20 9.5 -28.5t31.5 -8.5q29 0 54 25t36 63h42q-65 -185 -210 -185q-48 0 -77.5 30t-29.5 90q0 27 8 65zM125 561l-59 189h105l29 -189h-75z" />
    <glyph glyph-name="iacute" unicode="&#xed;" horiz-adv-x="267" 
d="M68 500h144l-72 -340q-4 -17 -4 -32q0 -20 9.5 -28.5t31.5 -8.5q29 0 54 25t36 63h42q-65 -185 -210 -185q-48 0 -77.5 30t-29.5 90q0 27 8 65zM121 561l91 189h105l-121 -189h-75z" />
    <glyph glyph-name="icircumflex" unicode="&#xee;" horiz-adv-x="267" 
d="M68 500h144l-72 -340q-4 -17 -4 -32q0 -20 9.5 -28.5t31.5 -8.5q29 0 54 25t36 63h42q-65 -185 -210 -185q-48 0 -77.5 30t-29.5 90q0 27 8 65zM299 561h-32l-60 80l-157 -80h-44l212 189h21z" />
    <glyph glyph-name="idieresis" unicode="&#xef;" horiz-adv-x="267" 
d="M68 500h144l-72 -340q-4 -17 -4 -32q0 -20 9.5 -28.5t31.5 -8.5q29 0 54 25t36 63h42q-65 -185 -210 -185q-48 0 -77.5 30t-29.5 90q0 27 8 65zM17 634q0 25 18 43t43 18t43 -18t18 -43t-18 -43t-43 -18q-26 0 -43.5 17.5t-17.5 43.5zM197 634q0 25 18 43t43 18t43 -18
t18 -43t-18 -43t-43 -18q-26 0 -43.5 17.5t-17.5 43.5z" />
    <glyph glyph-name="eth" unicode="&#xf0;" horiz-adv-x="538" 
d="M474 415l-54 -255q-4 -17 -4 -32q0 -20 9.5 -28.5t31.5 -8.5q55 0 81 88h42q-63 -179 -201 -179q-41 0 -66.5 22.5t-31.5 64.5q-61 -93 -149 -93q-57 0 -95 39t-38 122q0 53 16.5 112t46.5 113t81 89.5t113 35.5q81 0 81 -51v-6l8 37q10 45 11 76h-77l8 40h69
q-6 51 -42 99h45q81 -45 107 -99h63l-8 -40h-42q6 -24 6 -53q0 -38 -11 -93zM280 179l48 226q0 12 -9.5 25t-31.5 13q-40 0 -73.5 -49.5t-50 -112t-16.5 -112.5q0 -27 5 -44.5t14 -24t15 -8t16 -1.5q24 0 49.5 23.5t33.5 64.5z" />
    <glyph glyph-name="ntilde" unicode="&#xf1;" 
d="M288 362q0 51 -36 51q-50 0 -78 -92l-68 -321h-144l106 500h144l-11 -52q49 56 117 56q51 0 81 -28t30 -85q0 -44 -24 -138.5t-24 -119.5q0 -42 40 -42q30 0 47 21t37 67h42q-63 -185 -186 -185q-61 0 -89.5 32.5t-28.5 80.5q0 35 22.5 129t22.5 126zM483 670l6 -1
q-9 -37 -57.5 -68.5t-103.5 -31.5q-34 0 -88 18.5t-80 18.5q-38 0 -66 -26l-6 2q49 98 167 98q38 0 88 -16.5t77 -16.5q42 0 63 23z" />
    <glyph glyph-name="ograve" unicode="&#xf2;" horiz-adv-x="433" 
d="M254 509q128 0 128 -160q4 -2 11 -2q68 0 154 60l9 -27q-59 -64 -177 -83q-12 -137 -78.5 -219t-160.5 -82q-74 0 -117 38t-43 120q0 48 14.5 104.5t44.5 115t86 97t129 38.5zM180 86q37 0 70.5 60t45.5 148q-27 6 -27 42q0 40 31 54q-2 32 -10.5 45t-27.5 13
q-33 0 -65 -50t-50 -115t-18 -116q0 -48 11 -64.5t40 -16.5zM238 561l-59 189h105l29 -189h-75z" />
    <glyph glyph-name="oacute" unicode="&#xf3;" horiz-adv-x="433" 
d="M254 509q128 0 128 -160q4 -2 11 -2q68 0 154 60l9 -27q-59 -64 -177 -83q-12 -137 -78.5 -219t-160.5 -82q-74 0 -117 38t-43 120q0 48 14.5 104.5t44.5 115t86 97t129 38.5zM180 86q37 0 70.5 60t45.5 148q-27 6 -27 42q0 40 31 54q-2 32 -10.5 45t-27.5 13
q-33 0 -65 -50t-50 -115t-18 -116q0 -48 11 -64.5t40 -16.5zM219 561l91 189h105l-121 -189h-75z" />
    <glyph glyph-name="ocircumflex" unicode="&#xf4;" horiz-adv-x="433" 
d="M254 509q128 0 128 -160q4 -2 11 -2q68 0 154 60l9 -27q-59 -64 -177 -83q-12 -137 -78.5 -219t-160.5 -82q-74 0 -117 38t-43 120q0 48 14.5 104.5t44.5 115t86 97t129 38.5zM180 86q37 0 70.5 60t45.5 148q-27 6 -27 42q0 40 31 54q-2 32 -10.5 45t-27.5 13
q-33 0 -65 -50t-50 -115t-18 -116q0 -48 11 -64.5t40 -16.5zM388 561h-32l-60 80l-157 -80h-44l212 189h21z" />
    <glyph glyph-name="otilde" unicode="&#xf5;" horiz-adv-x="433" 
d="M254 509q128 0 128 -160q4 -2 11 -2q68 0 154 60l9 -27q-59 -64 -177 -83q-12 -137 -78.5 -219t-160.5 -82q-74 0 -117 38t-43 120q0 48 14.5 104.5t44.5 115t86 97t129 38.5zM180 86q37 0 70.5 60t45.5 148q-27 6 -27 42q0 40 31 54q-2 32 -10.5 45t-27.5 13
q-33 0 -65 -50t-50 -115t-18 -116q0 -48 11 -64.5t40 -16.5zM435 670l6 -1q-9 -37 -57.5 -68.5t-103.5 -31.5q-34 0 -88 18.5t-80 18.5q-38 0 -66 -26l-6 2q49 98 167 98q38 0 88 -16.5t77 -16.5q42 0 63 23z" />
    <glyph glyph-name="odieresis" unicode="&#xf6;" horiz-adv-x="433" 
d="M254 509q128 0 128 -160q4 -2 11 -2q68 0 154 60l9 -27q-59 -64 -177 -83q-12 -137 -78.5 -219t-160.5 -82q-74 0 -117 38t-43 120q0 48 14.5 104.5t44.5 115t86 97t129 38.5zM180 86q37 0 70.5 60t45.5 148q-27 6 -27 42q0 40 31 54q-2 32 -10.5 45t-27.5 13
q-33 0 -65 -50t-50 -115t-18 -116q0 -48 11 -64.5t40 -16.5zM105 634q0 25 18 43t43 18t43 -18t18 -43t-18 -43t-43 -18q-26 0 -43.5 17.5t-17.5 43.5zM285 634q0 25 18 43t43 18t43 -18t18 -43t-18 -43t-43 -18q-26 0 -43.5 17.5t-17.5 43.5z" />
    <glyph glyph-name="divide" unicode="&#xf7;" horiz-adv-x="472" 
d="M147 80q0 33 23 56.5t56 23.5t56.5 -23.5t23.5 -56.5t-23.5 -56t-56.5 -23t-56 23t-23 56zM207 415q0 33 23 56.5t56 23.5t56.5 -23.5t23.5 -56.5t-23.5 -56t-56.5 -23t-56 23t-23 56zM419 285l-17 -79h-351l18 79h350z" />
    <glyph glyph-name="oslash" unicode="&#xf8;" horiz-adv-x="428" 
d="M170 -103h-52l21 99q-71 2 -112 40t-41 118q0 47 13.5 102.5t42 113t82.5 97t124 41.5l20 97h52l-21 -102q83 -22 86 -146q68 3 148 60h32q-22 -33 -73.5 -64.5t-108.5 -46.5q-8 -122 -60 -203t-131 -101zM186 86q37 0 70 61t44 150q-28 8 -28 46q0 41 31 53
q-2 28 -11 40t-27 12q-49 0 -89.5 -99t-40.5 -182q0 -48 11 -64.5t40 -16.5z" />
    <glyph glyph-name="ugrave" unicode="&#xf9;" 
d="M315 500h144l-72 -340q-4 -17 -4 -32q0 -20 9.5 -28.5t31.5 -8.5q55 0 81 88h42q-65 -185 -201 -185q-43 0 -69 24.5t-30 70.5q-58 -95 -148 -95q-48 0 -77.5 30t-29.5 90q0 27 8 65l68 321h144l-72 -340q-3 -15 -3 -28q0 -41 30 -41q54 0 80 88zM244 561l-59 189h105
l29 -189h-75z" />
    <glyph glyph-name="uacute" unicode="&#xfa;" 
d="M315 500h144l-72 -340q-4 -17 -4 -32q0 -20 9.5 -28.5t31.5 -8.5q55 0 81 88h42q-65 -185 -201 -185q-43 0 -69 24.5t-30 70.5q-58 -95 -148 -95q-48 0 -77.5 30t-29.5 90q0 27 8 65l68 321h144l-72 -340q-3 -15 -3 -28q0 -41 30 -41q54 0 80 88zM239 561l91 189h105
l-121 -189h-75z" />
    <glyph glyph-name="ucircumflex" unicode="&#xfb;" 
d="M315 500h144l-72 -340q-4 -17 -4 -32q0 -20 9.5 -28.5t31.5 -8.5q55 0 81 88h42q-65 -185 -201 -185q-43 0 -69 24.5t-30 70.5q-58 -95 -148 -95q-48 0 -77.5 30t-29.5 90q0 27 8 65l68 321h144l-72 -340q-3 -15 -3 -28q0 -41 30 -41q54 0 80 88zM419 561h-32l-60 80
l-157 -80h-44l212 189h21z" />
    <glyph glyph-name="udieresis" unicode="&#xfc;" 
d="M315 500h144l-72 -340q-4 -17 -4 -32q0 -20 9.5 -28.5t31.5 -8.5q55 0 81 88h42q-65 -185 -201 -185q-43 0 -69 24.5t-30 70.5q-58 -95 -148 -95q-48 0 -77.5 30t-29.5 90q0 27 8 65l68 321h144l-72 -340q-3 -15 -3 -28q0 -41 30 -41q54 0 80 88zM136 634q0 25 18 43
t43 18t43 -18t18 -43t-18 -43t-43 -18t-43 17.5t-18 43.5zM316 634q0 25 18 43t43 18t43 -18t18 -43t-18 -43t-43 -18t-43 17.5t-18 43.5z" />
    <glyph glyph-name="yacute" unicode="&#xfd;" 
d="M315 500h144l-99 -464q48 17 77 48.5t49 94.5h42q-14 -47 -34.5 -82t-46 -55.5t-47.5 -31.5t-49 -18l-15 -72q-36 -170 -180 -170q-48 0 -80 25t-32 72q0 99 163 149l12 54q-50 -56 -120 -56q-48 0 -77.5 30t-29.5 90q0 27 8 65l68 321h144l-72 -340q-3 -12 -3 -25
q0 -44 30 -44q52 0 78 82zM99 -139q0 -12 9.5 -22.5t24.5 -10.5q17 0 33 23.5t25 65.5l6 29q-98 -37 -98 -85zM238 561l91 189h105l-121 -189h-75z" />
    <glyph glyph-name="thorn" unicode="&#xfe;" horiz-adv-x="473" 
d="M-92 -250l156 735q12 54 12 93q0 65 -43 122h45q39 -22 63 -41t43.5 -58.5t19.5 -92.5q0 -25 -4 -49q51 46 121 46q122 0 122 -158q0 -44 -6.5 -89t-24.5 -93.5t-44.5 -85.5t-70.5 -61t-100 -24q-67 0 -86 37l-52 -245zM166 81q49 0 82.5 49.5t45.5 107t12 112.5
q0 83 -50 83q-18 0 -37.5 -14t-32.5 -38l-59 -275q8 -25 39 -25z" />
    <glyph glyph-name="ydieresis" unicode="&#xff;" 
d="M315 500h144l-99 -464q48 17 77 48.5t49 94.5h42q-14 -47 -34.5 -82t-46 -55.5t-47.5 -31.5t-49 -18l-15 -72q-36 -170 -180 -170q-48 0 -80 25t-32 72q0 99 163 149l12 54q-50 -56 -120 -56q-48 0 -77.5 30t-29.5 90q0 27 8 65l68 321h144l-72 -340q-3 -12 -3 -25
q0 -44 30 -44q52 0 78 82zM99 -139q0 -12 9.5 -22.5t24.5 -10.5q17 0 33 23.5t25 65.5l6 29q-98 -37 -98 -85zM123 634q0 25 18 43t43 18t43 -18t18 -43t-18 -43t-43 -18q-26 0 -43.5 17.5t-17.5 43.5zM303 634q0 25 18 43t43 18t43 -18t18 -43t-18 -43t-43 -18
q-26 0 -43.5 17.5t-17.5 43.5z" />
    <glyph glyph-name="Aogonek" unicode="&#x104;" horiz-adv-x="668" 
d="M508 5h-70l-7 -5h-40l77 363q-66 30 -134 36q-57 -123 -93.5 -251.5t-36.5 -205.5q0 -35 14 -56q-22 0 -35.5 1t-34.5 6.5t-33 16t-21.5 31.5t-9.5 51q0 67 40.5 179.5t106.5 227.5q-100 -6 -117 -52q4 0 8.5 -10.5t4.5 -20.5q0 -18 -16 -28.5t-40 -10.5q-27 0 -44.5 15
t-17.5 43q0 52 58 87.5t146 35.5q21 0 52 -3q82 130 173.5 212.5t174.5 82.5q45 0 79 -14l-157 -736h-38q2 1 5.5 2.5t5.5 2.5zM477 407l58 272q-84 -45 -180 -237q72 -14 122 -35zM361 -115q0 59 70 115h66q-21 -12 -37 -35.5t-16 -48.5q0 -19 10 -34.5t29 -15.5
q8 0 18.5 4t16.5 7.5t18 12l15 10.5q-2 -24 -2 -31l-15 -14.5t-20 -18t-19.5 -13.5t-26.5 -12.5t-28 -3.5q-38 0 -58.5 24t-20.5 54z" />
    <glyph glyph-name="aogonek" unicode="&#x105;" horiz-adv-x="526" 
d="M336 500h144l-72 -340q-4 -17 -4 -32q0 -43 41 -43q53 0 81 94h42q-47 -132 -140 -174q-19 -9 -37.5 -35t-18.5 -54q0 -19 10 -34.5t29 -15.5q8 0 18.5 4t16.5 7.5t18 12l15 10.5q-2 -24 -2 -31l-15 -14.5t-20 -18t-19.5 -13.5t-26.5 -12.5t-28 -3.5q-38 0 -58.5 24
t-20.5 54q0 54 64 110q-76 8 -84 91q-62 -92 -149 -92q-57 0 -95 39t-38 122q0 53 16.5 112t46.5 113t81 89.5t113 35.5q81 0 81 -51v-7zM275 443q-40 0 -73.5 -49.5t-50 -112t-16.5 -112.5q0 -27 5 -44.5t14 -24t15 -8t16 -1.5q24 0 49.5 23.5t33.5 64.5l48 226
q0 13 -10 25.5t-31 12.5z" />
    <glyph glyph-name="Cacute" unicode="&#x106;" horiz-adv-x="497" 
d="M500 180l23 -10q-25 -63 -77.5 -107t-105 -61.5t-102.5 -17.5q-113 0 -166 57t-53 189q0 58 10.5 123.5t37 137.5t65 128.5t100 93.5t136.5 37q76 0 121.5 -32.5t45.5 -101.5q0 -92 -70 -92q-35 0 -57 26q18 9 32 36.5t14 55.5q0 27 -14.5 44t-46.5 17q-53 0 -102 -74.5
t-77.5 -182.5t-28.5 -210q0 -76 26 -116t94 -40q58 0 109 26.5t86 73.5zM337 811l91 189h105l-121 -189h-75z" />
    <glyph glyph-name="cacute" unicode="&#x107;" horiz-adv-x="384" 
d="M279 356q12 33 12 59q0 41 -28 41q-30 0 -60.5 -50.5t-49 -119t-18.5 -124.5q0 -49 17 -66.5t55 -17.5q54 0 93.5 25.5t83.5 75.5h34q-115 -185 -275 -185q-156 0 -156 159q0 49 14.5 105.5t43.5 115t84 97t127 38.5q111 0 111 -92q0 -35 -15 -54t-38 -19q-17 0 -35 12z
M244 561l91 189h105l-121 -189h-75z" />
    <glyph glyph-name="Ccircumflex" unicode="&#x108;" horiz-adv-x="497" 
d="M500 180l23 -10q-25 -63 -77.5 -107t-105 -61.5t-102.5 -17.5q-113 0 -166 57t-53 189q0 58 10.5 123.5t37 137.5t65 128.5t100 93.5t136.5 37q76 0 121.5 -32.5t45.5 -101.5q0 -92 -70 -92q-35 0 -57 26q18 9 32 36.5t14 55.5q0 27 -14.5 44t-46.5 17q-53 0 -102 -74.5
t-77.5 -182.5t-28.5 -210q0 -76 26 -116t94 -40q58 0 109 26.5t86 73.5zM495 811h-32l-60 80l-157 -80h-44l212 189h21z" />
    <glyph glyph-name="ccircumflex" unicode="&#x109;" horiz-adv-x="384" 
d="M279 356q12 33 12 59q0 41 -28 41q-30 0 -60.5 -50.5t-49 -119t-18.5 -124.5q0 -49 17 -66.5t55 -17.5q54 0 93.5 25.5t83.5 75.5h34q-115 -185 -275 -185q-156 0 -156 159q0 49 14.5 105.5t43.5 115t84 97t127 38.5q111 0 111 -92q0 -35 -15 -54t-38 -19q-17 0 -35 12z
M400 561h-32l-60 80l-157 -80h-44l212 189h21z" />
    <glyph glyph-name="Ccaron" unicode="&#x10c;" horiz-adv-x="497" 
d="M500 180l23 -10q-25 -63 -77.5 -107t-105 -61.5t-102.5 -17.5q-113 0 -166 57t-53 189q0 58 10.5 123.5t37 137.5t65 128.5t100 93.5t136.5 37q76 0 121.5 -32.5t45.5 -101.5q0 -92 -70 -92q-35 0 -57 26q18 9 32 36.5t14 55.5q0 27 -14.5 44t-46.5 17q-53 0 -102 -74.5
t-77.5 -182.5t-28.5 -210q0 -76 26 -116t94 -40q58 0 109 26.5t86 73.5zM292 1000h32l60 -80l157 80h44l-212 -189h-21z" />
    <glyph glyph-name="ccaron" unicode="&#x10d;" horiz-adv-x="384" 
d="M279 356q12 33 12 59q0 41 -28 41q-30 0 -60.5 -50.5t-49 -119t-18.5 -124.5q0 -49 17 -66.5t55 -17.5q54 0 93.5 25.5t83.5 75.5h34q-115 -185 -275 -185q-156 0 -156 159q0 49 14.5 105.5t43.5 115t84 97t127 38.5q111 0 111 -92q0 -35 -15 -54t-38 -19q-17 0 -35 12z
M206 750h32l60 -80l157 80h44l-212 -189h-21z" />
    <glyph glyph-name="Eogonek" unicode="&#x118;" horiz-adv-x="459" 
d="M461 180l23 -10q-13 -39 -36.5 -69t-47 -47.5l-46 -35t-36.5 -42.5t-14 -60q0 -19 10 -34.5t29 -15.5q8 0 18.5 4t16.5 7.5t18 12l15 10.5q-2 -24 -2 -31l-15 -14.5t-20 -18t-19.5 -13.5t-26.5 -12.5t-28 -3.5q-38 0 -58.5 24t-20.5 54q0 59 72 116q-35 -7 -75 -7
q-98 0 -152.5 59.5t-54.5 142.5q0 77 47.5 140t133.5 81q-99 54 -99 152q0 73 60.5 127t161.5 54q78 0 131 -33t53 -101q0 -92 -70 -92q-35 0 -57 26q17 5 30.5 33t13.5 49q0 74 -66 74q-54 0 -88 -36t-34 -87q0 -47 32.5 -91t99.5 -74q-89 -37 -131.5 -90.5t-42.5 -110.5
q0 -55 34.5 -94t82.5 -39q56 0 92.5 23t65.5 73z" />
    <glyph glyph-name="eogonek" unicode="&#x119;" horiz-adv-x="384" 
d="M201 -84q0 -19 10 -34.5t29 -15.5q8 0 18.5 4t16.5 7.5t18 12l15 10.5q-2 -24 -2 -31l-15 -14.5t-20 -18t-19.5 -13.5t-26.5 -12.5t-28 -3.5q-38 0 -58.5 24t-20.5 54q0 56 67 112q-19 -3 -42 -3q-156 0 -156 159q0 38 8 81.5t28.5 93t50 89.5t77.5 66t106 26
q110 0 110 -96q0 -84 -69 -145t-161 -66q-2 -28 -2 -40q0 -49 17 -66.5t55 -17.5q54 0 93.5 25.5t83.5 75.5h34q-28 -48 -62 -84t-60 -53.5l-48.5 -34t-34.5 -38t-12 -53.5zM290 415q0 41 -25 41q-36 0 -70 -62.5t-50 -143.5q58 4 101.5 53.5t43.5 111.5z" />
    <glyph glyph-name="dotlessi" unicode="&#x131;" horiz-adv-x="267" 
d="M68 500h144l-72 -340q-4 -17 -4 -32q0 -20 9.5 -28.5t31.5 -8.5q29 0 54 25t36 63h42q-65 -185 -210 -185q-48 0 -77.5 30t-29.5 90q0 27 8 65z" />
    <glyph glyph-name="Lslash" unicode="&#x141;" horiz-adv-x="392" 
d="M663 -93q-8 -72 -36 -114.5t-68 -42.5q-39 0 -83.5 23.5t-85.5 57l-84 66.5t-93.5 56.5t-99.5 23.5q-15 0 -23 -1l70 319l-65 -39l2 53l76 49l66 311q-66 -28 -103 -83.5t-37 -134.5q0 -23 3 -37.5t7 -21.5t4 -9q-54 0 -80.5 22.5t-26.5 74.5q0 98 112 179t239 81
q14 0 40 -2l-55 -263l116 69l-4 -61l-127 -78l-84 -385q40 -9 100 -42t120.5 -60t115.5 -27q45 0 84 16z" />
    <glyph glyph-name="lslash" unicode="&#x142;" horiz-adv-x="286" 
d="M0 179l23 107l-57 -37v58l71 43l70 330l148 20l-50 -237l118 71l-4 -61q-52 -29 -129 -78l-50 -235q-4 -17 -4 -32q0 -20 9.5 -28.5t31.5 -8.5q29 0 54 25t36 63h42q-65 -185 -210 -185q-48 0 -77.5 30t-29.5 91q0 26 8 64z" />
    <glyph glyph-name="Nacute" unicode="&#x143;" horiz-adv-x="702" 
d="M570 748h144l-159 -748h-121l-85 523l-111 -523h-144l144 679q-66 -27 -102.5 -83.5t-36.5 -134.5q0 -23 3 -37.5t7 -21.5t4 -9q-54 0 -80.5 22.5t-26.5 74.5q0 93 81 176.5t202 83.5q64 0 93 -14l79 -530zM496 811l91 189h105l-121 -189h-75z" />
    <glyph glyph-name="nacute" unicode="&#x144;" 
d="M288 362q0 51 -36 51q-50 0 -78 -92l-68 -321h-144l106 500h144l-11 -52q49 56 117 56q51 0 81 -28t30 -85q0 -44 -24 -138.5t-24 -119.5q0 -42 40 -42q30 0 47 21t37 67h42q-63 -185 -186 -185q-61 0 -89.5 32.5t-28.5 80.5q0 35 22.5 129t22.5 126zM264 561l91 189h105
l-121 -189h-75z" />
    <glyph glyph-name="OE" unicode="&#x152;" horiz-adv-x="846" 
d="M651 419h133l-20 -74h-127q-34 -146 -114 -239h243l-21 -106h-387q-42 -6 -71 -6q-179 0 -179 201q0 50 10.5 111t33.5 124.5t54 115.5t76 85t97 33q28 0 52 -8q-66 -40 -120.5 -192t-54.5 -273q0 -116 58 -116q49 0 98 71t80 177.5t31 205.5q0 93 -26.5 134t-101.5 41
q-119 0 -203.5 -71t-84.5 -186q0 -23 5 -39l5 -15q-101 0 -101 84q0 105 122.5 189t280.5 84q63 0 110 -19q54 19 129 19q17 0 74.5 -6t91.5 -6q53 0 90 12q-2 -5 -7.5 -26t-10 -30.5t-14 -25t-25.5 -24.5t-38 -14q-44 0 -113.5 16.5t-94.5 19.5q45 -64 45 -172
q0 -32 -5 -75z" />
    <glyph glyph-name="oe" unicode="&#x153;" horiz-adv-x="663" 
d="M256 510q89 0 112 -85q62 84 160 84q128 0 128 -104q0 -84 -71.5 -138.5t-154.5 -65.5q-3 -24 -3 -43q0 -45 24 -65.5t58 -20.5q39 0 91 39.5t77 92.5h45q-49 -88 -121 -146t-161 -58q-99 0 -135 87q-66 -93 -159 -93q-81 0 -117 38t-36 126q0 174 75.5 263t187.5 89z
M193 91q29 0 52 29t36 70.5t19 93.5q-21 0 -31.5 13t-10.5 32q0 22 12 42.5t32 27.5q-5 52 -42 52q-33 0 -60 -32.5t-42.5 -80t-23.5 -93t-8 -78.5q0 -42 17.5 -59t49.5 -17zM596 400q0 56 -35 56q-26 0 -51.5 -33t-43 -78t-28.5 -96q66 1 111.5 48t46.5 103z" />
    <glyph glyph-name="Sacute" unicode="&#x15a;" horiz-adv-x="570" 
d="M544 630q0 -44 -22.5 -72.5t-59.5 -28.5q-28 0 -46 21q20 12 32.5 36.5t12.5 49.5q0 29 -18 48t-56 19q-42 0 -67 -23.5t-25 -67.5q0 -34 16.5 -64.5t41.5 -52l54.5 -49t54.5 -54.5t41.5 -69.5t16.5 -93.5q0 -119 -82 -184.5t-199 -65.5q-93 0 -152.5 43t-59.5 129
q0 76 45 120t102 44q33 0 59.5 -15.5t28.5 -50.5q-47 0 -82 -23t-35 -71q0 -40 25 -68t71 -28q51 0 83.5 35.5t32.5 97.5q0 47 -21 90t-51.5 76l-60.5 64.5t-51 70t-21 78.5q0 77 66.5 128t164.5 51q18 0 35 -1.5t41.5 -9t42 -19.5t30 -35.5t12.5 -54.5zM358 811l91 189h105
l-121 -189h-75z" />
    <glyph glyph-name="sacute" unicode="&#x15b;" horiz-adv-x="382" 
d="M382 179h42q-62 -72 -153 -125q-57 -60 -157 -60q-71 0 -108.5 38.5t-37.5 89.5q0 33 15.5 57.5t37.5 35.5q67 118 123 296l148 20q5 -110 10.5 -189.5t8.5 -114t3 -60.5q0 -22 -4 -38q43 25 72 50zM92 179q0 -19 -12.5 -34t-31.5 -15q-20 0 -27 13q0 -36 14.5 -53
t46.5 -17q37 0 62 22t25 71q0 25 -7 91.5t-12 145.5q-24 -79 -81 -189q23 -11 23 -35zM213 561l91 189h105l-121 -189h-75z" />
    <glyph glyph-name="Scaron" unicode="&#x160;" horiz-adv-x="570" 
d="M544 630q0 -44 -22.5 -72.5t-59.5 -28.5q-28 0 -46 21q20 12 32.5 36.5t12.5 49.5q0 29 -18 48t-56 19q-42 0 -67 -23.5t-25 -67.5q0 -34 16.5 -64.5t41.5 -52l54.5 -49t54.5 -54.5t41.5 -69.5t16.5 -93.5q0 -119 -82 -184.5t-199 -65.5q-93 0 -152.5 43t-59.5 129
q0 76 45 120t102 44q33 0 59.5 -15.5t28.5 -50.5q-47 0 -82 -23t-35 -71q0 -40 25 -68t71 -28q51 0 83.5 35.5t32.5 97.5q0 47 -21 90t-51.5 76l-60.5 64.5t-51 70t-21 78.5q0 77 66.5 128t164.5 51q18 0 35 -1.5t41.5 -9t42 -19.5t30 -35.5t12.5 -54.5zM298 1000h32l60 -80
l157 80h44l-212 -189h-21z" />
    <glyph glyph-name="scaron" unicode="&#x161;" horiz-adv-x="369" 
d="M382 179h42q-62 -72 -153 -125q-57 -60 -157 -60q-71 0 -108.5 38.5t-37.5 89.5q0 33 15.5 57.5t37.5 35.5q67 118 123 296l148 20q5 -110 10.5 -189.5t8.5 -114t3 -60.5q0 -22 -4 -38q43 25 72 50zM92 179q0 -19 -12.5 -34t-31.5 -15q-20 0 -27 13q0 -36 14.5 -53
t46.5 -17q37 0 62 22t25 71q0 25 -7 91.5t-12 145.5q-24 -79 -81 -189q23 -11 23 -35zM138 750h32l60 -80l157 80h44l-212 -189h-21z" />
    <glyph glyph-name="Ydieresis" unicode="&#x178;" horiz-adv-x="620" 
d="M438 0h-160l66 308l-96 375q-71 -26 -110 -83t-39 -139q0 -23 3 -37.5t7 -21.5t4 -9q-54 0 -80.5 22.5t-26.5 74.5q0 98 112 179t239 81q14 0 40 -2l87 -358l148 355h66l-194 -437zM379 884q0 25 18 43t43 18t43 -18t18 -43t-18 -43t-43 -18q-26 0 -43.5 17.5t-17.5 43.5
zM559 884q0 25 18 43t43 18t43 -18t18 -43t-18 -43t-43 -18q-26 0 -43.5 17.5t-17.5 43.5z" />
    <glyph glyph-name="Zacute" unicode="&#x179;" horiz-adv-x="542" 
d="M407 85q-18 0 -18 31q0 29 18.5 43.5t41.5 14.5q26 0 38.5 -17t12.5 -41q0 -42 -36 -79t-92 -37h-361l350 696q-9 0 -40 1t-50 1q-92 0 -92 -22q17 0 17 -32q0 -30 -18.5 -43.5t-40.5 -13.5q-26 0 -38.5 17.5t-12.5 41.5q0 41 33 72.5t90 31.5h343l-345 -685
q12 0 45.5 -1t50.5 -1q88 0 104 22zM363 811l91 189h105l-121 -189h-75z" />
    <glyph glyph-name="zacute" unicode="&#x17a;" horiz-adv-x="428" 
d="M306 91q-19 1 -19 21q0 15 15 29t41 14q22 0 33 -13.5t11 -34.5q0 -38 -34 -72.5t-88 -34.5h-265l255 446h-56q-55 0 -55 -16l6 -4q5 -4 5 -18q0 -26 -16 -39.5t-38 -13.5q-19 0 -32.5 11.5t-13.5 32.5q0 35 33.5 68t82.5 33h257l-245 -423q3 0 31.5 -3t44.5 -3
q43 0 47 20zM233 561l91 189h105l-121 -189h-75z" />
    <glyph glyph-name="Zdotaccent" unicode="&#x17b;" horiz-adv-x="530" 
d="M421 884q0 -25 -18 -43t-43 -18q-26 0 -43.5 17.5t-17.5 43.5q0 25 18 43t43 18t43 -18t18 -43zM407 85q-18 0 -18 31q0 29 18.5 43.5t41.5 14.5q26 0 38.5 -17t12.5 -41q0 -42 -36 -79t-92 -37h-361l350 696q-9 0 -40 1t-50 1q-92 0 -92 -22q17 0 17 -32
q0 -30 -18.5 -43.5t-40.5 -13.5q-26 0 -38.5 17.5t-12.5 41.5q0 41 33 72.5t90 31.5h343l-345 -685q12 0 45.5 -1t50.5 -1q88 0 104 22z" />
    <glyph glyph-name="zdotaccent" unicode="&#x17c;" horiz-adv-x="428" 
d="M341 634q0 -25 -18 -43t-43 -18q-26 0 -43.5 17.5t-17.5 43.5q0 25 18 43t43 18t43 -18t18 -43zM306 91q-19 1 -19 21q0 15 15 29t41 14q22 0 33 -13.5t11 -34.5q0 -38 -34 -72.5t-88 -34.5h-265l255 446h-56q-55 0 -55 -16l6 -4q5 -4 5 -18q0 -26 -16 -39.5t-38 -13.5
q-19 0 -32.5 11.5t-13.5 32.5q0 35 33.5 68t82.5 33h257l-245 -423q3 0 31.5 -3t44.5 -3q43 0 47 20z" />
    <glyph glyph-name="Zcaron" unicode="&#x17d;" horiz-adv-x="542" 
d="M407 85q-18 0 -18 31q0 29 18.5 43.5t41.5 14.5q26 0 38.5 -17t12.5 -41q0 -42 -36 -79t-92 -37h-361l350 696q-9 0 -40 1t-50 1q-92 0 -92 -22q17 0 17 -32q0 -30 -18.5 -43.5t-40.5 -13.5q-26 0 -38.5 17.5t-12.5 41.5q0 41 33 72.5t90 31.5h343l-345 -685
q12 0 45.5 -1t50.5 -1q88 0 104 22zM304 1000h32l60 -80l157 80h44l-212 -189h-21z" />
    <glyph glyph-name="zcaron" unicode="&#x17e;" horiz-adv-x="428" 
d="M306 91q-19 1 -19 21q0 15 15 29t41 14q22 0 33 -13.5t11 -34.5q0 -38 -34 -72.5t-88 -34.5h-265l255 446h-56q-55 0 -55 -16l6 -4q5 -4 5 -18q0 -26 -16 -39.5t-38 -13.5q-19 0 -32.5 11.5t-13.5 32.5q0 35 33.5 68t82.5 33h257l-245 -423q3 0 31.5 -3t44.5 -3
q43 0 47 20zM187 750h32l60 -80l157 80h44l-212 -189h-21z" />
    <glyph glyph-name="florin" unicode="&#x192;" horiz-adv-x="271" 
d="M209 460l-114 -540q-36 -170 -179 -170q-48 0 -83 30.5t-35 77.5q0 33 12.5 57.5t39 41.5t52 27.5t68.5 23.5l96 452h-60l8 40h60l17 79q36 170 182 170q48 0 83 -30.5t35 -77.5q0 -23 -3 -41h-47q2 20 2 27q0 16 -11 25t-27 9q-21 0 -41 -18.5t-29 -63.5l-17 -79h74
l-8 -40h-75zM-147 -128q0 -11 12 -22t28 -11q40 0 57 78l13 58q-53 -18 -81.5 -41.5t-28.5 -61.5z" />
    <glyph glyph-name="circumflex" unicode="&#x2c6;" horiz-adv-x="293" 
d="M293 561h-32l-60 80l-157 -80h-44l212 189h21z" />
    <glyph glyph-name="caron" unicode="&#x2c7;" horiz-adv-x="294" 
d="M100 750h32l60 -80l157 80h44l-212 -189h-21z" />
    <glyph glyph-name="ring" unicode="&#x2da;" horiz-adv-x="156" 
d="M85 713q35 0 53.5 -21.5t18.5 -55.5q0 -36 -21.5 -60t-65.5 -24q-31 0 -50.5 20.5t-19.5 49.5q0 32 22 61.5t63 29.5zM120 633q0 47 -33 47q-24 0 -35.5 -17t-11.5 -39q0 -37 34 -37q46 0 46 46z" />
    <glyph glyph-name="ogonek" unicode="&#x2db;" horiz-adv-x="291" 
d="M122 5h70q-24 -9 -44 -35t-20 -54q0 -19 10 -34.5t29 -15.5q8 0 18.5 4t16.5 7.5t18 12l15 10.5q-2 -24 -2 -31l-15 -14.5t-20 -18t-19.5 -13.5t-26.5 -12.5t-28 -3.5q-38 0 -58.5 24t-20.5 54q0 60 77 120z" />
    <glyph glyph-name="tilde" unicode="&#x2dc;" horiz-adv-x="403" 
d="M433 670l6 -1q-9 -37 -57.5 -68.5t-103.5 -31.5q-34 0 -88 18.5t-80 18.5q-38 0 -66 -26l-6 2q49 98 167 98q38 0 88 -16.5t77 -16.5q42 0 63 23z" />
    <glyph glyph-name="endash" unicode="&#x2013;" horiz-adv-x="352" 
d="M297 301l-17 -79h-261l18 79h260z" />
    <glyph glyph-name="emdash" unicode="&#x2014;" horiz-adv-x="444" 
d="M387 301l-17 -79h-351l18 79h350z" />
    <glyph glyph-name="quoteleft" unicode="&#x2018;" horiz-adv-x="305" 
d="M221 678q0 -37 -44 -63q-12 -7 -12 -17l49 -70q0 -9 -9 -14q-56 36 -88.5 82t-32.5 86q0 29 17 47.5t47 18.5q31 0 52 -20.5t21 -49.5z" />
    <glyph glyph-name="quoteright" unicode="&#x2019;" horiz-adv-x="305" 
d="M84 678q0 29 21 49.5t52 20.5q30 0 47 -18.5t17 -47.5q0 -40 -32.5 -86t-88.5 -82q-9 5 -9 14l49 70q0 10 -12 17q-44 26 -44 63z" />
    <glyph glyph-name="quotesinglbase" unicode="&#x201a;" horiz-adv-x="283" 
d="M76 76q0 29 21 49.5t52 20.5q30 0 47 -18.5t17 -47.5q0 -40 -32.5 -86t-88.5 -82q-9 5 -9 14l49 70q0 10 -12 17q-44 26 -44 63z" />
    <glyph glyph-name="quotedblleft" unicode="&#x201c;" horiz-adv-x="509" 
d="M433 678q0 -37 -44 -63q-12 -7 -12 -17l49 -70q0 -9 -9 -14q-56 36 -88.5 82t-32.5 86q0 29 17 47.5t47 18.5q31 0 52 -20.5t21 -49.5zM213 678q0 -37 -44 -63q-12 -7 -12 -17l49 -70q0 -9 -9 -14q-56 36 -88.5 82t-32.5 86q0 29 17 47.5t47 18.5q31 0 52 -20.5t21 -49.5
z" />
    <glyph glyph-name="quotedblright" unicode="&#x201d;" horiz-adv-x="509" 
d="M76 678q0 29 21 49.5t52 20.5q30 0 47 -18.5t17 -47.5q0 -40 -32.5 -86t-88.5 -82q-9 5 -9 14l49 70q0 10 -12 17q-44 26 -44 63zM296 678q0 29 21 49.5t52 20.5q30 0 47 -18.5t17 -47.5q0 -40 -32.5 -86t-88.5 -82q-9 5 -9 14l49 70q0 10 -12 17q-44 26 -44 63z" />
    <glyph glyph-name="quotedblbase" unicode="&#x201e;" horiz-adv-x="509" 
d="M76 76q0 29 21 49.5t52 20.5q30 0 47 -18.5t17 -47.5q0 -40 -32.5 -86t-88.5 -82q-9 5 -9 14l49 70q0 10 -12 17q-44 26 -44 63zM296 76q0 29 21 49.5t52 20.5q30 0 47 -18.5t17 -47.5q0 -40 -32.5 -86t-88.5 -82q-9 5 -9 14l49 70q0 10 -12 17q-44 26 -44 63z" />
    <glyph glyph-name="dagger" unicode="&#x2020;" horiz-adv-x="495" 
d="M378 750l-69 -322h151l-23 -112h-151l-120 -566h-72l120 566h-146l24 112h145l69 322h72z" />
    <glyph glyph-name="daggerdbl" unicode="&#x2021;" horiz-adv-x="495" 
d="M378 750l-69 -322h151l-23 -112h-151l-22 -103h152l-23 -112h-153l-74 -351h-72l74 351h-144l24 112h144l22 103h-146l24 112h145l69 322h72z" />
    <glyph glyph-name="bullet" unicode="&#x2022;" horiz-adv-x="434" 
d="M120 267q0 40 28 68.5t68 28.5t68.5 -28.5t28.5 -68.5t-28.5 -68t-68.5 -28t-68 28t-28 68z" />
    <glyph glyph-name="ellipsis" unicode="&#x2026;" horiz-adv-x="702" 
d="M31 75q0 33 23 56.5t56 23.5t56.5 -23.5t23.5 -56.5t-23.5 -56t-56.5 -23t-56 23t-23 56zM266 75q0 33 23 56.5t56 23.5t56.5 -23.5t23.5 -56.5t-23.5 -56t-56.5 -23t-56 23t-23 56zM511 75q0 33 23 56.5t56 23.5t56.5 -23.5t23.5 -56.5t-23.5 -56t-56.5 -23t-56 23
t-23 56z" />
    <glyph glyph-name="perthousand" unicode="&#x2030;" horiz-adv-x="911" 
d="M562 750l-386 -750h-72l386 750h72zM252 702q82 0 82 -113q0 -74 -41 -144.5t-107 -70.5q-55 0 -75.5 28t-20.5 86q0 91 44.5 152.5t117.5 61.5zM164 519q-2 -24 -2 -43q0 -65 27 -65q38 0 61.5 57t23.5 136q0 63 -25 63t-52.5 -40.5t-32.5 -107.5zM500 328
q44 0 68 -29.5t24 -83.5q0 -34 -9 -69.5t-26.5 -69.5t-49.5 -55t-73 -21q-55 0 -75.5 28t-20.5 86q0 91 44.5 152.5t117.5 61.5zM407 145q-2 -24 -2 -43q0 -65 27 -65q38 0 60 53.5t22 132.5q0 68 -28 68q-24 0 -48.5 -39.5t-30.5 -106.5zM788 328q44 0 68 -29.5t24 -83.5
q0 -34 -9 -69.5t-26.5 -69.5t-49.5 -55t-73 -21q-55 0 -75.5 28t-20.5 86q0 91 44.5 152.5t117.5 61.5zM695 145q-2 -24 -2 -43q0 -65 27 -65q38 0 60 53.5t22 132.5q0 68 -28 68q-24 0 -48.5 -39.5t-30.5 -106.5z" />
    <glyph glyph-name="guilsinglleft" unicode="&#x2039;" horiz-adv-x="359" 
d="M336 449l-10 -55l-241 -140l194 -116l-12 -57l-247 157l9 41z" />
    <glyph glyph-name="guilsinglright" unicode="&#x203a;" horiz-adv-x="344" 
d="M75 394l9 55l246 -170l-11 -54l-304 -144l14 57l240 116z" />
    <glyph glyph-name="Euro" unicode="&#x20ac;" horiz-adv-x="573" 
d="M242 334h196l-14 -50h-185v-13q0 -103 27 -145t105 -42q58 0 91 8.5t63 31.5l2 -29q-43 -56 -97 -78.5t-129 -22.5q-42 0 -78 11.5t-69 38.5t-52.5 79.5t-19.5 125.5v35h-85l14 50h74q2 21 8 65h-71l14 50h67q31 134 108 217.5t208 83.5q76 0 125 -33t49 -101
q0 -92 -70 -92q-35 0 -57 26q17 5 30.5 33t13.5 49q0 13 -3 26.5t-20 29t-46 15.5q-60 0 -107.5 -72.5t-72.5 -181.5h202l-14 -50h-198q-6 -32 -9 -65z" />
    <glyph glyph-name="trademark" unicode="&#x2122;" horiz-adv-x="379" 
d="M333 433h-43l27 156l-63 -156h-41v131l-40 -131h-24l68 210l41 6v-169l66 174h47zM107 628l-42 -195h-43l43 199q-60 -2 -60 -61q0 -8 4 -20q-32 0 -32 29q0 33 25 55.5t77 22.5q4 0 31 -2.5t44 -2.5q26 0 37 5q-7 -39 -25 -39q-9 0 -31 4t-28 5z" />
    <glyph glyph-name="minus" unicode="&#x2212;" horiz-adv-x="444" 
d="M387 301l-17 -79h-351l18 79h350z" />
    <glyph glyph-name="A.salt" horiz-adv-x="590" 
d="M459 0h-144l77 366h-158q-48 -114 -77 -231.5t-29 -191.5q0 -17 2 -28.5t4.5 -15l5 -7t2.5 -5.5q-29 2 -41.5 3t-34.5 7.5t-31.5 17.5t-18 32t-8.5 52q0 71 50 197t124 249.5t172 214.5t182 91q42 0 80 -15zM256 418h147l56 264q-102 -45 -203 -264z" />
    <glyph glyph-name="B.salt" horiz-adv-x="633" 
d="M230 636l148 20l-47 -222h6q60 0 101 52t41 116q0 102 -126 102q-107 0 -180.5 -66t-73.5 -177q0 -23 3 -37.5t7 -21.5t4 -9q-107 0 -107 92q0 68 51.5 129.5t135 98.5t173.5 37q103 0 160.5 -47t57.5 -114q0 -44 -26.5 -86.5t-73.5 -70.5q58 -11 86 -51t28 -98
q0 -68 -32 -140t-87.5 -121.5t-115.5 -49.5q-64 0 -119 58l-6 -30h-144zM319 64q52 0 91 70t39 146q0 106 -84 106q-18 0 -45 -3l-62 -290q28 -29 61 -29z" />
    <glyph glyph-name="E.salt" horiz-adv-x="554" 
d="M322 419h154l-20 -74h-150l-53 -244h224l-20 -101h-369l144 668q-63 -2 -96.5 -48t-33.5 -159q0 -23 3 -37.5t7 -21.5t4 -9q-54 0 -80.5 22.5t-26.5 74.5t19 97t58 82.5t107 59t157 21.5q17 0 74.5 -6t91.5 -6q53 0 90 12q-2 -5 -7.5 -26t-10 -30.5t-14 -25t-25.5 -24.5
t-38 -14q-53 0 -140 19z" />
    <glyph glyph-name="N.salt" horiz-adv-x="669" 
d="M397 748l-12 -55q54 57 125 57q54 0 95 -36.5t41 -106.5q0 -44 -50.5 -246.5t-50.5 -227.5q0 -42 40 -42q30 0 47 21t37 67h42q-63 -185 -186 -185q-61 0 -89.5 32.5t-28.5 80.5q0 35 49 241t49 237q0 74 -61 74q-26 0 -51.5 -26.5t-32.5 -59.5l-122 -573h-157l144 673
q-126 -61 -126 -212q0 -23 3 -37.5t7 -21.5t4 -9q-54 0 -80.5 22.5t-26.5 74.5q0 98 112 179t239 81q14 0 40 -2z" />
    <glyph glyph-name="a.end" horiz-adv-x="467" 
d="M336 500h144l-72 -340q-4 -17 -4 -32q0 -20 9.5 -28.5t31.5 -8.5q13 0 22 4q-22 -57 -42 -79t-58 -22q-40 0 -66 24.5t-32 68.5q-61 -93 -149 -93q-57 0 -95 39t-38 122q0 53 16.5 112t46.5 113t81 89.5t113 35.5q81 0 81 -51v-7zM275 443q-40 0 -73.5 -49.5t-50 -112
t-16.5 -112.5q0 -27 5 -44.5t14 -24t15 -8t16 -1.5q24 0 49.5 23.5t33.5 64.5l48 226q0 13 -10 25.5t-31 12.5z" />
    <glyph glyph-name="a_x.end" horiz-adv-x="884" 
d="M336 500h144l-72 -340q-3 -14 -3 -25q0 -44 43 -44q38 0 82.5 27t77.5 67l-58 315h141l39 -216q95 103 95 159q0 8 -1 12q-12 -2 -17 -2q-47 0 -47 56q0 22 16 34.5t40 12.5q32 0 50 -25t18 -64q0 -48 -34 -103t-109 -135l9 -50q9 -50 20.5 -69t42.5 -19q20 0 32 6
q-4 -50 -35 -76.5t-75 -26.5q-47 0 -72.5 31t-43.5 103q-106 -134 -235 -134q-42 0 -74.5 25.5t-39.5 68.5q-62 -94 -150 -94q-57 0 -95 39t-38 122q0 53 16.5 112t46.5 113t81 89.5t113 35.5q81 0 81 -51v-7zM275 443q-40 0 -73.5 -49.5t-50 -112t-16.5 -112.5
q0 -27 5 -44.5t14 -24t15 -8t16 -1.5q24 0 49.5 23.5t33.5 64.5l48 226q0 13 -10 25.5t-31 12.5z" />
    <glyph glyph-name="aacute.end" horiz-adv-x="461" 
d="M330 500h144l-72 -340q-4 -17 -4 -32q0 -20 9.5 -28.5t31.5 -8.5q13 0 22 4q-22 -57 -42 -79t-58 -22q-40 0 -66 24.5t-32 68.5q-61 -93 -149 -93q-57 0 -95 39t-38 122q0 53 16.5 112t46.5 113t81 89.5t113 35.5q81 0 81 -51v-7zM269 443q-40 0 -73.5 -49.5t-50 -112
t-16.5 -112.5q0 -27 5 -44.5t14 -24t15 -8t16 -1.5q24 0 49.5 23.5t33.5 64.5l48 226q0 13 -10 25.5t-31 12.5zM248 561l91 189h105l-121 -189h-75z" />
    <glyph glyph-name="b_s.end" horiz-adv-x="731" 
d="M0 179l107 501l148 20l-48 -225q46 28 82 28q110 0 117 -150q70 11 155 158l148 20q5 -110 10.5 -189.5t8.5 -114t3 -60.5q0 -89 -52 -131t-124 -42q-139 0 -139 133q0 42 22 68.5t50 26.5q52 0 52 -42q0 -18 -14.5 -31.5t-33.5 -13.5q-20 0 -27 13q0 -75 58 -75
q34 0 48.5 20.5t14.5 72.5q0 24 -8 98t-14 174q-70 -105 -158 -135q-4 -50 -20 -100t-46 -99t-84 -79.5t-123 -30.5q-68 0 -104 33.5t-36 94.5q0 28 7 57zM288 338q0 25 13 41q-12 53 -48 53q-44 0 -59 -18l-55 -254q-3 -12 -3 -23q0 -46 53 -46q41 0 74 64.5t41 142.5
q-16 10 -16 40z" />
    <glyph glyph-name="c.end" horiz-adv-x="341" 
d="M272 356q12 32 12 59q0 41 -27 41q-45 0 -87 -102.5t-42 -183.5q0 -83 60 -83q54 0 120 55q-27 -148 -173 -148q-155 0 -155 159q0 49 14.5 105.5t43.5 115t84 97t127 38.5q111 0 111 -93q0 -36 -15.5 -54t-37.5 -18q-19 0 -35 12z" />
    <glyph glyph-name="circunflex" horiz-adv-x="293" 
d="M293 561h-32l-60 80l-157 -80h-44l212 189h21z" />
    <glyph glyph-name="d.end" horiz-adv-x="476" 
d="M522 700l-115 -540q-4 -20 -4 -29q0 -40 41 -40q20 0 32 6q-4 -50 -35 -76.5t-75 -26.5q-87 0 -104 83q-58 -83 -142 -83q-57 0 -95 39t-38 122q0 53 16.5 112t46.5 113t81 89.5t113 35.5q81 0 81 -51v-4l49 230zM263 163l53 245q-6 35 -41 35q-40 0 -73.5 -49.5
t-50 -112t-16.5 -112.5q0 -27 5 -44.5t14 -24t15 -8t16 -1.5q23 0 46.5 19t31.5 53z" />
    <glyph glyph-name="dotlessi.end" horiz-adv-x="209" 
d="M68 500h144l-72 -340q-4 -17 -4 -32q0 -20 9.5 -28.5t31.5 -8.5q20 0 32 6q-4 -50 -35 -76.5t-75 -26.5q-48 0 -77.5 30t-29.5 90q0 27 8 65z" />
    <glyph glyph-name="e.end" horiz-adv-x="366" 
d="M134 172q0 -83 62 -83q57 0 118 53q-27 -148 -173 -148q-155 0 -155 159q0 38 8 81.5t28.5 93t50 89.5t77.5 66t106 26q110 0 110 -96q0 -85 -68.5 -145.5t-161.5 -65.5q-2 -20 -2 -30zM289 415q0 41 -25 41q-35 0 -69.5 -63.5t-51.5 -142.5q58 3 102 52.5t44 112.5z" />
    <glyph glyph-name="e_x.end" horiz-adv-x="747" 
d="M413 500h141l39 -216q95 103 95 159q0 8 -1 12q-12 -2 -18 -2q-24 0 -35 15.5t-11 36.5q0 25 15 38t39 13q34 0 52 -24.5t18 -62.5q0 -48 -33 -103t-110 -138l9 -49q9 -50 20.5 -69t42.5 -19q20 0 32 6q-4 -50 -35 -76.5t-75 -26.5q-47 0 -73 32t-44 107
q-60 -63 -146.5 -101t-169.5 -38q-80 0 -129 39t-49 124q0 36 8 79t28.5 92t50 88.5t77.5 66t106 26.5q110 0 110 -96q0 -85 -69 -145.5t-162 -65.5q-1 -9 -1 -27q0 -99 100 -99q57 0 122.5 30t112.5 84zM290 415q0 41 -25 41q-36 0 -70 -64t-51 -142q58 3 102 52.5
t44 112.5z" />
    <glyph glyph-name="eacute.end" horiz-adv-x="367" 
d="M135 172q0 -83 62 -83q57 0 118 53q-27 -148 -173 -148q-155 0 -155 159q0 38 8 81.5t28.5 93t50 89.5t77.5 66t106 26q110 0 110 -96q0 -85 -68.5 -145.5t-161.5 -65.5q-2 -20 -2 -30zM208 561l91 189h105l-121 -189h-75zM290 415q0 41 -25 41q-35 0 -69.5 -63.5
t-51.5 -142.5q58 3 102 52.5t44 112.5z" />
    <glyph glyph-name="fi.end" horiz-adv-x="479" 
d="M-152 -121q0 -22 14 -31t27 -9q17 0 33.5 19t24.5 59l12 58q-50 -16 -80.5 -41t-30.5 -55zM411 553q-60 0 -60 54q0 18 9.5 33.5t24.5 15.5q7 0 8 -1q-2 40 -55 40q-82 0 -106 -113l-17 -82h80l-8 -40h-80l-114 -540q-20 -94 -69 -132t-107 -38q-55 0 -89.5 30.5
t-34.5 81.5q0 32 13.5 56t42 41t53 27t64.5 22l111 526q46 215 234 215q179 0 179 -115q0 -42 -22.5 -61.5t-56.5 -19.5zM335 500h144l-72 -340q-4 -17 -4 -32q0 -20 9.5 -28.5t31.5 -8.5q20 0 32 6q-4 -50 -35 -76.5t-75 -26.5q-48 0 -77.5 30t-29.5 90q0 27 8 65z" />
    <glyph glyph-name="fl.end" horiz-adv-x="490" 
d="M-154 -128q0 -11 12 -22t28 -11q18 0 34.5 18.5t24.5 59.5l12 58q-53 -18 -82 -41.5t-29 -61.5zM531 680l-110 -520q-4 -17 -4 -32q0 -20 9.5 -28.5t31.5 -8.5q20 0 32 6q-4 -50 -35 -76.5t-75 -26.5q-48 0 -77.5 30t-29.5 90q0 27 8 65l104 491q-38 16 -82 16
q-51 0 -68 -79l-22 -107h93l-8 -40h-93l-114 -540q-36 -170 -182 -170q-48 0 -83 30.5t-35 77.5q0 62 42.5 92.5t130.5 57.5l120 571q36 170 182 170q42 0 91 -11t83 -23t91 -35z" />
    <glyph glyph-name="f_u.end" horiz-adv-x="724" 
d="M212 500h267l-72 -340q-3 -12 -3 -25q0 -44 30 -44q54 0 80 88l68 321h144l-72 -340q-4 -17 -4 -32q0 -20 9.5 -28.5t31.5 -8.5q15 0 33 6q-4 -51 -35.5 -77t-75.5 -26q-41 0 -67 25.5t-31 69.5q-58 -95 -149 -95q-48 0 -77.5 30t-29.5 90q0 27 8 65l59 281h-122
l-115 -540q-36 -170 -179 -170q-48 0 -83 30.5t-35 77.5q0 33 12.5 57.5t39 41.5t52 27.5t68.5 23.5l121 571q36 170 182 170q48 0 83 -30.5t35 -77.5q0 -23 -3 -41h-47q2 20 2 27q0 16 -11 25t-27 9q-21 0 -41 -18.5t-29 -63.5zM-153 -128q0 -11 12 -22t28 -11q40 0 57 78
l13 58q-53 -18 -81.5 -41.5t-28.5 -61.5z" />
    <glyph glyph-name="g.end" horiz-adv-x="480" 
d="M325 452l10 48h145l-122 -580q-36 -170 -182 -170q-48 0 -83 30.5t-35 77.5q0 63 43 93.5t130 56.5l9 42q-52 -56 -120 -56q-57 0 -95 39t-38 122q0 53 16.5 112t46.5 113t81 89.5t113 35.5q81 0 81 -53zM275 443q-40 0 -73.5 -49.5t-50 -112t-16.5 -112.5q0 -27 5 -44.5
t14 -24t15 -8t16 -1.5q23 0 47.5 20t32.5 55l51 242q-5 35 -41 35zM113 -128q0 -11 12 -22t28 -11q42 0 59 78l12 59q-111 -37 -111 -104z" />
    <glyph glyph-name="h.end" horiz-adv-x="453" 
d="M287 362q0 51 -36 51q-24 0 -43.5 -22t-31.5 -58l-71 -333h-144l145 680l148 20l-54 -251q50 55 117 55q51 0 81 -28t30 -85q0 -44 -24 -138.5t-24 -119.5q0 -42 40 -42q24 0 33 6q-6 -51 -36.5 -77t-73.5 -26q-53 0 -77 32t-24 81q0 35 22.5 129t22.5 126z" />
    <glyph glyph-name="i.end" horiz-adv-x="209" 
d="M88 633q0 33 23 56.5t56 23.5t56.5 -23.5t23.5 -56.5t-23.5 -56t-56.5 -23t-56 23t-23 56zM68 500h144l-72 -340q-4 -17 -4 -32q0 -20 9.5 -28.5t31.5 -8.5q20 0 32 6q-4 -50 -35 -76.5t-75 -26.5q-48 0 -77.5 30t-29.5 90q0 27 8 65z" />
    <glyph glyph-name="ij.end" horiz-adv-x="480" 
d="M231 8l104 492h145l-122 -580q-36 -170 -182 -170q-48 0 -83 30.5t-35 77.5q0 63 43 93.5t130 56.5zM68 500h144l-72 -340q-4 -17 -4 -32q0 -20 9.5 -28.5t31.5 -8.5q20 0 32 6q-4 -50 -35 -76.5t-75 -26.5q-48 0 -77.5 30t-29.5 90q0 27 8 65zM88 633q0 33 23 56.5
t56 23.5t56.5 -23.5t23.5 -56.5t-23.5 -56t-56.5 -23t-56 23t-23 56zM351 634q0 33 23 56.5t56 23.5t56.5 -23.5t23.5 -56.5t-23.5 -56t-56.5 -23t-56 23t-23 56zM113 -128q0 -11 12 -22t28 -11q42 0 59 78l12 59q-111 -37 -111 -104z" />
    <glyph glyph-name="i_x.end" horiz-adv-x="616" 
d="M68 500h144l-72 -340q-4 -17 -4 -32q0 -36 44 -36q38 0 82.5 26.5t76.5 67.5l-57 314h141l39 -216q95 103 95 159q0 8 -1 12q-12 -2 -17 -2q-47 0 -47 56q0 22 16 34.5t40 12.5q32 0 50 -25t18 -64q0 -48 -34 -103t-109 -135l9 -50q9 -50 20.5 -69t42.5 -19q20 0 32 6
q-4 -50 -35 -76.5t-75 -26.5q-47 0 -73 31.5t-43 105.5q-53 -59 -120.5 -98t-132.5 -39q-48 0 -77 30t-29 89q0 26 8 66zM88 633q0 33 23 56.5t56 23.5t56.5 -23.5t23.5 -56.5t-23.5 -56t-56.5 -23t-56 23t-23 56z" />
    <glyph glyph-name="iacute.end" horiz-adv-x="209" 
d="M68 500h144l-72 -340q-4 -17 -4 -32q0 -20 9.5 -28.5t31.5 -8.5q20 0 32 6q-4 -50 -35 -76.5t-75 -26.5q-48 0 -77.5 30t-29.5 90q0 27 8 65zM111 561l91 189h105l-121 -189h-75z" />
    <glyph glyph-name="j.end" horiz-adv-x="213" 
d="M-35 8l103 492h145l-122 -580q-36 -170 -182 -170q-48 0 -83 30.5t-35 77.5q0 63 43 93.5t131 56.5zM84 634q0 33 23 56.5t56 23.5t56.5 -23.5t23.5 -56.5t-23.5 -56t-56.5 -23t-56 23t-23 56zM-154 -128q0 -11 12 -22t28 -11q42 0 59 78l13 59q-53 -18 -82.5 -42
t-29.5 -62z" />
    <glyph glyph-name="k.end" horiz-adv-x="472" 
d="M373 500h99l-200 -139q22 4 33 4q53 0 81.5 -33t28.5 -84q0 -21 -4 -38l-11 -50q-5 -25 -5 -32q0 -37 39 -37q21 0 35 6q-3 -47 -35 -75t-58 -28q-61 0 -93.5 29.5t-32.5 84.5q0 24 6 52l8 39q4 17 4 37q0 48 -36 48q-29 0 -74 -37l-52 -247h-144l145 680l148 20
l-75 -352z" />
    <glyph glyph-name="k.salt" horiz-adv-x="518" 
d="M411 210l-11 -50q-5 -25 -5 -32q0 -37 39 -37q30 0 47 21t37 67h42q-63 -185 -184 -185q-61 0 -93.5 29.5t-32.5 84.5q0 24 6 52l8 39q4 17 4 37q0 48 -36 48q-29 0 -74 -37l-52 -247h-144l145 680l148 20l-72 -337l46 37q91 73 118 89.5t63 16.5q19 0 29 -17.5t10 -32.5
q0 -23 -21.5 -41.5t-43.5 -18.5q-9 0 -22.5 7t-21.5 7q-33 0 -117 -65q43 20 82 20q53 0 81.5 -33t28.5 -84q0 -21 -4 -38z" />
    <glyph glyph-name="l.end" horiz-adv-x="207" 
d="M253 702l-115 -540q-4 -20 -4 -29q0 -40 41 -40q20 0 32 6q-4 -51 -35.5 -78t-74.5 -27q-48 0 -77.5 30.5t-29.5 91.5q0 27 8 65l107 501z" />
    <glyph glyph-name="m.end" horiz-adv-x="701" 
d="M535 362q0 51 -36 51q-50 0 -78 -92l-68 -321h-144l73 345q3 12 3 25q0 44 -30 44q-53 0 -81 -93l-68 -321h-144l106 500h144l-11 -52q50 57 122 57q88 0 103 -86q55 85 139 85q51 0 81 -28t30 -85q0 -44 -24 -138.5t-24 -119.5q0 -42 40 -42q24 0 33 6q-6 -51 -36.5 -77
t-73.5 -26q-53 0 -77 32t-24 81q0 35 22.5 129t22.5 126z" />
    <glyph glyph-name="n.end" horiz-adv-x="454" 
d="M288 362q0 51 -36 51q-50 0 -78 -92l-68 -321h-144l106 500h144l-11 -52q49 56 117 56q51 0 81 -28t30 -85q0 -44 -24 -138.5t-24 -119.5q0 -42 40 -42q24 0 33 6q-6 -51 -36.5 -77t-73.5 -26q-53 0 -77 32t-24 81q0 35 22.5 129t22.5 126z" />
    <glyph glyph-name="o.end" horiz-adv-x="487" 
d="M257 509q118 0 127 -135q35 7 71 69h32q-48 -104 -103 -134q-9 -142 -75.5 -227.5t-162.5 -85.5q-74 0 -117 38t-43 120q0 48 14 104.5t43.5 115t85 97t128.5 38.5zM186 86q37 0 69.5 60t43.5 148q-24 9 -24 45q0 39 28 52q-1 31 -10 44t-28 13q-49 0 -89.5 -99
t-40.5 -182q0 -48 11 -64.5t40 -16.5z" />
    <glyph glyph-name="o_s.end" horiz-adv-x="718" 
d="M548 511l148 20q5 -110 10.5 -189.5t8.5 -114t3 -60.5q0 -89 -52 -131t-124 -42q-139 0 -139 133q0 42 22 68.5t50 26.5q52 0 52 -42q0 -18 -14.5 -31.5t-33.5 -13.5q-21 0 -27 13q0 -75 58 -75q34 0 48.5 20.5t14.5 72.5q0 24 -8 98t-14 174q-72 -109 -168 -138
q-10 -138 -76.5 -221t-160.5 -83q-74 0 -117 38t-43 120q0 48 14 104.5t43.5 115t85 97t128.5 38.5q126 0 128 -157q73 4 163 159zM186 86q37 0 69.5 59.5t43.5 147.5q-24 9 -24 45q0 39 28 52q-1 31 -10 44.5t-28 13.5q-49 0 -89.5 -99t-40.5 -182q0 -48 11 -64.5t40 -16.5
z" />
    <glyph glyph-name="oacute.end" horiz-adv-x="487" 
d="M258 509q118 0 127 -135q35 7 71 69h32q-48 -104 -103 -134q-9 -142 -75.5 -227.5t-162.5 -85.5q-74 0 -117 38t-43 120q0 48 14 104.5t43.5 115t85 97t128.5 38.5zM187 86q37 0 69.5 60t43.5 148q-24 9 -24 45q0 39 28 52q-1 31 -10 44t-28 13q-49 0 -89.5 -99
t-40.5 -182q0 -48 11 -64.5t40 -16.5zM219 561l91 189h105l-121 -189h-75z" />
    <glyph glyph-name="oacute_s.end" horiz-adv-x="719" 
d="M549 511l148 20q5 -110 10.5 -189.5t8.5 -114t3 -60.5q0 -89 -52 -131t-124 -42q-139 0 -139 133q0 42 22 68.5t50 26.5q52 0 52 -42q0 -18 -14.5 -31.5t-33.5 -13.5q-20 0 -27 13q0 -75 58 -75q34 0 48.5 20.5t14.5 72.5q0 24 -8 98t-14 174q-72 -109 -168 -138
q-10 -138 -76.5 -221t-160.5 -83q-74 0 -117 38t-43 120q0 48 14 104.5t43.5 115t85 97t128.5 38.5q126 0 128 -157q73 4 163 159zM187 86q37 0 69.5 59.5t43.5 147.5q-24 9 -24 45q0 39 28 52q-1 31 -10 44.5t-28 13.5q-49 0 -89.5 -99t-40.5 -182q0 -48 11 -64.5t40 -16.5
zM219 561l91 189h105l-121 -189h-75z" />
    <glyph glyph-name="p.salt" horiz-adv-x="482" 
d="M534 282l-13 -58q-49 -3 -106 -17q-26 -92 -76.5 -152.5t-106.5 -60.5q-81 0 -81 75q0 93 157 154q10 48 10 88q0 102 -64 102q-52 0 -80 -92l-114 -535l-151 -36l167 787h144l-19 -89q49 56 121 56q53 0 82.5 -46t29.5 -115q0 -36 -7 -83q41 10 107 22zM212 86
q0 -14 15 -14q32 0 59 73l6 17q-80 -41 -80 -76z" />
    <glyph glyph-name="s.end" horiz-adv-x="316" 
d="M144 511l148 20q5 -110 10.5 -189.5t8.5 -114t3 -60.5q0 -61 -34 -102t-77 -56t-89 -15q-71 0 -108.5 38.5t-37.5 89.5q0 33 15.5 57.5t37.5 35.5q67 118 123 296zM92 179q0 -19 -12.5 -34t-31.5 -15q-20 0 -27 13q0 -36 14.5 -53t46.5 -17q37 0 62 22t25 71
q0 25 -7 91.5t-12 145.5q-24 -79 -81 -189q23 -11 23 -35z" />
    <glyph glyph-name="t.end" horiz-adv-x="276" 
d="M208 460l-64 -300q-5 -20 -5 -35q0 -36 35 -36q18 0 26 3q-32 -98 -106 -98q-50 0 -75 31t-25 82q0 26 6 53l64 300h-33l8 40h33l30 138l148 20l-34 -158h60l-8 -40h-60z" />
    <glyph glyph-name="u.end" horiz-adv-x="459" 
d="M68 500h144l-72 -340q-3 -12 -3 -25q0 -44 30 -44q54 0 80 88l68 321h144l-72 -340q-4 -17 -4 -32q0 -20 9.5 -28.5t31.5 -8.5q15 0 33 6q-4 -51 -35.5 -77t-75.5 -26q-41 0 -67 25.5t-31 69.5q-58 -95 -149 -95q-48 0 -77.5 30t-29.5 90q0 27 8 65z" />
    <glyph glyph-name="u_x.end" horiz-adv-x="863" 
d="M68 500h144l-72 -340q-3 -12 -3 -25q0 -44 30 -44q54 0 80 88l68 321h144l-72 -340q-3 -14 -3 -25q0 -44 43 -44q38 0 82.5 27t77.5 67l-58 315h141l39 -216q95 103 95 159q0 8 -1 12q-12 -2 -17 -2q-47 0 -47 56q0 22 16 34.5t40 12.5q32 0 50 -25t18 -64
q0 -48 -34 -103t-109 -135l9 -50q9 -50 20.5 -69t42.5 -19q20 0 32 6q-4 -50 -34.5 -73.5t-75.5 -23.5q-47 0 -73 28.5t-43 99.5q-106 -134 -235 -134q-42 0 -75 26t-40 70q-58 -96 -149 -96q-48 0 -77.5 30.5t-29.5 90.5q0 26 8 64z" />
    <glyph glyph-name="uacute.end" horiz-adv-x="459" 
d="M68 500h144l-72 -340q-3 -12 -3 -25q0 -44 30 -44q54 0 80 88l68 321h144l-72 -340q-4 -17 -4 -32q0 -20 9.5 -28.5t31.5 -8.5q15 0 33 6q-4 -51 -35.5 -77t-75.5 -26q-41 0 -67 25.5t-31 69.5q-58 -95 -149 -95q-48 0 -77.5 30t-29.5 90q0 27 8 65zM219 561l91 189h105
l-121 -189h-75z" />
    <glyph glyph-name="x.end" horiz-adv-x="500" 
d="M366 254l13 -76q8 -50 20 -68.5t38 -18.5q21 0 37 6q-4 -51 -38 -77t-80 -26q-89 0 -118 174l-138 -168h-72l202 228l-16 112q-7 49 -15.5 66t-22.5 17q-32 0 -70.5 -64t-63.5 -180h-42q13 61 32 114.5t47 103.5t68.5 79t88.5 29q23 0 41 -8t29 -19t19 -28.5t12 -31.5
t7 -32l12 -73q81 94 84 141q-12 -2 -17 -2q-47 0 -47 56q0 24 19.5 36.5t48.5 12.5q26 0 41 -28t15 -63q0 -43 -29 -86t-105 -126z" />
    <glyph glyph-name="y.end" horiz-adv-x="460" 
d="M68 500h144l-72 -340q-3 -12 -3 -25q0 -44 30 -44q54 0 80 88l68 321h145l-122 -580q-36 -170 -182 -170q-48 0 -83 30.5t-35 77.5q0 63 43 93.5t130 56.5l10 44q-51 -58 -122 -58q-48 0 -77.5 30t-29.5 90q0 27 8 65zM93 -128q0 -11 12 -22t28 -11q17 0 33.5 18.5
t25.5 59.5l12 59q-111 -37 -111 -104z" />
  </font>
</defs>
</svg>
