<?xml version="1.0" encoding="UTF-8" standalone="no"?>
<!-- Created with Inkscape (http://www.inkscape.org/) -->

<svg
   xmlns:dc="http://purl.org/dc/elements/1.1/"
   xmlns:cc="http://creativecommons.org/ns#"
   xmlns:rdf="http://www.w3.org/1999/02/22-rdf-syntax-ns#"
   xmlns:svg="http://www.w3.org/2000/svg"
   xmlns="http://www.w3.org/2000/svg"
   xmlns:sodipodi="http://sodipodi.sourceforge.net/DTD/sodipodi-0.dtd"
   xmlns:inkscape="http://www.inkscape.org/namespaces/inkscape"
   version="1.1"
   id="svg2"
   xml:space="preserve"
   width="860.61823"
   height="213.33347"
   viewBox="0 0 860.61821 213.33347"
   sodipodi:docname="la mision nueva.ai.svg"
   inkscape:version="0.92.4 (5da689c313, 2019-01-14)"><metadata
     id="metadata8"><rdf:RDF><cc:Work
         rdf:about=""><dc:format>image/svg+xml</dc:format><dc:type
           rdf:resource="http://purl.org/dc/dcmitype/StillImage" /><dc:title></dc:title></cc:Work></rdf:RDF></metadata><defs
     id="defs6"><clipPath
       clipPathUnits="userSpaceOnUse"
       id="clipPath32"><path
         d="M 0,595.28 H 841.89 V 0 H 0 Z"
         id="path30"
         inkscape:connector-curvature="0" /></clipPath></defs><sodipodi:namedview
     pagecolor="#ffffff"
     bordercolor="#666666"
     borderopacity="1"
     objecttolerance="10"
     gridtolerance="10"
     guidetolerance="10"
     inkscape:pageopacity="0"
     inkscape:pageshadow="2"
     inkscape:window-width="1920"
     inkscape:window-height="1015"
     id="namedview4"
     showgrid="false"
     inkscape:pagecheckerboard="true"
     fit-margin-top="0"
     fit-margin-left="0"
     fit-margin-right="0"
     fit-margin-bottom="0"
     inkscape:zoom="0.59467814"
     inkscape:cx="248.63902"
     inkscape:cy="226.98881"
     inkscape:window-x="0"
     inkscape:window-y="0"
     inkscape:window-maximized="1"
     inkscape:current-layer="g10" /><g
     id="g10"
     inkscape:groupmode="layer"
     inkscape:label="la mision nueva"
     transform="matrix(1.3333333,0,0,-1.3333333,-106.48468,577.71467)"><g
       id="g26"
       transform="translate(-18.917789,45.402713)"
       style="fill:#d01527;fill-opacity:1;fill-rule:nonzero"><g
         id="g28"
         clip-path="url(#clipPath32)"
         style="fill:#d01527;fill-opacity:1;fill-rule:nonzero"><g
           id="g34"
           transform="translate(374.2119,292.3437)"
           style="fill:#d01527;fill-opacity:1;fill-rule:nonzero"><path
             d="m 0,0 c -3.171,1.922 -6.351,3.811 -9.532,5.687 0.196,0.637 0.303,1.313 0.303,2 0,0.653 -0.092,1.282 -0.27,1.862 2.222,1.474 4.467,2.922 6.703,4.369 0.999,0.641 2.002,1.279 2.992,1.928 0.75,-0.678 1.647,-1.2 2.65,-1.467 v -0.307 c 0.005,-2.051 0,-4.113 0,-6.164 H 2.858 C 2.858,5.781 2.851,3.656 2.879,1.529 1.839,1.215 0.914,0.65 0.169,-0.094 0.106,-0.062 0.048,-0.037 0,0 m -28.503,26.635 c -1.083,-0.707 -2.159,-1.414 -3.248,-2.115 -0.812,0.701 -1.823,1.187 -2.937,1.394 0,0.102 0,0.199 0.013,0.305 0.104,1.982 0.024,3.978 0.024,5.965 0,0 0,-0.002 -0.016,-0.002 0,2.113 0.006,4.216 0,6.322 1.104,0.297 2.107,0.857 2.922,1.627 2.299,-1.373 4.606,-2.711 6.914,-4.065 0.92,-0.539 1.834,-1.082 2.758,-1.603 -0.169,-0.582 -0.261,-1.188 -0.261,-1.805 0,-0.637 0.092,-1.232 0.261,-1.808 -2.143,-1.397 -4.285,-2.795 -6.43,-4.215 m -12.332,-2.608 c -3.122,1.842 -6.269,3.641 -9.404,5.43 0.217,0.662 0.345,1.365 0.345,2.086 0,0.707 -0.128,1.379 -0.332,2.012 1.793,1.201 3.598,2.402 5.401,3.599 1.384,0.934 2.768,1.844 4.137,2.785 0.738,-0.675 1.638,-1.183 2.64,-1.455 v -0.248 c -0.053,-2.07 -0.01,-4.15 -0.01,-6.216 h -0.008 c 0,-2.12 0,-4.254 0.008,-6.368 -1.013,-0.353 -1.908,-0.937 -2.65,-1.695 -0.049,0.018 -0.084,0.051 -0.127,0.07 M -72.217,-2.621 c -0.266,-0.168 -0.524,-0.359 -0.78,-0.527 -0.713,0.662 -1.575,1.146 -2.541,1.412 V 4.76 h 0.008 c 0,2.172 0,4.347 -0.008,6.513 0.959,0.379 1.812,0.967 2.503,1.69 0.122,-0.047 0.258,-0.117 0.38,-0.193 3.27,-1.881 6.571,-3.733 9.867,-5.596 -0.131,-0.533 -0.215,-1.098 -0.215,-1.664 0,-0.598 0.084,-1.168 0.236,-1.719 -3.154,-2.125 -6.295,-4.25 -9.45,-6.412 m 8.474,61.141 c 0.316,-0.174 0.648,-0.364 0.976,-0.555 -0.152,-0.547 -0.236,-1.123 -0.236,-1.723 0,-0.582 0.084,-1.152 0.228,-1.693 -2.231,-1.492 -4.461,-3.014 -6.697,-4.531 -1.174,-0.801 -2.363,-1.594 -3.545,-2.409 -0.704,0.664 -1.57,1.157 -2.552,1.428 0,0.076 -0.006,0.156 0,0.242 0.101,2.09 0.031,4.186 0.031,6.274 -0.006,-0.002 -0.014,-0.002 -0.031,-0.002 0,2.16 0,4.324 0.012,6.472 0.97,0.381 1.847,0.971 2.56,1.739 3.084,-1.735 6.166,-3.491 9.254,-5.242 m 2.664,-22.915 c -2.387,1.377 -4.777,2.741 -7.158,4.1 -1.024,0.578 -2.046,1.149 -3.076,1.717 0.136,0.537 0.221,1.105 0.221,1.685 0,0.567 -0.085,1.133 -0.221,1.663 2.33,1.58 4.67,3.164 7.001,4.744 1.088,0.728 2.175,1.453 3.244,2.189 0.721,-0.662 1.593,-1.148 2.563,-1.424 v -0.117 c -0.055,-2.105 -0.019,-4.219 -0.019,-6.326 h 0.005 v -6.52 c -0.972,-0.367 -1.849,-0.955 -2.56,-1.711 M -75.538,23.654 c 0.008,0.061 0.008,0.117 0.008,0.178 0.047,2.117 0.009,4.223 0.009,6.328 h -0.009 c 0,2.162 0,4.328 -0.014,6.492 0.972,0.383 1.823,0.977 2.527,1.715 0.16,-0.084 0.319,-0.168 0.495,-0.269 3.225,-1.869 6.487,-3.696 9.747,-5.522 -0.144,-0.547 -0.228,-1.111 -0.228,-1.693 0,-0.596 0.084,-1.143 0.228,-1.684 -2.439,-1.644 -4.856,-3.285 -7.288,-4.939 -0.986,-0.674 -1.985,-1.332 -2.977,-2.018 -0.693,0.666 -1.547,1.139 -2.498,1.412 m 17.001,-5.234 h 0.018 c 0,-2.158 0,-4.322 0.006,-6.469 -0.978,-0.373 -1.855,-0.959 -2.566,-1.717 -0.137,0.079 -0.275,0.149 -0.422,0.233 -3.249,1.9 -6.535,3.732 -9.812,5.562 0.136,0.543 0.221,1.116 0.221,1.686 0,0.584 -0.079,1.125 -0.215,1.646 1.675,1.141 3.355,2.278 5.033,3.41 1.746,1.182 3.499,2.36 5.232,3.549 0.701,-0.65 1.567,-1.138 2.523,-1.406 0,-0.057 0,-0.125 -0.005,-0.176 -0.058,-2.113 -0.013,-4.215 -0.013,-6.318 m 14.911,28.613 c 0.404,-0.23 0.801,-0.467 1.214,-0.703 -0.164,-0.576 -0.269,-1.18 -0.269,-1.787 0,-0.611 0.105,-1.193 0.256,-1.74 -2.365,-1.598 -4.739,-3.176 -7.117,-4.75 -0.855,-0.567 -1.717,-1.149 -2.584,-1.719 -0.836,0.693 -1.858,1.17 -2.992,1.346 0.043,2.674 0.031,5.338 0.031,8.008 0,1.525 -0.011,3.044 -0.031,4.562 1.14,0.299 2.165,0.881 3.01,1.672 2.81,-1.647 5.652,-3.258 8.482,-4.889 m 20.959,4.772 c 0.791,0.519 1.584,1.039 2.381,1.552 0.75,-0.693 1.672,-1.197 2.704,-1.457 0.006,-2.138 0.006,-4.275 0.006,-6.414 0,-2.132 0,-4.259 0.013,-6.39 -1.051,-0.33 -1.984,-0.907 -2.749,-1.66 -0.031,0.009 -0.056,0.037 -0.086,0.058 -1.777,1.115 -3.599,2.127 -5.414,3.203 -1.357,0.78 -2.7,1.58 -4.068,2.358 0.201,0.644 0.309,1.314 0.311,2.017 -0.002,0.696 -0.11,1.369 -0.318,1.983 2.414,1.584 4.818,3.179 7.22,4.75 m 19.372,12.586 c 1.153,0.748 2.31,1.498 3.466,2.238 0.764,-0.695 1.672,-1.217 2.708,-1.494 0.006,-2.156 0.006,-4.319 0.006,-6.471 -0.006,0 -0.023,-0.002 -0.027,-0.002 V 52.293 C 1.843,51.975 0.94,51.41 0.186,50.688 c -3.238,1.929 -6.464,3.853 -9.707,5.779 0.192,0.621 0.292,1.285 0.292,1.953 0,0.682 -0.1,1.34 -0.292,1.949 2.083,1.334 4.159,2.688 6.226,4.022 m -8.064,-10.844 c 2.925,-1.709 5.842,-3.438 8.768,-5.176 0.34,-0.207 0.676,-0.412 1.004,-0.623 -0.165,-0.59 -0.26,-1.203 -0.26,-1.828 0,-0.633 0.095,-1.24 0.26,-1.809 -2.035,-1.3 -4.074,-2.619 -6.103,-3.937 -1.219,-0.783 -2.444,-1.565 -3.669,-2.365 -0.781,0.703 -1.736,1.195 -2.798,1.431 v 0.239 c 0.1,2.033 0.027,4.078 0.027,6.115 h -0.027 c 0,2.121 0,4.244 0.012,6.367 1.05,0.299 2.005,0.855 2.786,1.586 m -2.786,-39.676 c 0.029,2.119 0.015,4.26 0.015,6.367 0,2.116 0.008,4.237 -0.006,6.354 1.049,0.308 1.992,0.851 2.77,1.576 0.035,-0.025 0.095,-0.045 0.125,-0.072 3.188,-1.963 6.429,-3.842 9.654,-5.748 -0.165,-0.588 -0.26,-1.186 -0.26,-1.819 0,-0.613 0.095,-1.226 0.26,-1.797 -2.16,-1.378 -4.31,-2.767 -6.461,-4.168 -1.098,-0.703 -2.192,-1.423 -3.297,-2.136 -0.778,0.695 -1.727,1.197 -2.8,1.443 M 2.862,39.582 c -0.049,-2.09 -0.011,-4.18 -0.011,-6.275 0,-2.131 -0.01,-4.27 0.007,-6.391 -1.019,-0.324 -1.937,-0.875 -2.687,-1.621 -0.036,0.021 -0.065,0.047 -0.109,0.066 -3.165,1.955 -6.383,3.852 -9.574,5.756 0.191,0.615 0.283,1.26 0.283,1.942 0,0.668 -0.092,1.306 -0.276,1.906 1.168,0.769 2.343,1.539 3.52,2.303 2.064,1.318 4.119,2.632 6.165,3.978 0.755,-0.693 1.663,-1.217 2.699,-1.5 0,-0.049 0,-0.107 -0.017,-0.164 m 8.41,6.609 c 0,3.063 -2.134,5.602 -4.995,6.241 0.009,4.234 0.007,8.459 -0.016,12.689 2.869,0.75 5.011,3.369 5.011,6.442 0,3.605 -2.937,6.484 -6.562,6.408 -3.617,-0.073 -6.557,-3.073 -6.557,-6.68 0,-0.627 0.095,-1.234 0.26,-1.812 -0.328,-0.196 -0.656,-0.42 -0.986,-0.639 -2.93,-1.883 -5.861,-3.77 -8.779,-5.664 -1.164,1.039 -2.713,1.646 -4.428,1.595 -3.621,-0.111 -6.554,-3.134 -6.554,-6.753 0,-0.62 0.092,-1.235 0.269,-1.813 -1.766,-1.141 -3.506,-2.303 -5.264,-3.445 -1.469,-0.973 -2.946,-1.932 -4.422,-2.912 -1.158,0.998 -2.691,1.568 -4.373,1.502 -1.773,-0.073 -3.37,-0.844 -4.551,-2.041 -2.215,1.296 -4.437,2.572 -6.652,3.841 -0.967,0.565 -1.943,1.123 -2.921,1.668 0.226,0.661 0.354,1.358 0.354,2.084 0,3.619 -2.941,6.405 -6.56,6.221 -1.801,-0.09 -3.436,-0.898 -4.617,-2.137 -1.631,0.926 -3.27,1.846 -4.901,2.778 -1.782,1.007 -3.556,2.029 -5.341,3.041 0.136,0.535 0.221,1.095 0.221,1.672 0,3.607 -2.925,6.369 -6.546,6.148 -3.617,-0.219 -6.552,-3.336 -6.552,-6.943 0,-3.176 2.275,-5.676 5.286,-6.084 -0.017,-4.176 -0.017,-8.358 -0.002,-12.547 -3.019,-0.776 -5.284,-3.571 -5.284,-6.74 0,-3.17 2.263,-5.67 5.255,-6.088 -0.037,-4.184 -0.047,-8.371 -0.014,-12.555 v -0.006 c -2.988,-0.787 -5.241,-3.57 -5.241,-6.742 0,-3.154 2.246,-5.639 5.226,-6.074 0.002,-0.278 0.006,-0.533 0.006,-0.807 0.009,-3.922 -0.012,-7.832 0.052,-11.738 -3.019,-0.793 -5.284,-3.574 -5.284,-6.754 0,-3.608 2.935,-6.346 6.552,-6.125 3.621,0.217 6.546,3.314 6.546,6.922 0,0.578 -0.085,1.127 -0.221,1.656 0.006,0 0.011,0.014 0.021,0.014 3.432,2.304 6.851,4.625 10.269,6.935 1.17,-1.099 2.793,-1.726 4.569,-1.636 3.619,0.183 6.56,3.242 6.56,6.857 0,3.154 -2.238,5.684 -5.215,6.144 0.004,2.09 0,4.188 0,6.278 0.004,0 0.011,0.002 0.022,0.002 0,2.095 0.039,4.203 -0.022,6.293 1.125,0.299 2.133,0.865 2.971,1.634 2.5,-1.433 4.994,-2.847 7.492,-4.289 0.74,-0.427 1.475,-0.859 2.213,-1.312 -0.151,-0.545 -0.248,-1.121 -0.248,-1.715 0,-3.609 2.948,-6.398 6.557,-6.252 3.632,0.149 6.555,3.172 6.555,6.783 0,0.68 -0.108,1.34 -0.297,1.948 0.551,0.359 1.107,0.72 1.66,1.084 2.653,1.74 5.293,3.468 7.941,5.201 0.755,-0.68 1.672,-1.18 2.689,-1.436 -0.006,-2.842 -0.017,-5.664 -0.023,-8.496 v -4.324 c -2.723,-0.871 -4.735,-3.447 -4.735,-6.428 0,-3.615 2.933,-6.437 6.554,-6.326 1.695,0.051 3.218,0.74 4.388,1.812 0.802,-0.482 1.618,-0.943 2.422,-1.429 2.46,-1.446 4.926,-2.908 7.383,-4.369 -0.165,-0.577 -0.26,-1.192 -0.26,-1.815 0,-3.607 2.94,-6.465 6.557,-6.392 3.625,0.078 6.562,3.056 6.562,6.664 0,3.066 -2.134,5.599 -4.988,6.25 0.019,4.226 0.019,8.459 -0.007,12.693 2.861,0.76 4.995,3.365 4.995,6.43 0,3.066 -2.134,5.603 -4.988,6.25 0.032,4.232 0.019,8.474 0,12.699 2.863,0.758 4.988,3.369 4.988,6.439"
             style="fill:#d01527;fill-opacity:1;fill-rule:nonzero;stroke:none"
             id="path36"
             inkscape:connector-curvature="0" /></g><g
           id="g38"
           transform="translate(365.6328,349.2012)"
           style="fill:#d01527;fill-opacity:1;fill-rule:nonzero"><path
             d="m 0,0 c 1.09,-0.643 2.18,-1.289 3.269,-1.936 1.8,-1.076 3.603,-2.15 5.417,-3.228 0.59,0.486 1.244,0.877 1.937,1.164 v 4.518 1.271 c 0,0.068 0.008,0.137 0.026,0.195 V 2.916 7.664 C 9.936,7.928 9.271,8.301 8.68,8.754 7.69,8.119 6.702,7.484 5.712,6.848 3.814,5.627 1.91,4.396 0,3.166 0.115,2.652 0.177,2.121 0.177,1.584 0.177,1.055 0.115,0.527 0,0 m 8.765,-6.984 c -0.15,-0.002 -0.302,0.037 -0.421,0.115 -1.986,1.176 -3.965,2.359 -5.941,3.529 -1.26,0.748 -2.519,1.492 -3.78,2.236 -0.312,0.2 -0.463,0.569 -0.338,0.93 0.164,0.551 0.252,1.131 0.252,1.713 0,0.59 -0.088,1.168 -0.252,1.703 -0.125,0.363 0.026,0.748 0.345,0.951 2.077,1.342 4.151,2.68 6.233,4.022 1.152,0.748 2.306,1.496 3.458,2.24 0.32,0.199 0.729,0.174 0.998,-0.074 0.667,-0.627 1.486,-1.09 2.363,-1.318 0.349,-0.1 0.59,-0.411 0.59,-0.762 0.008,-1.785 0.007,-3.567 0.007,-5.35 V 1.824 c 0,-0.072 -0.007,-0.131 -0.021,-0.191 v -1.08 -5.1 C 12.266,-4.906 12.025,-5.236 11.672,-5.34 10.805,-5.617 9.99,-6.094 9.334,-6.746 9.174,-6.902 8.974,-6.977 8.765,-6.984 m -74.919,-0.235 c 0.65,-0.236 1.27,-0.586 1.812,-1 0.672,0.455 1.336,0.914 2.002,1.364 0.955,0.646 1.91,1.296 2.866,1.943 1.447,0.992 2.902,1.971 4.357,2.945 -0.08,0.434 -0.125,0.877 -0.125,1.309 0,0.449 0.045,0.888 0.131,1.336 -0.168,0.092 -0.327,0.181 -0.494,0.265 -0.529,0.303 -1.055,0.606 -1.583,0.907 -2.375,1.349 -4.751,2.693 -7.146,4.031 -0.542,-0.492 -1.17,-0.91 -1.829,-1.227 -0.001,-1.906 -0.007,-3.808 -0.008,-5.715 0.025,-0.054 0.032,-0.121 0.032,-0.197 0,-0.607 0.004,-1.221 0.013,-1.822 0.009,-1.35 0.026,-2.742 -0.028,-4.139 m 1.716,-2.834 c -0.203,-0.011 -0.416,0.057 -0.576,0.194 -0.619,0.586 -1.39,1.013 -2.24,1.242 -0.327,0.097 -0.548,0.404 -0.548,0.748 v 0.281 c 0.073,1.463 0.064,2.953 0.036,4.395 0,0.545 0,1.089 -0.005,1.638 -0.02,0.057 -0.031,0.129 -0.031,0.198 v 6.472 c -0.003,0.356 0.225,0.68 0.556,0.803 0.85,0.342 1.621,0.859 2.247,1.521 0.269,0.286 0.688,0.364 1.009,0.178 2.562,-1.433 5.113,-2.887 7.674,-4.34 0.526,-0.297 1.051,-0.593 1.58,-0.892 0.33,-0.192 0.65,-0.367 0.971,-0.549 0.306,-0.174 0.461,-0.533 0.363,-0.895 -0.135,-0.498 -0.206,-1.015 -0.206,-1.513 0,-0.483 0.071,-0.983 0.206,-1.475 0.098,-0.348 -0.057,-0.721 -0.363,-0.926 -1.614,-1.089 -3.224,-2.173 -4.837,-3.269 -0.958,-0.651 -1.914,-1.303 -2.871,-1.955 -0.841,-0.571 -1.686,-1.135 -2.517,-1.715 -0.137,-0.086 -0.288,-0.131 -0.448,-0.141 m 18.739,-8.453 c 0.783,-0.199 1.539,-0.555 2.211,-1.014 0.357,0.225 0.709,0.463 1.064,0.704 0.53,0.355 1.061,0.707 1.59,1.058 2.018,1.356 4.039,2.684 6.053,4.035 -0.081,0.459 -0.129,0.922 -0.129,1.373 0,0.459 0.048,0.932 0.138,1.401 -0.238,0.142 -0.464,0.275 -0.712,0.408 -0.766,0.445 -1.534,0.887 -2.299,1.328 -1.901,1.086 -3.806,2.172 -5.693,3.272 -0.674,-0.547 -1.432,-0.961 -2.223,-1.252 0.002,-1.315 0.017,-2.625 0.017,-3.936 v -1.232 c 0,-2.016 0,-4.08 -0.017,-6.145 m 2.152,-2.83 c -0.199,-0.012 -0.385,0.043 -0.539,0.17 -0.744,0.631 -1.657,1.033 -2.614,1.193 -0.392,0.053 -0.663,0.387 -0.652,0.772 0.038,2.25 0.03,4.541 0.03,6.758 v 1.232 c 0,1.52 0,3.045 -0.03,4.551 -0.011,0.402 0.26,0.758 0.652,0.851 0.957,0.241 1.876,0.745 2.625,1.454 0.274,0.253 0.669,0.304 0.973,0.126 2.053,-1.199 4.114,-2.38 6.185,-3.558 0.769,-0.44 1.536,-0.877 2.304,-1.317 0.41,-0.24 0.81,-0.484 1.21,-0.718 0.302,-0.188 0.443,-0.547 0.352,-0.901 -0.156,-0.517 -0.221,-1.048 -0.221,-1.554 0,-0.516 0.065,-1.022 0.211,-1.536 0.097,-0.335 -0.048,-0.72 -0.349,-0.912 -2.179,-1.474 -4.369,-2.92 -6.559,-4.375 -0.531,-0.355 -1.06,-0.712 -1.594,-1.068 -0.513,-0.344 -1.037,-0.687 -1.546,-1.025 -0.137,-0.09 -0.289,-0.137 -0.438,-0.143 m 38.803,4.346 c 0.73,-0.244 1.426,-0.596 2.045,-1.051 0.557,0.357 1.111,0.715 1.666,1.072 1.265,0.821 2.527,1.639 3.792,2.455 1.096,0.717 2.198,1.426 3.295,2.131 -0.082,0.471 -0.138,0.949 -0.138,1.428 0.002,0.48 0.056,0.971 0.146,1.449 -0.168,0.113 -0.332,0.221 -0.507,0.318 -2.744,1.639 -5.501,3.27 -8.245,4.877 -0.628,-0.482 -1.329,-0.888 -2.061,-1.171 -0.004,-1.534 -0.004,-3.069 -0.004,-4.604 v -0.955 c 0.011,-0.059 0.023,-0.125 0.023,-0.197 0,-0.596 0.007,-1.201 0.007,-1.787 0.017,-1.301 0.034,-2.629 -0.019,-3.965 m 1.964,-2.875 c -0.199,-0.006 -0.394,0.058 -0.547,0.205 -0.692,0.617 -1.555,1.045 -2.46,1.248 -0.363,0.08 -0.609,0.398 -0.609,0.771 0.001,0.121 0.001,0.192 0,0.276 0.068,1.418 0.053,2.869 0.037,4.275 -0.002,0.533 -0.006,1.07 -0.012,1.598 -0.013,0.062 -0.025,0.142 -0.025,0.205 v 1.152 c 0.001,1.742 0,3.483 0.018,5.223 0,0.365 0.247,0.703 0.61,0.793 0.907,0.271 1.749,0.75 2.441,1.398 0.27,0.25 0.665,0.309 0.985,0.119 2.924,-1.71 5.846,-3.441 8.762,-5.181 0.289,-0.162 0.572,-0.354 0.865,-0.53 C 7.336,-8.35 7.388,-8.385 7.441,-8.422 7.744,-8.611 7.889,-8.98 7.785,-9.32 7.633,-9.85 7.55,-10.391 7.55,-10.916 c 0,-0.531 0.083,-1.055 0.235,-1.582 0.094,-0.354 -0.051,-0.729 -0.361,-0.922 -1.266,-0.814 -2.541,-1.635 -3.801,-2.453 -1.266,-0.816 -2.529,-1.635 -3.795,-2.453 -0.724,-0.465 -1.445,-0.936 -2.17,-1.397 -0.137,-0.089 -0.285,-0.138 -0.438,-0.142 m -11.308,14.812 h 0.002 z m -6.262,-8.332 c 0.858,-0.496 1.713,-1.004 2.571,-1.502 0.324,-0.189 0.65,-0.383 0.975,-0.576 0.542,-0.318 1.081,-0.627 1.621,-0.926 1.113,-0.658 2.259,-1.32 3.38,-2.015 0.606,0.506 1.278,0.91 2.002,1.199 -0.011,1.492 0,2.971 0,4.461 v 1.277 c -0.011,0.02 -0.011,0.047 -0.011,0.069 v 1.066 c 0,1.586 0,3.168 -0.006,4.76 -0.707,0.246 -1.373,0.605 -1.983,1.062 -0.617,-0.408 -1.236,-0.814 -1.853,-1.219 -0.492,-0.326 -0.981,-0.652 -1.471,-0.976 -1.744,-1.127 -3.488,-2.285 -5.233,-3.428 0.133,-0.529 0.194,-1.076 0.194,-1.621 0,-0.547 -0.061,-1.098 -0.186,-1.631 m 8.618,-6.853 c -0.151,-0.006 -0.291,0.039 -0.428,0.107 -0.039,0.024 -0.078,0.049 -0.115,0.074 -1.235,0.774 -2.522,1.514 -3.763,2.239 -0.547,0.314 -1.089,0.625 -1.621,0.943 -0.327,0.189 -0.655,0.381 -0.982,0.57 -1.033,0.602 -2.052,1.2 -3.082,1.803 -0.334,0.184 -0.468,0.564 -0.36,0.932 0.188,0.572 0.278,1.156 0.278,1.756 0,0.582 -0.096,1.179 -0.278,1.746 -0.125,0.353 0.026,0.752 0.351,0.961 1.91,1.25 3.834,2.502 5.732,3.763 1.283,0.844 2.568,1.688 3.852,2.53 0.315,0.205 0.732,0.173 1.002,-0.071 0.666,-0.619 1.486,-1.064 2.367,-1.281 0.351,-0.094 0.598,-0.396 0.598,-0.758 0.008,-1.783 0.008,-3.57 0.008,-5.357 v -0.99 -0.075 -1.347 c 0,-1.684 0,-3.362 0.003,-5.037 0,-0.37 -0.236,-0.69 -0.592,-0.813 -0.898,-0.281 -1.735,-0.775 -2.404,-1.447 -0.16,-0.156 -0.358,-0.24 -0.566,-0.248 m -50.079,5.248 c 0.862,-0.475 1.721,-0.961 2.581,-1.451 2.22,-1.26 4.428,-2.526 6.64,-3.795 0.551,0.484 1.171,0.9 1.838,1.222 v 5.836 c -0.006,0.037 -0.006,0.073 -0.006,0.114 0,0.609 -0.002,1.212 -0.006,1.8 -0.01,1.344 -0.027,2.717 0.012,4.08 -0.655,0.248 -1.268,0.584 -1.822,1.012 -0.582,-0.398 -1.184,-0.805 -1.781,-1.209 -0.995,-0.672 -1.993,-1.344 -2.987,-2.017 -1.492,-1.01 -2.978,-2.026 -4.469,-3.032 0.077,-0.429 0.113,-0.863 0.113,-1.273 0,-0.42 -0.036,-0.861 -0.113,-1.287 m 9.311,-7.074 c -0.148,-0.008 -0.301,0.021 -0.445,0.099 -2.378,1.369 -4.76,2.738 -7.155,4.09 -1.01,0.588 -2.04,1.154 -3.059,1.715 -0.31,0.178 -0.46,0.525 -0.368,0.885 0.132,0.502 0.205,0.99 0.207,1.478 -0.002,0.471 -0.075,0.967 -0.207,1.451 -0.092,0.344 0.048,0.727 0.358,0.918 1.655,1.125 3.313,2.256 4.962,3.365 0.996,0.674 1.99,1.348 2.988,2.018 0.77,0.531 1.541,1.041 2.297,1.563 0.322,0.216 0.741,0.193 1.01,-0.057 0.63,-0.592 1.41,-1.016 2.244,-1.26 0.338,-0.096 0.563,-0.385 0.563,-0.738 v -0.139 c -0.047,-1.5 -0.035,-3.013 -0.02,-4.49 v -1.697 c 0.008,-0.035 0.008,-0.071 0.008,-0.116 v -6.519 c 0,-0.348 -0.219,-0.678 -0.551,-0.801 -0.859,-0.322 -1.633,-0.844 -2.262,-1.5 -0.158,-0.164 -0.367,-0.254 -0.57,-0.265 m 27.236,-8.227 c 0.772,-0.229 1.506,-0.58 2.161,-1.045 0.919,0.586 1.834,1.195 2.745,1.793 0.751,0.496 1.502,0.988 2.253,1.484 1.228,0.797 2.451,1.604 3.681,2.409 -0.099,0.464 -0.147,0.947 -0.147,1.421 0,0.465 0.048,0.946 0.137,1.407 -0.533,0.316 -1.076,0.631 -1.604,0.955 -0.819,0.474 -1.636,0.951 -2.452,1.428 -1.537,0.894 -3.072,1.789 -4.613,2.707 -0.663,-0.516 -1.389,-0.93 -2.161,-1.215 v -4.545 -1.012 c 0.006,-0.043 0.006,-0.09 0.006,-0.141 0,-0.595 0.018,-1.167 0.018,-1.757 0.025,-1.28 0.039,-2.584 -0.024,-3.889 m 2.092,-2.863 c -0.194,-0.008 -0.392,0.056 -0.553,0.187 -0.734,0.623 -1.612,1.055 -2.559,1.229 -0.374,0.052 -0.648,0.384 -0.648,0.761 0,0.123 0,0.239 0.016,0.354 0.07,1.367 0.062,2.771 0.042,4.139 -0.006,0.545 -0.006,1.097 -0.006,1.636 -0.009,0.045 -0.016,0.088 -0.016,0.139 v 1.152 c 0,1.727 0,3.446 -0.006,5.172 0,0.379 0.263,0.719 0.642,0.819 0.94,0.25 1.823,0.746 2.55,1.42 0.276,0.265 0.681,0.304 0.981,0.121 1.696,-1.006 3.407,-2.004 5.1,-3.002 0.819,-0.475 1.639,-0.953 2.458,-1.432 0.696,-0.416 1.39,-0.826 2.105,-1.228 0.306,-0.174 0.459,-0.555 0.359,-0.911 -0.151,-0.523 -0.223,-1.054 -0.223,-1.576 0,-0.531 0.072,-1.062 0.223,-1.584 0.104,-0.344 -0.047,-0.726 -0.356,-0.933 -1.392,-0.905 -2.783,-1.811 -4.177,-2.723 -0.75,-0.49 -1.502,-0.982 -2.252,-1.477 -1.087,-0.714 -2.163,-1.423 -3.258,-2.129 -0.129,-0.078 -0.272,-0.128 -0.422,-0.134 m 34.613,15.879 c 0.006,0 0.012,0.002 0.017,0.002 -0.005,0 -0.011,-0.002 -0.017,-0.002 M 0.009,-25.338 c 0.29,-0.176 0.579,-0.351 0.868,-0.525 2.561,-1.512 5.203,-3.096 7.803,-4.684 0.582,0.483 1.241,0.883 1.935,1.168 -0.007,1.395 -0.007,2.779 -0.007,4.172 v 1.641 1.802 c -0.005,1.33 -0.012,2.702 0.015,4.055 -0.693,0.254 -1.352,0.629 -1.937,1.09 -1.215,-0.803 -2.434,-1.58 -3.653,-2.363 -0.668,-0.43 -1.335,-0.86 -2.002,-1.291 -0.832,-0.541 -1.67,-1.088 -2.505,-1.633 -0.172,-0.112 -0.345,-0.225 -0.517,-0.336 0.112,-0.5 0.168,-1.016 0.168,-1.533 0,-0.534 -0.056,-1.059 -0.168,-1.563 m 8.741,-7.043 c -0.143,-0.002 -0.294,0.039 -0.429,0.111 -0.042,0.022 -0.083,0.043 -0.122,0.063 -2.713,1.689 -5.504,3.344 -8.19,4.932 -0.458,0.275 -0.919,0.55 -1.379,0.826 -0.314,0.187 -0.459,0.564 -0.345,0.92 0.164,0.558 0.252,1.127 0.252,1.709 0,0.564 -0.088,1.127 -0.252,1.662 -0.105,0.347 0.037,0.742 0.345,0.939 0.341,0.225 0.685,0.449 1.026,0.672 0.84,0.549 1.674,1.086 2.504,1.631 0.67,0.434 1.344,0.865 2.015,1.299 1.386,0.888 2.772,1.781 4.146,2.683 0.32,0.211 0.734,0.176 0.998,-0.082 0.671,-0.613 1.486,-1.07 2.363,-1.304 0.349,-0.094 0.584,-0.407 0.584,-0.774 v -0.183 c -0.035,-1.487 -0.028,-2.985 -0.022,-4.442 0.006,-0.607 0.008,-1.209 0.006,-1.814 v -1.639 c 0,-1.588 0,-3.172 0.008,-4.75 0,-0.363 -0.243,-0.697 -0.591,-0.799 -0.88,-0.285 -1.681,-0.763 -2.348,-1.416 -0.157,-0.16 -0.36,-0.238 -0.569,-0.244 m -49.457,5.401 c 0.076,-0.045 0.149,-0.09 0.223,-0.135 2.722,-1.551 5.523,-3.151 8.271,-4.772 0.573,0.498 1.229,0.907 1.916,1.221 -0.011,1.473 -0.011,2.943 -0.011,4.422 v 1.371 c 0,0.025 0.011,0.055 0.011,0.08 0,0.563 0,1.135 -0.011,1.703 -0.005,1.342 -0.012,2.742 0.015,4.117 -0.682,0.243 -1.324,0.592 -1.893,1.03 -0.886,-0.608 -1.791,-1.209 -2.691,-1.803 -0.312,-0.207 -0.627,-0.416 -0.939,-0.623 -1.627,-1.084 -3.256,-2.168 -4.882,-3.258 0.124,-0.543 0.194,-1.094 0.194,-1.65 0,-0.582 -0.07,-1.141 -0.203,-1.703 m 8.578,-6.739 c -0.142,-0.008 -0.288,0.028 -0.415,0.092 -0.054,0.029 -0.104,0.059 -0.155,0.086 -2.862,1.697 -5.795,3.379 -8.641,5.004 -0.249,0.142 -0.498,0.283 -0.748,0.426 -0.325,0.189 -0.471,0.574 -0.351,0.929 0.197,0.606 0.295,1.207 0.295,1.828 0,0.596 -0.098,1.196 -0.28,1.762 -0.123,0.348 0.019,0.754 0.348,0.967 1.793,1.201 3.592,2.398 5.39,3.598 0.315,0.209 0.633,0.418 0.95,0.627 1.062,0.711 2.134,1.423 3.183,2.148 0.322,0.227 0.745,0.197 1.016,-0.055 0.656,-0.605 1.448,-1.048 2.31,-1.277 0.348,-0.09 0.591,-0.398 0.58,-0.766 v -0.255 c -0.036,-1.459 -0.034,-2.961 -0.023,-4.413 0,-0.597 0.008,-1.189 0.008,-1.787 0,-0.029 0,-0.06 -0.008,-0.082 v -1.289 c 0,-1.666 -0.011,-3.322 0.008,-4.996 0.006,-0.357 -0.223,-0.678 -0.577,-0.799 -0.865,-0.306 -1.666,-0.814 -2.312,-1.474 -0.162,-0.174 -0.367,-0.266 -0.578,-0.274 m -33.997,1.115 c 0.634,-0.248 1.228,-0.57 1.767,-0.976 0.369,0.252 0.748,0.51 1.118,0.756 1.298,0.881 2.597,1.76 3.894,2.638 1.404,0.957 2.812,1.915 4.23,2.866 -0.08,0.433 -0.125,0.867 -0.125,1.302 0,0.418 0.035,0.86 0.115,1.295 -0.088,0.049 -0.176,0.1 -0.265,0.151 -2.938,1.652 -5.979,3.353 -8.95,5.07 -0.534,-0.478 -1.146,-0.887 -1.797,-1.215 v -4.486 -1.276 c 0.013,-0.058 0.022,-0.117 0.022,-0.169 v -1.803 c 0.012,-1.365 0.017,-2.766 -0.009,-4.153 m 1.665,-2.804 c -0.2,-0.014 -0.411,0.045 -0.572,0.195 -0.61,0.559 -1.363,0.983 -2.186,1.213 -0.332,0.096 -0.562,0.398 -0.552,0.754 0.27,0.014 0.542,0.029 0.812,0.043 -0.27,0.006 -0.542,0.012 -0.812,0.019 0.001,0.043 0.003,0.086 0.005,0.131 0.034,1.496 0.028,3.028 0.028,4.5 -0.015,0.549 -0.015,1.1 -0.021,1.645 -0.007,0.051 -0.007,0.101 -0.007,0.162 v 1.447 c 0,1.676 0,3.367 -0.015,5.045 0,0.338 0.23,0.676 0.562,0.813 0.823,0.324 1.586,0.841 2.205,1.484 0.253,0.277 0.637,0.355 0.959,0.199 0.178,-0.078 0.367,-0.183 0.551,-0.287 2.975,-1.725 6.022,-3.426 8.979,-5.092 0.254,-0.142 0.507,-0.283 0.76,-0.425 0.297,-0.172 0.447,-0.54 0.363,-0.887 -0.135,-0.506 -0.206,-1.004 -0.206,-1.483 0,-0.492 0.071,-0.978 0.206,-1.47 0.089,-0.344 -0.057,-0.725 -0.363,-0.924 -1.575,-1.059 -3.142,-2.131 -4.722,-3.195 -1.297,-0.877 -2.593,-1.756 -3.89,-2.633 -0.553,-0.381 -1.102,-0.744 -1.642,-1.116 -0.136,-0.093 -0.286,-0.13 -0.442,-0.138 m 59.723,-6.955 c 0.738,-0.246 1.431,-0.606 2.054,-1.059 0.748,0.488 1.508,0.988 2.26,1.473 0.693,0.447 1.385,0.892 2.073,1.338 1.476,0.955 2.935,1.912 4.413,2.845 -0.09,0.483 -0.146,0.948 -0.146,1.42 0.002,0.487 0.047,0.957 0.138,1.424 -0.349,0.201 -0.697,0.406 -1.044,0.609 -2.543,1.504 -5.165,3.049 -7.725,4.624 -0.612,-0.491 -1.299,-0.872 -2.017,-1.147 0.007,-1.5 0.007,-2.998 0.007,-4.49 v -1.26 c 0,-0.027 -0.007,-0.053 -0.007,-0.07 0.002,-0.573 0.003,-1.143 0.007,-1.717 0,-1.324 0,-2.654 -0.013,-3.99 m 1.972,-2.879 c -0.193,-0.006 -0.388,0.051 -0.547,0.193 -0.693,0.615 -1.537,1.061 -2.455,1.264 -0.363,0.078 -0.618,0.408 -0.61,0.783 0.019,1.527 0.019,3.049 0.013,4.58 v 1.787 c -0.002,0.028 -0.002,0.045 0,0.072 v 1.194 c -0.002,1.695 -0.002,3.381 -0.006,5.072 -0.002,0.375 0.249,0.709 0.609,0.813 0.905,0.261 1.743,0.732 2.425,1.384 0.268,0.254 0.659,0.303 0.968,0.127 0.049,-0.029 0.097,-0.056 0.144,-0.086 2.682,-1.652 5.428,-3.267 8.1,-4.836 0.516,-0.304 1.031,-0.611 1.549,-0.918 0.31,-0.183 0.455,-0.55 0.35,-0.908 -0.141,-0.531 -0.224,-1.054 -0.224,-1.586 0,-0.515 0.083,-1.054 0.235,-1.58 0.104,-0.347 -0.051,-0.724 -0.356,-0.926 -1.646,-1.037 -3.277,-2.105 -4.915,-3.15 -0.694,-0.449 -1.386,-0.898 -2.078,-1.35 -0.92,-0.601 -1.843,-1.199 -2.758,-1.798 -0.129,-0.094 -0.282,-0.127 -0.444,-0.131 m -46.374,6.846 z m -12.671,-1.987 c 0.154,-0.086 0.309,-0.172 0.463,-0.26 2.879,-1.605 5.846,-3.277 8.748,-4.97 0.561,0.504 1.181,0.912 1.856,1.226 -0.008,1.449 -0.008,2.901 -0.008,4.346 v 1.355 c -0.012,0.075 -0.039,0.127 -0.037,0.206 v 1.794 c -0.008,1.354 -0.021,2.756 0.025,4.139 -0.643,0.242 -1.243,0.574 -1.781,0.99 -1.289,-0.875 -2.593,-1.754 -3.877,-2.623 -0.279,-0.191 -0.558,-0.386 -0.838,-0.58 -1.517,-1.021 -3.041,-2.047 -4.551,-3.076 0.077,-0.412 0.113,-0.832 0.113,-1.258 0,-0.412 -0.036,-0.851 -0.113,-1.289 m 9.311,-7.053 c -0.137,-0.005 -0.275,0.026 -0.405,0.081 -0.144,0.074 -0.302,0.162 -0.462,0.242 -2.928,1.715 -5.932,3.408 -8.836,5.039 -0.324,0.178 -0.645,0.355 -0.966,0.535 -0.31,0.164 -0.45,0.527 -0.358,0.881 0.132,0.49 0.205,0.996 0.207,1.469 0,0.474 -0.071,0.968 -0.2,1.435 -0.091,0.338 0.051,0.709 0.357,0.916 1.679,1.152 3.352,2.289 5.038,3.424 0.278,0.187 0.555,0.377 0.831,0.564 1.476,0.991 2.939,1.983 4.399,2.983 0.313,0.215 0.733,0.189 1.005,-0.051 0.617,-0.58 1.388,-1.006 2.214,-1.24 0.34,-0.09 0.559,-0.395 0.559,-0.754 V -32.1 c -0.049,-1.492 -0.049,-3.025 -0.043,-4.486 0.008,-0.545 0.02,-1.072 0.02,-1.602 0.015,-0.064 0.023,-0.142 0.023,-0.207 v -1.56 c 0,-1.635 0,-3.266 0.006,-4.908 0,-0.354 -0.225,-0.686 -0.557,-0.807 -0.849,-0.326 -1.633,-0.84 -2.262,-1.494 -0.158,-0.166 -0.367,-0.262 -0.57,-0.272 m 52.496,-3.326 c 2.845,-1.689 5.779,-3.424 8.656,-5.179 0.602,0.49 1.269,0.894 1.971,1.185 v 4.152 1.493 c -0.008,0.043 -0.015,0.088 -0.015,0.144 v 1.848 4.041 c -0.678,0.258 -1.327,0.615 -1.901,1.058 -0.424,-0.271 -0.836,-0.539 -1.256,-0.808 -0.413,-0.264 -0.826,-0.526 -1.24,-0.789 -2.059,-1.346 -4.135,-2.678 -6.193,-4.031 0.103,-0.5 0.159,-0.997 0.159,-1.5 0.002,-0.536 -0.062,-1.096 -0.181,-1.614 m 8.752,-7.006 c -0.148,-0.003 -0.303,0.032 -0.435,0.112 -0.057,0.033 -0.115,0.066 -0.17,0.097 -3.082,1.881 -6.227,3.741 -9.27,5.541 -0.086,0.053 -0.17,0.106 -0.256,0.157 -0.319,0.187 -0.463,0.568 -0.347,0.923 0.179,0.571 0.267,1.161 0.267,1.745 0,0.548 -0.08,1.103 -0.239,1.627 -0.105,0.353 0.035,0.738 0.34,0.941 2.239,1.469 4.473,2.916 6.71,4.371 0.418,0.268 0.832,0.533 1.25,0.803 0.582,0.369 1.166,0.742 1.746,1.127 0.316,0.195 0.734,0.17 0.998,-0.082 0.665,-0.61 1.463,-1.055 2.314,-1.282 0.352,-0.099 0.594,-0.419 0.594,-0.783 v -0.285 -4.33 -1.695 c 0,-0.047 0.008,-0.1 0.008,-0.149 v -1.638 c 0,-1.577 0.002,-3.155 0.008,-4.733 0,-0.363 -0.235,-0.687 -0.584,-0.801 -0.895,-0.275 -1.709,-0.771 -2.374,-1.429 -0.154,-0.149 -0.357,-0.233 -0.56,-0.237 m -74.887,-0.209 c 0.651,-0.248 1.263,-0.58 1.805,-1.005 0.086,0.058 0.172,0.115 0.258,0.175 l 2.056,1.401 c 2.299,1.562 4.6,3.125 6.909,4.676 -0.086,0.449 -0.131,0.888 -0.131,1.339 0,0.414 0.035,0.844 0.115,1.268 -0.326,0.185 -0.652,0.371 -0.98,0.557 -2.707,1.523 -5.504,3.091 -8.239,4.67 -0.545,-0.471 -1.146,-0.883 -1.793,-1.204 0.004,-1.574 0.004,-3.15 0,-4.732 v -1.221 -0.097 z m 1.721,-2.849 c -0.217,-0.012 -0.43,0.062 -0.586,0.213 -0.611,0.576 -1.378,1.002 -2.215,1.236 -0.332,0.086 -0.552,0.387 -0.552,0.734 v 6.495 c 0,0.037 0,0.072 0.005,0.113 v 1.105 c 0,1.77 0,3.532 -0.005,5.297 -0.01,0.346 0.22,0.674 0.552,0.809 0.823,0.334 1.576,0.847 2.194,1.488 0.259,0.26 0.648,0.344 0.97,0.197 0.131,-0.078 0.278,-0.152 0.419,-0.234 2.781,-1.609 5.632,-3.215 8.386,-4.77 0.493,-0.277 0.986,-0.554 1.479,-0.83 0.299,-0.168 0.453,-0.529 0.355,-0.871 -0.121,-0.508 -0.192,-0.984 -0.192,-1.461 0,-0.506 0.071,-1.002 0.212,-1.511 0.092,-0.332 -0.063,-0.713 -0.356,-0.909 -2.47,-1.673 -4.941,-3.353 -7.412,-5.017 -0.941,-0.643 -1.885,-1.287 -2.826,-1.936 -0.129,-0.095 -0.288,-0.14 -0.428,-0.148 m 61.605,7.558 c 0.151,0.004 0.303,-0.031 0.43,-0.109 0.518,-0.311 1.053,-0.619 1.571,-0.922 0.966,-0.572 1.932,-1.146 2.898,-1.719 1.768,-1.043 3.56,-2.109 5.338,-3.166 0.31,-0.183 0.455,-0.554 0.361,-0.908 -0.152,-0.529 -0.235,-1.066 -0.235,-1.588 0,-3.152 2.58,-5.656 5.739,-5.591 3.166,0.064 5.738,2.675 5.738,5.828 0,2.629 -1.793,4.888 -4.359,5.464 -0.374,0.092 -0.627,0.411 -0.619,0.784 0.004,4.023 0.017,8.34 -0.008,12.695 0,0.365 0.253,0.707 0.619,0.809 2.574,0.679 4.367,2.988 4.367,5.619 0,2.648 -1.793,4.896 -4.359,5.472 -0.374,0.082 -0.627,0.409 -0.619,0.78 0.021,4.146 0.017,8.205 0,12.695 0,0.383 0.254,0.711 0.619,0.811 2.566,0.683 4.359,2.992 4.359,5.632 0,2.637 -1.793,4.875 -4.367,5.469 -0.366,0.078 -0.619,0.406 -0.619,0.772 0.012,3.961 0.008,8.105 -0.018,12.687 0,0.385 0.248,0.709 0.622,0.817 2.582,0.669 4.382,2.994 4.382,5.626 0,3.157 -2.572,5.682 -5.738,5.616 C 10.13,20.24 7.55,17.611 7.55,14.453 7.55,13.928 7.633,13.389 7.785,12.871 7.889,12.52 7.734,12.133 7.424,11.936 7.22,11.816 7.029,11.703 6.836,11.555 6.267,11.189 5.695,10.826 5.127,10.459 2.635,8.857 0.146,7.248 -2.334,5.645 -2.646,5.441 -3.057,5.469 -3.318,5.701 -4.389,6.648 -5.768,7.139 -7.201,7.096 -10.359,6.998 -12.93,4.344 -12.93,1.187 c 0,-0.527 0.072,-1.064 0.223,-1.576 0.104,-0.355 -0.037,-0.736 -0.35,-0.943 -1.136,-0.738 -2.269,-1.477 -3.398,-2.232 -2.096,-1.368 -4.191,-2.741 -6.287,-4.116 -0.309,-0.211 -0.701,-0.187 -0.983,0.041 -1.047,0.907 -2.406,1.373 -3.82,1.317 -1.486,-0.063 -2.91,-0.698 -3.986,-1.785 -0.262,-0.262 -0.682,-0.325 -1.001,-0.147 -2.142,1.256 -4.296,2.492 -6.446,3.721 -1.038,0.594 -2.075,1.187 -3.11,1.781 -0.332,0.186 -0.476,0.57 -0.351,0.932 0.197,0.607 0.295,1.222 0.295,1.826 0,3.156 -2.571,5.601 -5.731,5.441 -1.519,-0.076 -2.963,-0.734 -4.044,-1.867 -0.268,-0.287 -0.691,-0.355 -1.019,-0.16 -0.956,0.549 -1.923,1.098 -2.899,1.648 -1.418,0.807 -2.837,1.612 -4.255,2.414 -1.027,0.584 -2.051,1.161 -3.077,1.741 -0.3,0.173 -0.45,0.527 -0.358,0.879 0.132,0.507 0.205,0.998 0.207,1.47 0,3.158 -2.585,5.576 -5.739,5.387 -3.164,-0.193 -5.727,-2.926 -5.727,-6.082 0,-2.729 1.938,-4.969 4.62,-5.318 0.379,-0.061 0.661,-0.377 0.661,-0.768 -0.022,-4.184 -0.034,-8.359 -0.011,-12.543 0,-0.393 -0.279,-0.754 -0.658,-0.848 -2.674,-0.685 -4.612,-3.181 -4.612,-5.894 0,-2.719 1.928,-4.953 4.594,-5.324 0.382,-0.051 0.653,-0.375 0.653,-0.772 -0.043,-4.91 -0.054,-8.887 -0.013,-12.551 0.013,-0.38 -0.264,-0.742 -0.646,-0.851 -2.66,-0.688 -4.588,-3.168 -4.588,-5.893 0,-2.699 1.921,-4.937 4.571,-5.312 0.377,-0.057 0.655,-0.377 0.655,-0.762 v -0.812 -2.913 c 0,-2.894 0,-5.89 0.044,-8.82 0,-0.392 -0.279,-0.746 -0.666,-0.857 -2.666,-0.684 -4.604,-3.178 -4.604,-5.895 0,-3.152 2.563,-5.555 5.727,-5.361 3.154,0.189 5.739,2.904 5.739,6.056 -0.002,0.473 -0.071,0.956 -0.207,1.444 -0.084,0.338 0.048,0.717 0.358,0.916 3.454,2.328 6.869,4.642 10.282,6.955 0.313,0.215 0.737,0.195 0.997,-0.055 1.083,-0.992 2.507,-1.502 4.015,-1.426 3.16,0.159 5.731,2.838 5.731,6.002 0,2.69 -1.909,4.959 -4.55,5.37 -0.387,0.068 -0.652,0.388 -0.652,0.783 v 4.767 1.5 c 0,0.051 0.007,0.121 0.024,0.176 0,0.539 0,1.082 0.008,1.635 0.003,1.463 0.012,2.988 -0.032,4.459 -0.006,0.392 0.254,0.76 0.652,0.859 0.951,0.244 1.847,0.733 2.59,1.428 0.281,0.248 0.672,0.301 0.978,0.131 1.601,-0.92 3.214,-1.846 4.825,-2.772 0.889,-0.506 1.778,-1.013 2.665,-1.519 0.747,-0.436 1.49,-0.871 2.226,-1.322 0.293,-0.176 0.434,-0.532 0.346,-0.877 -0.143,-0.514 -0.208,-1.014 -0.208,-1.508 0,-3.158 2.57,-5.614 5.727,-5.485 3.168,0.127 5.74,2.789 5.74,5.948 0,0.584 -0.09,1.164 -0.261,1.705 -0.114,0.351 0.027,0.744 0.357,0.951 3.199,2.103 6.396,4.199 9.596,6.289 0.312,0.197 0.724,0.17 0.988,-0.068 0.665,-0.602 1.487,-1.041 2.357,-1.266 0.348,-0.086 0.595,-0.396 0.595,-0.77 -0.01,-2.826 -0.022,-5.654 -0.032,-8.482 v -2.879 -1.445 c 0,-0.365 -0.235,-0.69 -0.581,-0.805 -2.44,-0.777 -4.144,-3.092 -4.144,-5.623 0,-3.162 2.571,-5.631 5.729,-5.535 1.414,0.043 2.779,0.603 3.84,1.588 0.153,0.148 0.351,0.221 0.548,0.224 m 16.102,-15.638 c -4.064,-0.082 -7.373,3.133 -7.373,7.187 0,0.473 0.058,0.948 0.138,1.428 -1.603,0.957 -3.224,1.91 -4.827,2.865 -0.965,0.574 -1.93,1.145 -2.894,1.713 -0.37,0.211 -0.725,0.418 -1.085,0.641 -1.277,-1.024 -2.836,-1.592 -4.449,-1.641 -4.068,-0.125 -7.37,3.065 -7.37,7.113 0,3.041 1.926,5.854 4.741,7.026 -0.002,0.283 -0.006,0.566 -0.008,0.849 v 2.879 c 0.008,2.635 0.018,5.27 0.026,7.907 -0.7,0.24 -1.36,0.593 -1.952,1.041 -2.859,-1.864 -5.719,-3.735 -8.58,-5.612 0.119,-0.521 0.18,-1.051 0.18,-1.582 0,-4.051 -3.311,-7.467 -7.381,-7.631 -4.059,-0.164 -7.365,2.983 -7.365,7.037 0,0.454 0.048,0.889 0.129,1.348 -0.571,0.332 -1.144,0.668 -1.717,1.002 -0.888,0.51 -1.773,1.02 -2.662,1.527 -1.448,0.827 -2.894,1.649 -4.342,2.473 -0.665,-0.529 -1.406,-0.935 -2.195,-1.215 0.032,-1.301 0.023,-2.605 0.015,-3.877 0,-0.595 -0.006,-1.197 -0.006,-1.795 0,-0.064 -0.009,-0.121 -0.011,-0.175 v -1.327 -4.146 c 3.038,-0.785 5.195,-3.539 5.195,-6.779 0,-4.047 -3.305,-7.504 -7.371,-7.711 -1.711,-0.084 -3.354,0.422 -4.662,1.427 -3.09,-2.091 -6.178,-4.177 -9.274,-6.267 0.077,-0.418 0.113,-0.846 0.113,-1.266 0,-4.053 -3.301,-7.539 -7.361,-7.787 -4.062,-0.244 -7.358,2.84 -7.358,6.893 0,3.267 2.167,6.277 5.257,7.381 -0.041,2.732 -0.041,5.503 -0.033,8.197 v 2.912 0.174 c -3.069,0.754 -5.227,3.465 -5.224,6.709 0,3.263 2.161,6.256 5.23,7.377 -0.026,3.314 -0.026,6.947 0.008,11.295 -3.077,0.726 -5.238,3.455 -5.238,6.718 0,3.278 2.171,6.272 5.27,7.375 -0.013,3.766 -0.007,7.516 0,11.28 -3.099,0.714 -5.27,3.443 -5.27,6.714 0,4.059 3.296,7.573 7.358,7.821 4.06,0.244 7.361,-2.867 7.361,-6.926 0,-0.426 -0.036,-0.842 -0.113,-1.283 0.862,-0.492 1.721,-0.985 2.581,-1.471 1.417,-0.803 2.835,-1.603 4.251,-2.406 0.805,-0.461 1.599,-0.91 2.391,-1.369 1.33,1.174 2.981,1.855 4.713,1.941 4.066,0.207 7.371,-2.933 7.371,-6.996 0,-0.568 -0.07,-1.133 -0.203,-1.705 0.865,-0.494 1.731,-0.992 2.597,-1.486 1.972,-1.131 3.95,-2.266 5.932,-3.422 1.314,1.127 2.941,1.773 4.633,1.844 1.608,0.064 3.157,-0.409 4.442,-1.319 1.926,1.268 3.851,2.529 5.777,3.789 0.965,0.645 1.931,1.287 2.902,1.92 -0.099,0.471 -0.147,0.959 -0.147,1.43 0,4.06 3.302,7.469 7.37,7.594 1.636,0.048 3.219,-0.444 4.511,-1.399 2.306,1.502 4.625,3.008 6.952,4.492 0.564,0.366 1.127,0.731 1.689,1.096 0.045,0.029 0.084,0.049 0.111,0.064 -0.09,0.487 -0.146,0.958 -0.146,1.434 0.002,4.059 3.309,7.44 7.373,7.523 4.068,0.086 7.375,-3.162 7.375,-7.22 0,-3.182 -2.021,-5.988 -5.006,-7.049 0.024,-4.119 0.031,-7.879 0.024,-11.469 2.964,-0.957 4.982,-3.693 4.982,-6.851 0,-3.172 -2.01,-5.975 -4.982,-7.041 0.015,-4.041 0.019,-7.746 0,-11.487 2.97,-0.951 4.984,-3.691 4.982,-6.863 0.002,-3.174 -2.018,-5.969 -4.982,-7.035 0.015,-3.932 0.007,-7.818 0,-11.475 2.964,-0.959 4.982,-3.693 4.982,-6.863 0.002,-4.053 -3.307,-7.404 -7.375,-7.49"
             style="fill:#d01527;fill-opacity:1;fill-rule:nonzero;stroke:none"
             id="path40"
             inkscape:connector-curvature="0" /></g><g
           id="g42"
           transform="translate(98.7813,345.6016)"
           style="fill:#d01527;fill-opacity:1;fill-rule:nonzero"><path
             d="M 0,0 C 9.176,1.453 18.36,2.846 27.552,4.174 V -62.68 c 13.199,1.91 26.411,3.69 39.635,5.34 V -80.379 C 44.755,-83.178 22.356,-86.35 0,-89.891 Z"
             style="fill:#d01527;fill-opacity:1;fill-rule:nonzero;stroke:none"
             id="path44"
             inkscape:connector-curvature="0" /></g><g
           id="g46"
           transform="translate(224.4189,303.7793)"
           style="fill:#d01527;fill-opacity:1;fill-rule:nonzero"><path
             d="M 0,0 C -2.685,8.973 -5.367,17.941 -8.05,26.906 -8.136,26.896 -8.22,26.889 -8.306,26.881 -11.199,17.359 -14.095,7.832 -16.988,-1.701 -11.326,-1.111 -5.664,-0.545 0,0 m -21.763,55.58 c 9.013,0.963 18.029,1.865 27.049,2.707 10.909,-28.945 21.824,-57.978 32.743,-87.098 -9.577,-0.74 -19.15,-1.546 -28.716,-2.421 -1.259,4.166 -2.519,8.332 -3.778,12.496 -9.523,-0.887 -19.044,-1.844 -28.558,-2.864 -1.34,-4.425 -2.681,-8.851 -4.021,-13.279 -9.262,-1.012 -18.519,-2.088 -27.769,-3.228 11.01,31.32 22.025,62.548 33.05,93.687"
             style="fill:#d01527;fill-opacity:1;fill-rule:nonzero;stroke:none"
             id="path48"
             inkscape:connector-curvature="0" /></g><g
           id="g50"
           transform="translate(395.0605,370.832)"
           style="fill:#d01527;fill-opacity:1;fill-rule:nonzero"><path
             d="M 0,0 C 9.26,0.117 18.521,0.176 27.78,0.168 V -89.723 C 18.521,-89.715 9.26,-89.771 0,-89.893 Z"
             style="fill:#d01527;fill-opacity:1;fill-rule:nonzero;stroke:none"
             id="path52"
             inkscape:connector-curvature="0" /></g><g
           id="g54"
           transform="translate(459.208,310.9805)"
           style="fill:#d01527;fill-opacity:1;fill-rule:nonzero"><path
             d="m 0,0 c 0,-2.184 0.337,-4.158 1.008,-5.937 1.015,-2.702 2.824,-4.497 5.433,-5.391 2.609,-0.901 5.215,-1.373 7.825,-1.442 1.095,-0.025 2.317,0.041 3.668,0.215 1.342,0.17 2.609,0.561 3.787,1.157 1.173,0.597 2.142,1.404 2.901,2.433 0.756,1.024 1.138,2.373 1.138,4.057 0,1.172 -0.29,2.164 -0.886,2.982 -0.589,0.819 -1.603,1.6 -3.032,2.356 C 20.411,1.187 18.433,1.992 15.91,2.859 13.388,3.723 10.188,4.744 6.314,5.92 2.78,7.004 -0.82,8.143 -4.48,9.332 c -3.661,1.189 -6.948,2.746 -9.849,4.668 -2.904,1.92 -5.285,4.332 -7.14,7.246 -1.848,2.91 -2.78,6.631 -2.78,11.158 0,5.207 1.033,9.672 3.102,13.393 2.063,3.715 4.769,6.773 8.143,9.17 3.371,2.387 7.236,4.121 11.615,5.176 4.379,1.056 8.88,1.529 13.51,1.416 4.881,-0.116 9.554,-0.746 14.02,-1.895 4.455,-1.146 8.409,-2.939 11.858,-5.373 3.448,-2.439 6.231,-5.572 8.326,-9.385 2.113,-3.826 3.246,-8.467 3.412,-13.933 -8.748,0.371 -17.5,0.685 -26.252,0.945 0.249,1.674 0.063,3.107 -0.571,4.303 -0.628,1.191 -1.534,2.181 -2.707,2.974 -1.182,0.868 -2.489,1.493 -3.919,1.866 -1.426,0.369 -2.857,0.574 -4.295,0.609 C 11.074,41.691 10.019,41.637 8.844,41.494 7.663,41.352 6.566,41.082 5.555,40.691 4.544,40.285 3.703,39.693 3.03,38.908 2.358,38.123 2.023,37.1 2.023,35.844 2.104,34.25 2.922,32.908 4.485,31.83 c 1.553,-1.082 3.559,-2.043 5.992,-2.904 2.446,-0.85 5.197,-1.672 8.273,-2.469 3.071,-0.803 6.208,-1.67 9.408,-2.609 3.196,-1.028 6.311,-2.229 9.342,-3.598 3.029,-1.369 5.746,-3.09 8.138,-5.158 2.398,-2.069 4.312,-4.584 5.743,-7.543 1.428,-2.957 2.143,-6.492 2.143,-10.602 0,-5.877 -1.216,-10.738 -3.656,-14.576 -2.443,-3.838 -5.638,-6.873 -9.599,-9.115 -3.948,-2.246 -8.408,-3.809 -13.375,-4.699 -4.966,-0.891 -9.976,-1.284 -15.02,-1.162 -1.687,0.041 -3.83,0.218 -6.441,0.525 -2.612,0.305 -5.39,0.906 -8.337,1.793 -2.951,0.889 -5.894,2.064 -8.838,3.535 -2.949,1.459 -5.601,3.416 -7.958,5.869 -2.361,2.453 -4.29,5.408 -5.804,8.86 -1.517,3.449 -2.273,7.566 -2.273,12.345 C -18.518,0.275 -9.258,0.17 0,0"
             style="fill:#d01527;fill-opacity:1;fill-rule:nonzero;stroke:none"
             id="path56"
             inkscape:connector-curvature="0" /></g><g
           id="g58"
           transform="translate(521.3115,368.5859)"
           style="fill:#d01527;fill-opacity:1;fill-rule:nonzero"><path
             d="M 0,0 C 9.253,-0.447 18.505,-0.957 27.754,-1.529 V -91.42 C 18.505,-90.848 9.253,-90.338 0,-89.891 Z"
             style="fill:#d01527;fill-opacity:1;fill-rule:nonzero;stroke:none"
             id="path60"
             inkscape:connector-curvature="0" /></g><g
           id="g62"
           transform="translate(612.4385,368.6973)"
           style="fill:#d01527;fill-opacity:1;fill-rule:nonzero"><path
             d="M 0,0 C -5.706,0.529 -11.413,1.035 -17.12,1.518 -12.966,7.42 -8.813,13.309 -4.658,19.186 4.114,18.391 12.883,17.539 21.646,16.629 14.434,11.125 7.217,5.582 0,0 m -24.051,-49.398 c 0,-5.036 0.605,-9.198 1.821,-12.487 1.223,-3.295 2.713,-5.912 4.474,-7.861 1.767,-1.955 3.696,-3.387 5.796,-4.275 2.096,-0.899 4.03,-1.43 5.794,-1.588 1.762,-0.159 3.693,0.027 5.788,0.545 2.102,0.515 4.033,1.597 5.79,3.236 1.759,1.631 3.251,3.978 4.467,7.057 1.22,3.07 1.823,7.123 1.823,12.158 0,5.033 -0.603,9.205 -1.823,12.517 -1.216,3.307 -2.708,5.948 -4.467,7.922 -1.757,1.973 -3.688,3.412 -5.79,4.32 -2.095,0.911 -4.026,1.442 -5.788,1.6 -1.764,0.158 -3.698,-0.023 -5.794,-0.558 -2.1,-0.53 -4.029,-1.624 -5.796,-3.28 -1.761,-1.658 -3.251,-4.029 -4.474,-7.117 -1.216,-3.094 -1.821,-7.156 -1.821,-12.189 m -27.726,2.06 c 0,6.877 1.093,13.129 3.277,18.729 2.185,5.589 5.274,10.332 9.263,14.189 3.997,3.859 8.801,6.744 14.428,8.641 5.627,1.89 11.846,2.545 18.643,1.933 6.802,-0.611 13.004,-2.381 18.623,-5.285 5.624,-2.908 10.42,-6.654 14.407,-11.232 3.981,-4.576 7.059,-9.871 9.24,-15.856 2.175,-5.99 3.272,-12.437 3.272,-19.314 0,-6.883 -1.097,-13.08 -3.272,-18.584 -2.179,-5.508 -5.26,-10.121 -9.24,-13.852 -3.987,-3.73 -8.786,-6.488 -14.407,-8.281 -5.619,-1.793 -11.821,-2.379 -18.623,-1.768 -6.797,0.612 -13.016,2.317 -18.643,5.122 -5.627,2.802 -10.431,6.419 -14.428,10.875 -3.989,4.443 -7.078,9.611 -9.263,15.513 -2.184,5.895 -3.277,12.287 -3.277,19.17"
             style="fill:#d01527;fill-opacity:1;fill-rule:nonzero;stroke:none"
             id="path64"
             inkscape:connector-curvature="0" /></g><g
           id="g66"
           transform="translate(663.626,356.7461)"
           style="fill:#d01527;fill-opacity:1;fill-rule:nonzero"><path
             d="m 0,0 c 9.422,-1.113 18.837,-2.291 28.246,-3.535 8.698,-17.18 17.391,-34.416 26.076,-51.705 0.084,-0.012 0.165,-0.026 0.247,-0.037 v 48.088 c 8.689,-1.262 17.373,-2.581 26.05,-3.956 v -89.89 c -8.927,1.414 -17.861,2.769 -26.799,4.064 -9.145,17.696 -18.296,35.326 -27.453,52.895 -0.086,0.012 -0.172,0.023 -0.258,0.033 V -93.145 C 17.41,-92.002 8.708,-90.92 0,-89.891 Z"
             style="fill:#d01527;fill-opacity:1;fill-rule:nonzero;stroke:none"
             id="path68"
             inkscape:connector-curvature="0" /></g><g
           id="g70"
           transform="translate(183.6157,240.0957)"
           style="fill:#d01527;fill-opacity:1;fill-rule:nonzero"><path
             d="M 0,0 C 2.599,0.309 3.896,0.457 6.495,0.758 5.241,4.305 4.616,6.078 3.362,9.623 3.335,9.617 3.321,9.619 3.294,9.615 1.979,5.77 1.315,3.852 0,0 M 0.573,15.492 C 2.834,15.76 3.965,15.898 6.227,16.16 9.949,6.533 11.807,1.707 15.531,-7.937 13.242,-8.193 12.1,-8.314 9.81,-8.578 9.057,-6.426 8.68,-5.35 7.927,-3.197 c -3.751,-0.43 -5.621,-0.655 -9.37,-1.104 -0.792,-2.33 -1.197,-3.498 -1.989,-5.832 -2.235,-0.269 -3.35,-0.408 -5.582,-0.683 3.832,10.531 5.752,15.795 9.587,26.308"
             style="fill:#d01527;fill-opacity:1;fill-rule:nonzero;stroke:none"
             id="path72"
             inkscape:connector-curvature="0" /></g><g
           id="g74"
           transform="translate(218.9795,259.4219)"
           style="fill:#d01527;fill-opacity:1;fill-rule:nonzero"><path
             d="m 0,0 c 2.194,0.223 3.287,0.328 5.48,0.545 4.175,-6.336 6.262,-9.51 10.437,-15.869 0.029,0.002 0.043,0.008 0.072,0.01 0.018,6.748 0.028,10.125 0.047,16.875 2.068,0.191 3.11,0.289 5.178,0.476 -0.028,-10.06 -0.048,-15.098 -0.077,-25.156 -2.21,-0.201 -3.315,-0.307 -5.525,-0.514 -4.163,6.344 -6.239,9.518 -10.4,15.842 C 5.184,-7.793 5.173,-7.799 5.145,-7.801 5.126,-14.537 5.112,-17.904 5.094,-24.641 3.027,-24.848 1.996,-24.953 -0.071,-25.162 -0.044,-15.102 -0.028,-10.061 0,0"
             style="fill:#d01527;fill-opacity:1;fill-rule:nonzero;stroke:none"
             id="path76"
             inkscape:connector-curvature="0" /></g><g
           id="g78"
           transform="translate(268.1992,259.1602)"
           style="fill:#d01527;fill-opacity:1;fill-rule:nonzero"><path
             d="m 0,0 c -3.014,-0.23 -4.52,-0.354 -7.534,-0.598 0.007,1.862 0.007,2.791 0.013,4.655 C 0.719,4.719 4.838,5.033 13.083,5.613 13.076,3.75 13.076,2.822 13.07,0.961 10.055,0.748 8.546,0.641 5.53,0.416 5.508,-7.781 5.491,-11.893 5.469,-20.092 3.257,-20.256 2.155,-20.34 -0.057,-20.51 -0.034,-12.309 -0.021,-8.201 0,0"
             style="fill:#d01527;fill-opacity:1;fill-rule:nonzero;stroke:none"
             id="path80"
             inkscape:connector-curvature="0" /></g><g
           id="g82"
           transform="translate(301.793,266.1211)"
           style="fill:#d01527;fill-opacity:1;fill-rule:nonzero"><path
             d="M 0,0 C 2.214,0.133 3.318,0.193 5.533,0.318 5.504,-9.742 5.49,-14.773 5.463,-24.834 3.248,-24.961 2.138,-25.031 -0.076,-25.166 -0.05,-15.104 -0.029,-10.061 0,0"
             style="fill:#d01527;fill-opacity:1;fill-rule:nonzero;stroke:none"
             id="path84"
             inkscape:connector-curvature="0" /></g><g
           id="g86"
           transform="translate(357.2695,268.7109)"
           style="fill:#d01527;fill-opacity:1;fill-rule:nonzero"><path
             d="M 0,0 C 2.215,0.074 3.326,0.105 5.54,0.172 5.512,-9.889 5.493,-14.926 5.467,-24.986 3.25,-25.055 2.145,-25.084 -0.068,-25.158 -0.043,-15.096 -0.027,-10.061 0,0"
             style="fill:#d01527;fill-opacity:1;fill-rule:nonzero;stroke:none"
             id="path88"
             inkscape:connector-curvature="0" /></g><g
           id="g90"
           transform="translate(385.3232,269.4453)"
           style="fill:#d01527;fill-opacity:1;fill-rule:nonzero"><path
             d="m 0,0 c 2.201,0.043 3.303,0.064 5.505,0.102 4.188,-6.68 6.281,-10.03 10.473,-16.733 h 0.069 c 0.016,6.754 0.026,10.129 0.046,16.877 2.074,0.025 3.113,0.029 5.189,0.049 -0.029,-10.065 -0.048,-15.092 -0.074,-25.154 -2.217,-0.022 -3.323,-0.03 -5.539,-0.057 C 11.491,-18.23 9.405,-14.885 5.23,-8.219 5.202,-8.219 5.193,-8.223 5.165,-8.223 5.146,-14.961 5.132,-18.332 5.115,-25.068 3.04,-25.102 2.005,-25.115 -0.069,-25.156 -0.043,-15.094 -0.028,-10.063 0,0"
             style="fill:#d01527;fill-opacity:1;fill-rule:nonzero;stroke:none"
             id="path92"
             inkscape:connector-curvature="0" /></g><g
           id="g94"
           transform="translate(429.123,269.8164)"
           style="fill:#d01527;fill-opacity:1;fill-rule:nonzero"><path
             d="m 0,0 c 7.088,-0.014 10.636,-0.031 17.723,-0.111 -0.007,-1.86 -0.007,-2.789 -0.01,-4.653 -4.873,0.053 -7.317,0.069 -12.189,0.094 -0.005,-2.324 -0.01,-3.486 -0.016,-5.81 4.221,-0.02 6.334,-0.036 10.554,-0.079 -0.003,-1.718 -0.001,-2.578 -0.004,-4.296 -4.222,0.042 -6.336,0.056 -10.558,0.078 -0.01,-4.157 -0.02,-6.239 -0.029,-10.397 -2.216,0.012 -3.328,0.018 -5.545,0.022 C -0.048,-15.092 -0.029,-10.061 0,0"
             style="fill:#d01527;fill-opacity:1;fill-rule:nonzero;stroke:none"
             id="path96"
             inkscape:connector-curvature="0" /></g><g
           id="g98"
           transform="translate(467.6992,269.375)"
           style="fill:#d01527;fill-opacity:1;fill-rule:nonzero"><path
             d="M 0,0 C 2.216,-0.047 3.322,-0.08 5.538,-0.135 5.516,-8.334 5.503,-12.426 5.48,-20.631 c 4.912,-0.117 7.367,-0.183 12.278,-0.332 -0.003,-1.859 -0.008,-2.793 -0.012,-4.654 -7.128,0.213 -10.69,0.31 -17.817,0.463 C -0.044,-15.094 -0.026,-10.061 0,0"
             style="fill:#d01527;fill-opacity:1;fill-rule:nonzero;stroke:none"
             id="path100"
             inkscape:connector-curvature="0" /></g><g
           id="g102"
           transform="translate(512.5713,252.5)"
           style="fill:#d01527;fill-opacity:1;fill-rule:nonzero"><path
             d="M 0,0 C 2.609,-0.111 3.908,-0.172 6.517,-0.295 5.26,3.459 4.628,5.332 3.37,9.082 3.342,9.084 3.331,9.084 3.303,9.086 1.98,5.453 1.321,3.637 0,0 m 0.571,15.408 c 2.271,-0.099 3.405,-0.146 5.676,-0.254 3.739,-10.234 5.606,-15.365 9.344,-25.617 -2.299,0.115 -3.448,0.174 -5.748,0.283 -0.757,2.278 -1.134,3.418 -1.892,5.694 -3.764,0.177 -5.647,0.259 -9.415,0.422 -0.795,-2.207 -1.196,-3.311 -1.992,-5.52 -2.242,0.092 -3.358,0.137 -5.601,0.225 3.849,9.912 5.776,14.871 9.628,24.767"
             style="fill:#d01527;fill-opacity:1;fill-rule:nonzero;stroke:none"
             id="path104"
             inkscape:connector-curvature="0" /></g><g
           id="g106"
           transform="translate(564.7988,256.5469)"
           style="fill:#d01527;fill-opacity:1;fill-rule:nonzero"><path
             d="M 0,0 C -0.092,0.639 -0.305,1.236 -0.632,1.785 -0.959,2.336 -1.373,2.83 -1.863,3.26 -2.355,3.693 -2.909,4.043 -3.531,4.311 -4.155,4.57 -4.805,4.732 -5.483,4.775 -6.729,4.859 -7.788,4.691 -8.659,4.262 -9.529,3.84 -10.237,3.227 -10.777,2.455 -11.321,1.68 -11.721,0.787 -11.969,-0.23 c -0.249,-1.02 -0.375,-2.083 -0.376,-3.184 -0.002,-1.057 0.113,-2.092 0.359,-3.107 0.243,-1.018 0.632,-1.938 1.173,-2.768 0.535,-0.834 1.239,-1.518 2.104,-2.051 0.87,-0.539 1.929,-0.855 3.175,-0.937 1.689,-0.114 3.013,0.324 3.968,1.306 0.952,0.979 1.538,2.297 1.753,3.95 2.143,-0.149 3.214,-0.227 5.357,-0.381 -0.146,-1.561 -0.51,-2.959 -1.102,-4.186 -0.59,-1.223 -1.373,-2.246 -2.338,-3.074 -0.966,-0.824 -2.093,-1.432 -3.388,-1.826 -1.292,-0.393 -2.714,-0.537 -4.263,-0.436 -1.951,0.129 -3.689,0.578 -5.214,1.356 -1.527,0.781 -2.807,1.785 -3.863,3.027 -1.055,1.238 -1.867,2.68 -2.427,4.312 -0.559,1.624 -0.835,3.346 -0.832,5.159 0.005,1.853 0.289,3.574 0.856,5.16 0.569,1.582 1.387,2.941 2.447,4.076 1.062,1.133 2.353,1.992 3.884,2.574 1.529,0.582 3.272,0.817 5.223,0.686 1.385,-0.09 2.689,-0.375 3.92,-0.856 C -0.317,8.086 0.792,7.422 1.765,6.59 2.736,5.76 3.534,4.76 4.165,3.59 4.795,2.414 5.191,1.09 5.352,-0.375 3.211,-0.221 2.143,-0.146 0,0"
             style="fill:#d01527;fill-opacity:1;fill-rule:nonzero;stroke:none"
             id="path108"
             inkscape:connector-curvature="0" /></g><g
           id="g110"
           transform="translate(591.7588,262.9687)"
           style="fill:#d01527;fill-opacity:1;fill-rule:nonzero"><path
             d="m 0,0 c 2.213,-0.182 3.322,-0.273 5.531,-0.463 -0.028,-10.06 -0.049,-15.09 -0.074,-25.15 -2.211,0.187 -3.314,0.277 -5.525,0.459 C -0.043,-15.094 -0.028,-10.061 0,0"
             style="fill:#d01527;fill-opacity:1;fill-rule:nonzero;stroke:none"
             id="path112"
             inkscape:connector-curvature="0" /></g><g
           id="g114"
           transform="translate(632.5811,261.4902)"
           style="fill:#d01527;fill-opacity:1;fill-rule:nonzero"><path
             d="m 0,0 c -1.392,0.143 -2.089,0.209 -3.48,0.35 1.355,1.865 2.03,2.798 3.383,4.662 C 2.112,4.787 3.216,4.67 5.424,4.437 3.252,2.666 2.172,1.775 0,0 m -8.448,-14.125 c -0.002,-1.055 0.117,-2.098 0.36,-3.121 0.241,-1.027 0.633,-1.965 1.17,-2.818 0.536,-0.852 1.234,-1.559 2.102,-2.125 0.866,-0.569 1.922,-0.915 3.166,-1.041 1.244,-0.127 2.293,0.005 3.158,0.396 0.866,0.391 1.584,0.961 2.125,1.701 0.54,0.742 0.935,1.604 1.182,2.578 0.248,0.973 0.378,1.985 0.381,3.041 0.002,1.102 -0.123,2.18 -0.364,3.243 -0.242,1.06 -0.634,2.023 -1.171,2.888 -0.534,0.862 -1.237,1.592 -2.103,2.16 -0.864,0.575 -1.919,0.918 -3.164,1.045 -1.243,0.127 -2.298,-0.015 -3.164,-0.408 -0.866,-0.394 -1.574,-0.973 -2.115,-1.727 -0.543,-0.755 -0.94,-1.636 -1.187,-2.646 -0.248,-1.01 -0.373,-2.066 -0.376,-3.166 m -5.522,0.533 c 0.004,1.854 0.288,3.565 0.856,5.129 0.566,1.565 1.385,2.899 2.443,3.996 1.058,1.096 2.347,1.908 3.871,2.436 1.528,0.527 3.262,0.703 5.206,0.504 1.945,-0.202 3.68,-0.721 5.2,-1.561 1.521,-0.838 2.808,-1.91 3.859,-3.221 1.051,-1.312 1.86,-2.812 2.417,-4.49 0.556,-1.678 0.83,-3.445 0.827,-5.299 -0.005,-1.812 -0.291,-3.49 -0.857,-5.021 -0.567,-1.537 -1.376,-2.84 -2.432,-3.901 -1.057,-1.062 -2.357,-1.855 -3.882,-2.378 -1.524,-0.52 -3.257,-0.678 -5.201,-0.479 -1.944,0.197 -3.684,0.709 -5.206,1.541 -1.521,0.834 -2.8,1.879 -3.851,3.154 -1.052,1.278 -1.86,2.758 -2.417,4.409 -0.557,1.644 -0.837,3.369 -0.833,5.181"
             style="fill:#d01527;fill-opacity:1;fill-rule:nonzero;stroke:none"
             id="path116"
             inkscape:connector-curvature="0" /></g><g
           id="g118"
           transform="translate(664.6494,255.6582)"
           style="fill:#d01527;fill-opacity:1;fill-rule:nonzero"><path
             d="m 0,0 c 2.191,-0.26 3.282,-0.387 5.472,-0.652 4.165,-7.258 6.249,-10.897 10.412,-18.174 0.028,-0.006 0.043,-0.008 0.071,-0.012 0.018,6.748 0.028,10.123 0.048,16.875 2.061,-0.264 3.094,-0.392 5.155,-0.658 -0.028,-10.063 -0.043,-15.092 -0.071,-25.154 -2.203,0.285 -3.3,0.421 -5.505,0.701 -4.147,7.262 -6.227,10.894 -10.377,18.136 -0.028,0.004 -0.04,0.006 -0.069,0.01 -0.018,-6.736 -0.029,-10.109 -0.047,-16.845 -2.065,0.25 -3.096,0.373 -5.161,0.617 C -0.043,-15.092 -0.029,-10.063 0,0"
             style="fill:#d01527;fill-opacity:1;fill-rule:nonzero;stroke:none"
             id="path120"
             inkscape:connector-curvature="0" /></g></g></g></g></svg>